<?xml version="1.0" encoding="UTF-8"?>
<svg xmlns="http://www.w3.org/2000/svg" width="850" height="620" viewBox="904 2482 850 620">
<title>HIP END — S (triangle, 24.4°)</title>
<defs>
  <marker id="arr" viewBox="0 0 10 10" refX="5" refY="5" markerWidth="6" markerHeight="6" orient="auto-start-reverse">
    <path d="M0,0 L10,5 L0,10 z" fill="#0066cc"/>
  </marker>
  <style>text { font-family: -apple-system, Arial, sans-serif; }</style>
</defs>
<rect x="0" y="0" width="100%" height="100%" fill="#fafafa"/>
<rect x="904" y="2482" width="850" height="620" fill="#ffffff" stroke="#bbb" stroke-width="1"/>
<rect x="904" y="2482" width="850" height="46" fill="#f2f2f2" stroke="#bbb" stroke-width="1"/>
<text x="1329.0" y="2513" text-anchor="middle" font-size="18" font-weight="600" fill="#222">HIP END — S (triangle, 24.4°)</text>
<line x1="1125.48" y1="2936.39" x2="1532.52" y2="2936.39" stroke="#4a8fbf" stroke-width="0.7" opacity="0.75"/>
<line x1="1135.25" y1="2924.14" x2="1522.75" y2="2924.14" stroke="#4a8fbf" stroke-width="0.7" opacity="0.75"/>
<line x1="1145.03" y1="2911.89" x2="1512.97" y2="2911.89" stroke="#4a8fbf" stroke-width="0.7" opacity="0.75"/>
<line x1="1154.80" y1="2899.64" x2="1503.20" y2="2899.64" stroke="#4a8fbf" stroke-width="0.7" opacity="0.75"/>
<line x1="1164.58" y1="2887.40" x2="1493.42" y2="2887.40" stroke="#4a8fbf" stroke-width="0.7" opacity="0.75"/>
<line x1="1174.35" y1="2875.15" x2="1483.65" y2="2875.15" stroke="#4a8fbf" stroke-width="0.7" opacity="0.75"/>
<line x1="1184.13" y1="2862.90" x2="1473.87" y2="2862.90" stroke="#4a8fbf" stroke-width="0.7" opacity="0.75"/>
<line x1="1193.90" y1="2850.65" x2="1464.10" y2="2850.65" stroke="#4a8fbf" stroke-width="0.7" opacity="0.75"/>
<line x1="1203.68" y1="2838.40" x2="1454.32" y2="2838.40" stroke="#4a8fbf" stroke-width="0.7" opacity="0.75"/>
<line x1="1213.45" y1="2826.15" x2="1444.55" y2="2826.15" stroke="#4a8fbf" stroke-width="0.7" opacity="0.75"/>
<line x1="1223.23" y1="2813.90" x2="1434.77" y2="2813.90" stroke="#4a8fbf" stroke-width="0.7" opacity="0.75"/>
<line x1="1233.00" y1="2801.65" x2="1425.00" y2="2801.65" stroke="#4a8fbf" stroke-width="0.7" opacity="0.75"/>
<line x1="1242.78" y1="2789.41" x2="1415.22" y2="2789.41" stroke="#4a8fbf" stroke-width="0.7" opacity="0.75"/>
<line x1="1252.55" y1="2777.16" x2="1405.45" y2="2777.16" stroke="#4a8fbf" stroke-width="0.7" opacity="0.75"/>
<line x1="1262.33" y1="2764.91" x2="1395.67" y2="2764.91" stroke="#4a8fbf" stroke-width="0.7" opacity="0.75"/>
<line x1="1272.10" y1="2752.66" x2="1385.90" y2="2752.66" stroke="#4a8fbf" stroke-width="0.7" opacity="0.75"/>
<line x1="1281.88" y1="2740.41" x2="1376.12" y2="2740.41" stroke="#4a8fbf" stroke-width="0.7" opacity="0.75"/>
<line x1="1291.65" y1="2728.16" x2="1366.35" y2="2728.16" stroke="#4a8fbf" stroke-width="0.7" opacity="0.75"/>
<line x1="1301.43" y1="2715.91" x2="1356.57" y2="2715.91" stroke="#4a8fbf" stroke-width="0.7" opacity="0.75"/>
<line x1="1311.20" y1="2703.67" x2="1346.80" y2="2703.67" stroke="#4a8fbf" stroke-width="0.7" opacity="0.75"/>
<line x1="1320.98" y1="2691.42" x2="1337.02" y2="2691.42" stroke="#4a8fbf" stroke-width="0.7" opacity="0.75"/>
<line x1="1126.90" y1="2948.64" x2="1126.90" y2="2934.61" stroke="#666" stroke-width="0.9" opacity="0.9"/>
<line x1="1163.64" y1="2948.64" x2="1163.64" y2="2888.56" stroke="#666" stroke-width="0.9" opacity="0.9"/>
<line x1="1200.39" y1="2948.64" x2="1200.39" y2="2842.52" stroke="#666" stroke-width="0.9" opacity="0.9"/>
<line x1="1237.14" y1="2948.64" x2="1237.14" y2="2796.47" stroke="#666" stroke-width="0.9" opacity="0.9"/>
<line x1="1273.88" y1="2948.64" x2="1273.88" y2="2750.43" stroke="#666" stroke-width="0.9" opacity="0.9"/>
<line x1="1310.63" y1="2948.64" x2="1310.63" y2="2704.38" stroke="#666" stroke-width="0.9" opacity="0.9"/>
<line x1="1347.37" y1="2948.64" x2="1347.37" y2="2704.38" stroke="#666" stroke-width="0.9" opacity="0.9"/>
<line x1="1384.12" y1="2948.64" x2="1384.12" y2="2750.43" stroke="#666" stroke-width="0.9" opacity="0.9"/>
<line x1="1420.86" y1="2948.64" x2="1420.86" y2="2796.47" stroke="#666" stroke-width="0.9" opacity="0.9"/>
<line x1="1457.61" y1="2948.64" x2="1457.61" y2="2842.52" stroke="#666" stroke-width="0.9" opacity="0.9"/>
<line x1="1494.36" y1="2948.64" x2="1494.36" y2="2888.56" stroke="#666" stroke-width="0.9" opacity="0.9"/>
<line x1="1531.10" y1="2948.64" x2="1531.10" y2="2934.61" stroke="#666" stroke-width="0.9" opacity="0.9"/>
<path d="M 1115.70 2948.64 L 1542.30 2948.64 L 1329.00 2681.36 Z" fill="none" stroke="#8B4513" stroke-width="3"/>
<line x1="1115.7004519395741" y1="2948.6382053150187" x2="1115.7004519395741" y2="2998.6382053150187" stroke="#0066cc" stroke-width="0.6"/>
<line x1="1542.2995480604259" y1="2948.6382053150187" x2="1542.2995480604259" y2="2998.6382053150187" stroke="#0066cc" stroke-width="0.6"/>
<line x1="1115.7004519395741" y1="2990.6382053150187" x2="1542.2995480604259" y2="2990.6382053150187" stroke="#0066cc" stroke-width="1" marker-start="url(#arr)" marker-end="url(#arr)"/>
<text x="1329.0" y="2984.6382053150187" text-anchor="middle" font-size="12" fill="#0066cc">eave = 34' 10"</text>
<line x1="1542.2995480604259" y1="2948.6382053150187" x2="1582.2995480604259" y2="2948.6382053150187" stroke="#0066cc" stroke-width="0.6" stroke-dasharray="3,3"/>
<line x1="1329.0" y1="2681.3617946849818" x2="1582.2995480604259" y2="2681.3617946849818" stroke="#0066cc" stroke-width="0.6" stroke-dasharray="3,3"/>
<line x1="1574.2995480604259" y1="2948.6382053150187" x2="1574.2995480604259" y2="2681.3617946849818" stroke="#0066cc" stroke-width="1" marker-start="url(#arr)" marker-end="url(#arr)"/>
<text x="1580.2995480604259" y="2815.0" text-anchor="start" font-size="11" fill="#0066cc">height = 21' 10"</text>
<text x="1214.350225969787" y="2815.0" text-anchor="end" font-size="10" fill="#555">hip = 27' 11"</text>
<text x="1123.7004519395741" y="2942.6382053150187" text-anchor="start" font-size="11" fill="#333">51.4°</text>
<text x="1534.2995480604259" y="2942.6382053150187" text-anchor="end" font-size="11" fill="#333">51.4°</text>
<text x="1329.0" y="2696.3617946849818" text-anchor="middle" font-size="11" fill="#333">77.2°</text>
<text x="1329.0" y="2548" text-anchor="middle" font-size="15" font-weight="600" fill="#8B4513">ROOF PITCH: 24.4°</text>
<text x="1329.0" y="2566" text-anchor="middle" font-size="13" fill="#333">AREA: 380 sft per face   (× 2 = 760 sft)</text>
<text x="1744" y="2548" text-anchor="end" font-size="11" fill="#333">12 rafters @ 36" OC</text>
<text x="1744" y="2563" text-anchor="end" font-size="11" fill="#333">21 purlins @ 12" OC</text>
</svg>
