<?xml version="1.0" encoding="UTF-8"?>
<svg xmlns="http://www.w3.org/2000/svg" width="1724" height="240" viewBox="30 3126 1724 240">
<title>Framing detail — metal pipe cross sections</title>
<defs>
  <marker id="arr" viewBox="0 0 10 10" refX="5" refY="5" markerWidth="6" markerHeight="6" orient="auto-start-reverse">
    <path d="M0,0 L10,5 L0,10 z" fill="#0066cc"/>
  </marker>
  <style>text { font-family: -apple-system, Arial, sans-serif; }</style>
</defs>
<rect x="0" y="0" width="100%" height="100%" fill="#fafafa"/>
<rect x="30" y="3126" width="1724" height="240" fill="#ffffff" stroke="#bbb" stroke-width="1"/>
<rect x="30" y="3126" width="1724" height="40" fill="#f2f2f2" stroke="#bbb" stroke-width="1"/>
<text x="892.0" y="3154" text-anchor="middle" font-size="18" font-weight="600" fill="#222">FRAMING DETAIL — Metal Pipe Cross Sections</text>
<rect x="228.88" y="3294.0" width="16.0" height="32.0" fill="#c8a377" stroke="#8B4513" stroke-width="2"/>
<rect x="229.5099212598425" y="3294.6299212598424" width="14.740157480314961" height="30.74015748031496" fill="white" stroke="#8B4513" stroke-width="0.8"/>
<text x="236.88" y="3386" text-anchor="middle" font-size="14" font-weight="600" fill="#222">RAFTER</text>
<text x="236.88" y="3404" text-anchor="middle" font-size="12" fill="#333">2"×4"×2mm @ 36" OC</text>
<line x1="228.88" y1="3326" x2="228.88" y2="3347" stroke="#0066cc" stroke-width="0.5"/>
<line x1="244.88" y1="3326" x2="244.88" y2="3347" stroke="#0066cc" stroke-width="0.5"/>
<line x1="228.88" y1="3341" x2="244.88" y2="3341" stroke="#0066cc" stroke-width="1" marker-start="url(#arr)" marker-end="url(#arr)"/>
<text x="236.88" y="3337" text-anchor="middle" font-size="10" fill="#0066cc">2"</text>
<line x1="228.88" y1="3294.0" x2="207.88" y2="3294.0" stroke="#0066cc" stroke-width="0.5"/>
<line x1="228.88" y1="3326" x2="207.88" y2="3326" stroke="#0066cc" stroke-width="0.5"/>
<line x1="213.88" y1="3294.0" x2="213.88" y2="3326" stroke="#0066cc" stroke-width="1" marker-start="url(#arr)" marker-end="url(#arr)"/>
<text x="207.88" y="3310.0" text-anchor="end" font-size="10" fill="#0066cc">4"</text>
<rect x="504.72" y="3318.0" width="16.0" height="8.0" fill="#a8c9e0" stroke="#4a8fbf" stroke-width="2"/>
<rect x="505.22393700787404" y="3318.503937007874" width="14.992125984251969" height="6.9921259842519685" fill="white" stroke="#4a8fbf" stroke-width="0.8"/>
<text x="512.72" y="3386" text-anchor="middle" font-size="14" font-weight="600" fill="#222">PURLIN</text>
<text x="512.72" y="3404" text-anchor="middle" font-size="12" fill="#333">2"×1"×1.6mm @ 12" OC (flat)</text>
<line x1="504.72" y1="3326" x2="504.72" y2="3347" stroke="#0066cc" stroke-width="0.5"/>
<line x1="520.72" y1="3326" x2="520.72" y2="3347" stroke="#0066cc" stroke-width="0.5"/>
<line x1="504.72" y1="3341" x2="520.72" y2="3341" stroke="#0066cc" stroke-width="1" marker-start="url(#arr)" marker-end="url(#arr)"/>
<text x="512.72" y="3337" text-anchor="middle" font-size="10" fill="#0066cc">2"</text>
<line x1="504.72" y1="3318.0" x2="483.72" y2="3318.0" stroke="#0066cc" stroke-width="0.5"/>
<line x1="504.72" y1="3326" x2="483.72" y2="3326" stroke="#0066cc" stroke-width="0.5"/>
<line x1="489.72" y1="3318.0" x2="489.72" y2="3326" stroke="#0066cc" stroke-width="1" marker-start="url(#arr)" marker-end="url(#arr)"/>
<text x="483.72" y="3322.0" text-anchor="end" font-size="10" fill="#0066cc">1"</text>
<rect x="764.5600000000001" y="3302.0" width="48.0" height="24.0" fill="#a6764a" stroke="#5a3a17" stroke-width="2"/>
<rect x="765.1899212598425" y="3302.6299212598424" width="46.74015748031496" height="22.74015748031496" fill="white" stroke="#5a3a17" stroke-width="0.8"/>
<text x="788.5600000000001" y="3386" text-anchor="middle" font-size="14" font-weight="600" fill="#222">RIDGE</text>
<text x="788.5600000000001" y="3404" text-anchor="middle" font-size="12" fill="#333">6"×3"×2mm (central + 4 hip)</text>
<line x1="764.5600000000001" y1="3326" x2="764.5600000000001" y2="3347" stroke="#0066cc" stroke-width="0.5"/>
<line x1="812.5600000000001" y1="3326" x2="812.5600000000001" y2="3347" stroke="#0066cc" stroke-width="0.5"/>
<line x1="764.5600000000001" y1="3341" x2="812.5600000000001" y2="3341" stroke="#0066cc" stroke-width="1" marker-start="url(#arr)" marker-end="url(#arr)"/>
<text x="788.5600000000001" y="3337" text-anchor="middle" font-size="10" fill="#0066cc">6"</text>
<line x1="764.5600000000001" y1="3302.0" x2="743.5600000000001" y2="3302.0" stroke="#0066cc" stroke-width="0.5"/>
<line x1="764.5600000000001" y1="3326" x2="743.5600000000001" y2="3326" stroke="#0066cc" stroke-width="0.5"/>
<line x1="749.5600000000001" y1="3302.0" x2="749.5600000000001" y2="3326" stroke="#0066cc" stroke-width="1" marker-start="url(#arr)" marker-end="url(#arr)"/>
<text x="743.5600000000001" y="3314.0" text-anchor="end" font-size="10" fill="#0066cc">3"</text>
<rect x="1064.1999999999998" y="3278.0" width="0.4" height="48.0" fill="#a8c9e0" stroke="#4a8fbf" stroke-width="2"/>
<text x="1064.3999999999999" y="3386" text-anchor="middle" font-size="14" font-weight="600" fill="#222">PANI PATTI</text>
<text x="1064.3999999999999" y="3404" text-anchor="middle" font-size="12" fill="#333">6" × 1.2 mm GI strip (bottom flush with rafter bottom)</text>
<line x1="1064.1999999999998" y1="3326" x2="1064.1999999999998" y2="3347" stroke="#0066cc" stroke-width="0.5"/>
<line x1="1064.6" y1="3326" x2="1064.6" y2="3347" stroke="#0066cc" stroke-width="0.5"/>
<line x1="1064.1999999999998" y1="3341" x2="1064.6" y2="3341" stroke="#0066cc" stroke-width="1" marker-start="url(#arr)" marker-end="url(#arr)"/>
<text x="1064.3999999999999" y="3337" text-anchor="middle" font-size="10" fill="#0066cc">0.05"</text>
<line x1="1064.1999999999998" y1="3278.0" x2="1043.1999999999998" y2="3278.0" stroke="#0066cc" stroke-width="0.5"/>
<line x1="1064.1999999999998" y1="3326" x2="1043.1999999999998" y2="3326" stroke="#0066cc" stroke-width="0.5"/>
<line x1="1049.1999999999998" y1="3278.0" x2="1049.1999999999998" y2="3326" stroke="#0066cc" stroke-width="1" marker-start="url(#arr)" marker-end="url(#arr)"/>
<text x="1043.1999999999998" y="3302.0" text-anchor="end" font-size="10" fill="#0066cc">6"</text>
<polygon points="1336.2,3326.0 1344.2,3326.0 1344.2,3318.0 1343.3,3318.0 1343.3,3325.1 1336.2,3325.1" fill="#7a7a80" stroke="#404040" stroke-width="2" stroke-linejoin="miter"/>
<text x="1340.24" y="3386" text-anchor="middle" font-size="14" font-weight="600" fill="#222">EAVE L-CHANNEL</text>
<text x="1340.24" y="3404" text-anchor="middle" font-size="12" fill="#333">1"×1"×3mm on top of Pani Patti</text>
<line x1="1336.24" y1="3326" x2="1336.24" y2="3347" stroke="#0066cc" stroke-width="0.5"/>
<line x1="1344.24" y1="3326" x2="1344.24" y2="3347" stroke="#0066cc" stroke-width="0.5"/>
<line x1="1336.24" y1="3341" x2="1344.24" y2="3341" stroke="#0066cc" stroke-width="1" marker-start="url(#arr)" marker-end="url(#arr)"/>
<text x="1340.24" y="3337" text-anchor="middle" font-size="10" fill="#0066cc">1"</text>
<line x1="1336.24" y1="3318.0" x2="1315.24" y2="3318.0" stroke="#0066cc" stroke-width="0.5"/>
<line x1="1336.24" y1="3326" x2="1315.24" y2="3326" stroke="#0066cc" stroke-width="0.5"/>
<line x1="1321.24" y1="3318.0" x2="1321.24" y2="3326" stroke="#0066cc" stroke-width="1" marker-start="url(#arr)" marker-end="url(#arr)"/>
<text x="1315.24" y="3322.0" text-anchor="end" font-size="10" fill="#0066cc">1"</text>
<rect x="1604.0800000000002" y="3318.0" width="24.0" height="8.0" fill="#a6764a" stroke="#5a3a17" stroke-width="2"/>
<rect x="1604.5839370078743" y="3318.503937007874" width="22.992125984251967" height="6.9921259842519685" fill="white" stroke="#5a3a17" stroke-width="0.8"/>
<text x="1616.0800000000002" y="3386" text-anchor="middle" font-size="14" font-weight="600" fill="#222">BARGE PIPE</text>
<text x="1616.0800000000002" y="3404" text-anchor="middle" font-size="12" fill="#333">3"×1"×1.6mm welded to purlin ends</text>
<line x1="1604.0800000000002" y1="3326" x2="1604.0800000000002" y2="3347" stroke="#0066cc" stroke-width="0.5"/>
<line x1="1628.0800000000002" y1="3326" x2="1628.0800000000002" y2="3347" stroke="#0066cc" stroke-width="0.5"/>
<line x1="1604.0800000000002" y1="3341" x2="1628.0800000000002" y2="3341" stroke="#0066cc" stroke-width="1" marker-start="url(#arr)" marker-end="url(#arr)"/>
<text x="1616.0800000000002" y="3337" text-anchor="middle" font-size="10" fill="#0066cc">3"</text>
<line x1="1604.0800000000002" y1="3318.0" x2="1583.0800000000002" y2="3318.0" stroke="#0066cc" stroke-width="0.5"/>
<line x1="1604.0800000000002" y1="3326" x2="1583.0800000000002" y2="3326" stroke="#0066cc" stroke-width="0.5"/>
<line x1="1589.0800000000002" y1="3318.0" x2="1589.0800000000002" y2="3326" stroke="#0066cc" stroke-width="1" marker-start="url(#arr)" marker-end="url(#arr)"/>
<text x="1583.0800000000002" y="3322.0" text-anchor="end" font-size="10" fill="#0066cc">1"</text>
</svg>
