<?xml version="1.0" encoding="UTF-8"?>
<svg xmlns="http://www.w3.org/2000/svg" width="850" height="620" viewBox="30 1194 850 620">
<title>Isometric view — structural frame</title>
<defs>
  <marker id="arr" viewBox="0 0 10 10" refX="5" refY="5" markerWidth="6" markerHeight="6" orient="auto-start-reverse">
    <path d="M0,0 L10,5 L0,10 z" fill="#0066cc"/>
  </marker>
  <style>text { font-family: -apple-system, Arial, sans-serif; }</style>
</defs>
<rect x="0" y="0" width="100%" height="100%" fill="#fafafa"/>
<rect x="30" y="1194" width="850" height="620" fill="#ffffff" stroke="#bbb" stroke-width="1"/>
<rect x="30" y="1194" width="850" height="40" fill="#f2f2f2" stroke="#bbb" stroke-width="1"/>
<text x="455.0" y="1221" text-anchor="middle" font-size="18" font-weight="600" fill="#222">PERSPECTIVE — Structural frame (isometric)</text>
<line x1="523.6" y1="1323.3" x2="802.6" y2="1484.4" stroke="#b48a5a" stroke-width="0.8" opacity="0.55" stroke-dasharray="4,3"/>
<line x1="802.6" y1="1484.4" x2="386.4" y2="1724.7" stroke="#b48a5a" stroke-width="0.8" opacity="0.55" stroke-dasharray="4,3"/>
<line x1="386.4" y1="1724.7" x2="107.4" y2="1563.6" stroke="#b48a5a" stroke-width="0.8" opacity="0.55" stroke-dasharray="4,3"/>
<line x1="107.4" y1="1563.6" x2="523.6" y2="1323.3" stroke="#b48a5a" stroke-width="0.8" opacity="0.55" stroke-dasharray="4,3"/>
<line x1="574.0" y1="1371.8" x2="406.0" y2="1468.8" stroke="#a17545" stroke-width="1.0" opacity="0.7"/>
<line x1="574.0" y1="1371.8" x2="523.6" y2="1323.3" stroke="#a17545" stroke-width="0.8" opacity="0.55" stroke-dasharray="4,3"/>
<line x1="574.0" y1="1371.8" x2="802.6" y2="1484.4" stroke="#a17545" stroke-width="0.8" opacity="0.55" stroke-dasharray="4,3"/>
<line x1="406.0" y1="1468.8" x2="386.4" y2="1724.7" stroke="#a17545" stroke-width="0.8" opacity="0.55" stroke-dasharray="4,3"/>
<line x1="406.0" y1="1468.8" x2="107.4" y2="1563.6" stroke="#a17545" stroke-width="0.8" opacity="0.55" stroke-dasharray="4,3"/>
<polygon points="535.0,1390.0 751.2,1514.8 751.2,1459.1 535.0,1334.2" fill="#e5dfd2" fill-opacity="0.55" stroke="#8a7f6d" stroke-width="0.9" stroke-linejoin="round"/>
<polygon points="535.0,1390.0 174.5,1598.1 174.5,1542.3 535.0,1334.2" fill="#e5dfd2" fill-opacity="0.55" stroke="#8a7f6d" stroke-width="0.9" stroke-linejoin="round"/>
<polygon points="751.2,1514.8 390.8,1722.9 390.8,1667.2 751.2,1459.1" fill="#e5dfd2" fill-opacity="0.55" stroke="#8a7f6d" stroke-width="0.9" stroke-linejoin="round"/>
<polygon points="174.5,1598.1 390.8,1722.9 390.8,1667.2 174.5,1542.3" fill="#e5dfd2" fill-opacity="0.55" stroke="#8a7f6d" stroke-width="0.9" stroke-linejoin="round"/>
<line x1="469.1" y1="1431.7" x2="469.1" y2="1372.2" stroke="#3f2f1a" stroke-width="2.0" opacity="0.95"/>
<circle cx="469.1" cy="1375.9" r="2.4" fill="#7a6244" stroke="#3f2f1a" stroke-width="0.7"/>
<line x1="301.1" y1="1528.7" x2="301.1" y2="1469.2" stroke="#3f2f1a" stroke-width="2.0" opacity="0.95"/>
<circle cx="301.1" cy="1472.9" r="2.4" fill="#7a6244" stroke="#3f2f1a" stroke-width="0.7"/>
<line x1="182.9" y1="1596.9" x2="182.9" y2="1537.4" stroke="#3f2f1a" stroke-width="2.0" opacity="0.95"/>
<circle cx="182.9" cy="1541.1" r="2.4" fill="#7a6244" stroke="#3f2f1a" stroke-width="0.7"/>
<line x1="535.8" y1="1394.1" x2="535.8" y2="1334.7" stroke="#3f2f1a" stroke-width="2.0" opacity="0.95"/>
<circle cx="535.8" cy="1338.4" r="2.4" fill="#7a6244" stroke="#3f2f1a" stroke-width="0.7"/>
<line x1="379.7" y1="1485.3" x2="379.7" y2="1425.9" stroke="#3f2f1a" stroke-width="2.0" opacity="0.95"/>
<circle cx="379.7" cy="1429.6" r="2.4" fill="#7a6244" stroke="#3f2f1a" stroke-width="0.7"/>
<line x1="333.1" y1="1547.2" x2="333.1" y2="1487.7" stroke="#3f2f1a" stroke-width="2.0" opacity="0.95"/>
<circle cx="333.1" cy="1491.4" r="2.4" fill="#7a6244" stroke="#3f2f1a" stroke-width="0.7"/>
<line x1="252.6" y1="1639.5" x2="252.6" y2="1580.0" stroke="#3f2f1a" stroke-width="2.0" opacity="0.95"/>
<circle cx="252.6" cy="1583.7" r="2.4" fill="#7a6244" stroke="#3f2f1a" stroke-width="0.7"/>
<line x1="615.9" y1="1440.4" x2="615.9" y2="1380.9" stroke="#3f2f1a" stroke-width="2.0" opacity="0.95"/>
<circle cx="615.9" cy="1384.6" r="2.4" fill="#7a6244" stroke="#3f2f1a" stroke-width="0.7"/>
<line x1="562.0" y1="1485.3" x2="562.0" y2="1425.9" stroke="#3f2f1a" stroke-width="2.0" opacity="0.95"/>
<circle cx="562.0" cy="1429.6" r="2.4" fill="#7a6244" stroke="#3f2f1a" stroke-width="0.7"/>
<line x1="472.9" y1="1536.8" x2="472.9" y2="1477.3" stroke="#3f2f1a" stroke-width="2.0" opacity="0.95"/>
<circle cx="472.9" cy="1481.0" r="2.4" fill="#7a6244" stroke="#3f2f1a" stroke-width="0.7"/>
<line x1="663.9" y1="1468.1" x2="663.9" y2="1408.7" stroke="#3f2f1a" stroke-width="2.0" opacity="0.95"/>
<circle cx="663.9" cy="1412.4" r="2.4" fill="#7a6244" stroke="#3f2f1a" stroke-width="0.7"/>
<line x1="320.7" y1="1678.8" x2="320.7" y2="1619.3" stroke="#3f2f1a" stroke-width="2.0" opacity="0.95"/>
<circle cx="320.7" cy="1623.0" r="2.4" fill="#7a6244" stroke="#3f2f1a" stroke-width="0.7"/>
<line x1="442.0" y1="1610.1" x2="442.0" y2="1550.6" stroke="#3f2f1a" stroke-width="2.0" opacity="0.95"/>
<circle cx="442.0" cy="1554.3" r="2.4" fill="#7a6244" stroke="#3f2f1a" stroke-width="0.7"/>
<line x1="586.1" y1="1604.5" x2="586.1" y2="1545.0" stroke="#3f2f1a" stroke-width="2.0" opacity="0.95"/>
<circle cx="586.1" cy="1548.7" r="2.4" fill="#7a6244" stroke="#3f2f1a" stroke-width="0.7"/>
<line x1="744.0" y1="1514.4" x2="744.0" y2="1454.9" stroke="#3f2f1a" stroke-width="2.0" opacity="0.95"/>
<circle cx="744.0" cy="1458.6" r="2.4" fill="#7a6244" stroke="#3f2f1a" stroke-width="0.7"/>
<line x1="679.0" y1="1552.9" x2="679.0" y2="1493.4" stroke="#3f2f1a" stroke-width="2.0" opacity="0.95"/>
<circle cx="679.0" cy="1497.1" r="2.4" fill="#7a6244" stroke="#3f2f1a" stroke-width="0.7"/>
<line x1="510.9" y1="1649.9" x2="510.9" y2="1590.4" stroke="#3f2f1a" stroke-width="2.0" opacity="0.95"/>
<circle cx="510.9" cy="1594.1" r="2.4" fill="#7a6244" stroke="#3f2f1a" stroke-width="0.7"/>
<line x1="392.8" y1="1718.1" x2="392.8" y2="1658.6" stroke="#3f2f1a" stroke-width="2.0" opacity="0.95"/>
<circle cx="392.8" cy="1662.3" r="2.4" fill="#7a6244" stroke="#3f2f1a" stroke-width="0.7"/>
<line x1="535.0" y1="1334.2" x2="751.2" y2="1459.1" stroke="#1e5aa6" stroke-width="2.4" opacity="0.95"/>
<line x1="751.2" y1="1459.1" x2="390.8" y2="1667.2" stroke="#1e5aa6" stroke-width="2.4" opacity="0.95"/>
<line x1="390.8" y1="1667.2" x2="174.5" y2="1542.3" stroke="#1e5aa6" stroke-width="2.4" opacity="0.95"/>
<line x1="174.5" y1="1542.3" x2="535.0" y2="1334.2" stroke="#1e5aa6" stroke-width="2.4" opacity="0.95"/>
<line x1="520.0" y1="1405.3" x2="589.0" y2="1365.4" stroke="#8a4a1a" stroke-width="1.6" opacity="1.0"/>
<line x1="351.9" y1="1502.3" x2="228.6" y2="1573.5" stroke="#8a4a1a" stroke-width="1.6" opacity="1.0"/>
<line x1="520.0" y1="1405.3" x2="428.8" y2="1457.9" stroke="#8a4a1a" stroke-width="1.6" opacity="1.0"/>
<line x1="428.8" y1="1457.9" x2="351.9" y2="1502.3" stroke="#8a4a1a" stroke-width="1.6" opacity="1.0"/>
<line x1="574.0" y1="1436.5" x2="643.1" y2="1396.6" stroke="#8a4a1a" stroke-width="1.6" opacity="1.0"/>
<line x1="406.0" y1="1533.5" x2="282.6" y2="1604.7" stroke="#8a4a1a" stroke-width="1.6" opacity="1.0"/>
<line x1="574.0" y1="1436.5" x2="482.9" y2="1489.1" stroke="#8a4a1a" stroke-width="1.6" opacity="1.0"/>
<line x1="482.9" y1="1489.1" x2="406.0" y2="1533.5" stroke="#8a4a1a" stroke-width="1.6" opacity="1.0"/>
<line x1="628.1" y1="1467.7" x2="697.2" y2="1427.8" stroke="#8a4a1a" stroke-width="1.6" opacity="1.0"/>
<line x1="460.1" y1="1564.7" x2="336.7" y2="1636.0" stroke="#8a4a1a" stroke-width="1.6" opacity="1.0"/>
<line x1="628.1" y1="1467.7" x2="537.0" y2="1520.3" stroke="#8a4a1a" stroke-width="1.6" opacity="1.0"/>
<line x1="537.0" y1="1520.3" x2="460.1" y2="1564.7" stroke="#8a4a1a" stroke-width="1.6" opacity="1.0"/>
<line x1="614.1" y1="1348.6" x2="366.0" y2="1491.9" stroke="#6b4423" stroke-width="2.0" opacity="0.95"/>
<line x1="574.0" y1="1371.8" x2="523.6" y2="1323.3" stroke="#6b4423" stroke-width="2.0" opacity="0.95"/>
<line x1="574.0" y1="1371.8" x2="802.6" y2="1484.4" stroke="#6b4423" stroke-width="2.0" opacity="0.95"/>
<line x1="406.0" y1="1468.8" x2="386.4" y2="1724.7" stroke="#6b4423" stroke-width="2.0" opacity="0.95"/>
<line x1="406.0" y1="1468.8" x2="107.4" y2="1563.6" stroke="#6b4423" stroke-width="2.0" opacity="0.95"/>
<line x1="614.1" y1="1348.6" x2="562.9" y2="1361.0" stroke="#6b4423" stroke-width="1.4" opacity="0.9" stroke-dasharray="5,3"/>
<line x1="614.1" y1="1348.6" x2="624.7" y2="1396.7" stroke="#6b4423" stroke-width="1.4" opacity="0.9" stroke-dasharray="5,3"/>
<line x1="366.0" y1="1491.9" x2="402.5" y2="1514.6" stroke="#6b4423" stroke-width="1.4" opacity="0.9" stroke-dasharray="5,3"/>
<line x1="366.0" y1="1491.9" x2="352.5" y2="1485.8" stroke="#6b4423" stroke-width="1.4" opacity="0.9" stroke-dasharray="5,3"/>
<line x1="465.9" y1="1374.1" x2="574.0" y2="1374.1" stroke="#8b0000" stroke-width="2.4" opacity="1.0"/>
<line x1="574.0" y1="1374.1" x2="682.2" y2="1498.9" stroke="#8b0000" stroke-width="2.4" opacity="1.0"/>
<line x1="465.9" y1="1374.1" x2="682.2" y2="1498.9" stroke="#8b0000" stroke-width="2.4" opacity="1.0"/>
<line x1="574.0" y1="1374.1" x2="574.0" y2="1436.5" stroke="#c25050" stroke-width="1.2" opacity="1.0"/>
<line x1="574.0" y1="1374.1" x2="520.0" y2="1405.3" stroke="#c25050" stroke-width="1.2" opacity="1.0"/>
<line x1="574.0" y1="1374.1" x2="628.1" y2="1467.7" stroke="#c25050" stroke-width="1.2" opacity="1.0"/>
<line x1="520.0" y1="1374.1" x2="520.0" y2="1405.3" stroke="#c25050" stroke-width="1.2" opacity="1.0"/>
<line x1="628.1" y1="1436.5" x2="628.1" y2="1467.7" stroke="#c25050" stroke-width="1.2" opacity="1.0"/>
<circle cx="465.9" cy="1374.1" r="2.0" fill="#8b0000"/>
<circle cx="520.0" cy="1405.3" r="2.0" fill="#8b0000"/>
<circle cx="574.0" cy="1436.5" r="2.0" fill="#8b0000"/>
<circle cx="628.1" cy="1467.7" r="2.0" fill="#8b0000"/>
<circle cx="682.2" cy="1498.9" r="2.0" fill="#8b0000"/>
<circle cx="520.0" cy="1374.1" r="2.0" fill="#8b0000"/>
<circle cx="574.0" cy="1374.1" r="2.0" fill="#8b0000"/>
<circle cx="628.1" cy="1436.5" r="2.0" fill="#8b0000"/>
<circle cx="574.0" cy="1374.1" r="9" fill="white" stroke="#8b0000" stroke-width="1.2"/>
<text x="574.0" y="1378.1" text-anchor="middle" font-size="10" font-weight="700" fill="#8b0000">T1</text>
<line x1="374.8" y1="1426.7" x2="482.9" y2="1426.7" stroke="#8b0000" stroke-width="2.4" opacity="1.0"/>
<line x1="482.9" y1="1426.7" x2="591.0" y2="1551.6" stroke="#8b0000" stroke-width="2.4" opacity="1.0"/>
<line x1="374.8" y1="1426.7" x2="591.0" y2="1551.6" stroke="#8b0000" stroke-width="2.4" opacity="1.0"/>
<line x1="482.9" y1="1426.7" x2="482.9" y2="1489.1" stroke="#c25050" stroke-width="1.2" opacity="1.0"/>
<line x1="482.9" y1="1426.7" x2="428.8" y2="1457.9" stroke="#c25050" stroke-width="1.2" opacity="1.0"/>
<line x1="482.9" y1="1426.7" x2="537.0" y2="1520.3" stroke="#c25050" stroke-width="1.2" opacity="1.0"/>
<line x1="428.8" y1="1426.7" x2="428.8" y2="1457.9" stroke="#c25050" stroke-width="1.2" opacity="1.0"/>
<line x1="537.0" y1="1489.1" x2="537.0" y2="1520.3" stroke="#c25050" stroke-width="1.2" opacity="1.0"/>
<circle cx="374.8" cy="1426.7" r="2.0" fill="#8b0000"/>
<circle cx="428.8" cy="1457.9" r="2.0" fill="#8b0000"/>
<circle cx="482.9" cy="1489.1" r="2.0" fill="#8b0000"/>
<circle cx="537.0" cy="1520.3" r="2.0" fill="#8b0000"/>
<circle cx="591.0" cy="1551.6" r="2.0" fill="#8b0000"/>
<circle cx="428.8" cy="1426.7" r="2.0" fill="#8b0000"/>
<circle cx="482.9" cy="1426.7" r="2.0" fill="#8b0000"/>
<circle cx="537.0" cy="1489.1" r="2.0" fill="#8b0000"/>
<circle cx="482.9" cy="1426.7" r="9" fill="white" stroke="#8b0000" stroke-width="1.2"/>
<text x="482.9" y="1430.7" text-anchor="middle" font-size="10" font-weight="700" fill="#8b0000">T2</text>
<line x1="297.9" y1="1471.1" x2="406.0" y2="1471.1" stroke="#8b0000" stroke-width="2.4" opacity="1.0"/>
<line x1="406.0" y1="1471.1" x2="514.1" y2="1595.9" stroke="#8b0000" stroke-width="2.4" opacity="1.0"/>
<line x1="297.9" y1="1471.1" x2="514.1" y2="1595.9" stroke="#8b0000" stroke-width="2.4" opacity="1.0"/>
<line x1="406.0" y1="1471.1" x2="406.0" y2="1533.5" stroke="#c25050" stroke-width="1.2" opacity="1.0"/>
<line x1="406.0" y1="1471.1" x2="351.9" y2="1502.3" stroke="#c25050" stroke-width="1.2" opacity="1.0"/>
<line x1="406.0" y1="1471.1" x2="460.1" y2="1564.7" stroke="#c25050" stroke-width="1.2" opacity="1.0"/>
<line x1="351.9" y1="1471.1" x2="351.9" y2="1502.3" stroke="#c25050" stroke-width="1.2" opacity="1.0"/>
<line x1="460.1" y1="1533.5" x2="460.1" y2="1564.7" stroke="#c25050" stroke-width="1.2" opacity="1.0"/>
<circle cx="297.9" cy="1471.1" r="2.0" fill="#8b0000"/>
<circle cx="351.9" cy="1502.3" r="2.0" fill="#8b0000"/>
<circle cx="406.0" cy="1533.5" r="2.0" fill="#8b0000"/>
<circle cx="460.1" cy="1564.7" r="2.0" fill="#8b0000"/>
<circle cx="514.1" cy="1595.9" r="2.0" fill="#8b0000"/>
<circle cx="351.9" cy="1471.1" r="2.0" fill="#8b0000"/>
<circle cx="406.0" cy="1471.1" r="2.0" fill="#8b0000"/>
<circle cx="460.1" cy="1533.5" r="2.0" fill="#8b0000"/>
<circle cx="406.0" cy="1471.1" r="9" fill="white" stroke="#8b0000" stroke-width="1.2"/>
<text x="406.0" y="1475.1" text-anchor="middle" font-size="10" font-weight="700" fill="#8b0000">T3</text>
<text x="663.1" y="1418.8" text-anchor="middle" font-size="13" font-weight="600" fill="#333">N</text>
<text x="246.9" y="1659.2" text-anchor="middle" font-size="13" font-weight="600" fill="#333">S</text>
<text x="315.5" y="1458.5" text-anchor="middle" font-size="13" font-weight="600" fill="#333">W</text>
<text x="594.5" y="1619.5" text-anchor="middle" font-size="13" font-weight="600" fill="#333">E</text>
<text x="60" y="1264" font-size="11" font-weight="600" fill="#8b0000">■ Fink truss × 3</text>
<text x="60" y="1280" font-size="11" font-weight="600" fill="#1e5aa6">■ Ring beam (27' × 45')</text>
<text x="60" y="1296" font-size="11" font-weight="600" fill="#8a4a1a">■ Hip-end beams × 12</text>
<text x="60" y="1312" font-size="11" font-weight="600" fill="#6b4423">■ Ridges × 5 (1 central + 4 hip)</text>
<text x="60" y="1328" font-size="11" font-weight="600" fill="#8a7f6d">■ House walls (4)</text>
<text x="60" y="1344" font-size="11" font-weight="600" fill="#3f2f1a">■ Pillars × 18</text>
<text x="60" y="1360" font-size="10" fill="#666">(roof shell dashed for context)</text>
</svg>
