<?xml version="1.0" encoding="UTF-8"?>
<svg xmlns="http://www.w3.org/2000/svg" width="860.0" height="942.0" viewBox="0 0 860.0 942.0">
<title>Section C-C - Pillars &amp; Slabs</title>
<defs>
  <style>text { font-family: Arial, sans-serif; }</style>
  <pattern id="slab_hatch" patternUnits="userSpaceOnUse" width="3" height="3" patternTransform="rotate(45)">
    <line x1="0" y1="0" x2="0" y2="3" stroke="#555" stroke-width="0.6"/>
  </pattern>
</defs>
<text x="430.0" y="65" text-anchor="middle" font-size="20" font-weight="bold">Section C-C - Pillars &amp; Slabs</text>
<g class="key-plan">
<rect x="724.0" y="16" width="120" height="120" fill="#fff" stroke="#000" stroke-width="0.7"/>
<text x="728.0" y="26" font-size="7" font-weight="bold" fill="#000">KEY PLAN</text>
<rect x="752.8" y="24.0" width="62.4" height="104.0" fill="none" stroke="#000" stroke-width="0.6"/>
<rect x="752.8" y="23.76888888888889" width="2.311111111111111" height="2.311111111111111" fill="#888" stroke="none"/>
<rect x="775.911111111111" y="23.76888888888889" width="2.311111111111111" height="2.311111111111111" fill="#888" stroke="none"/>
<rect x="789.7777777777777" y="23.76888888888889" width="2.311111111111111" height="2.311111111111111" fill="#888" stroke="none"/>
<rect x="812.8888888888888" y="23.76888888888889" width="2.311111111111111" height="2.311111111111111" fill="#888" stroke="none"/>
<rect x="752.8" y="43.00311111111111" width="1.8488888888888888" height="1.8488888888888888" fill="#888" stroke="none"/>
<rect x="779.6088888888888" y="43.00311111111111" width="1.8488888888888888" height="1.8488888888888888" fill="#888" stroke="none"/>
<rect x="813.351111111111" y="43.00311111111111" width="1.8488888888888888" height="1.8488888888888888" fill="#888" stroke="none"/>
<rect x="752.7884444444444" y="68.77777777777779" width="2.888888888888889" height="2.888888888888889" fill="#c00" stroke="none"/>
<rect x="779.6088888888888" y="68.72" width="1.8488888888888888" height="1.8488888888888888" fill="#c00" stroke="none"/>
<rect x="812.3226666666666" y="68.77777777777779" width="2.888888888888889" height="2.888888888888889" fill="#c00" stroke="none"/>
<rect x="752.8" y="91.48444444444443" width="1.8488888888888888" height="1.8488888888888888" fill="#888" stroke="none"/>
<rect x="762.0444444444444" y="91.48444444444443" width="1.8488888888888888" height="1.8488888888888888" fill="#888" stroke="none"/>
<rect x="792.9555555555555" y="90.96444444444444" width="2.888888888888889" height="2.888888888888889" fill="#888" stroke="none"/>
<rect x="813.351111111111" y="91.48444444444443" width="1.8488888888888888" height="1.8488888888888888" fill="#888" stroke="none"/>
<rect x="752.8" y="125.57333333333332" width="1.8488888888888888" height="1.8488888888888888" fill="#888" stroke="none"/>
<rect x="773.2533333333333" y="125.92" width="2.311111111111111" height="2.311111111111111" fill="#888" stroke="none"/>
<rect x="792.8977777777777" y="125.92" width="2.311111111111111" height="2.311111111111111" fill="#888" stroke="none"/>
<rect x="813.351111111111" y="125.57333333333332" width="1.8488888888888888" height="1.8488888888888888" fill="#888" stroke="none"/>
<line x1="748.8" y1="70.02962962962962" x2="819.1999999999999" y2="70.02962962962962" stroke="#c00" stroke-width="0.8" stroke-dasharray="3,1.5"/>
<polygon points="750.8,74.02962962962962 748.8,72.52962962962962 752.8,72.52962962962962" fill="#c00"/>
<polygon points="817.1999999999999,74.02962962962962 815.1999999999999,72.52962962962962 819.1999999999999,72.52962962962962" fill="#c00"/>
<text x="784.0" y="23.0" font-size="6" text-anchor="middle" fill="#000">N</text>
</g>
<g transform="translate(160, 90) scale(2.0)">
<line x1="0" y1="371" x2="270" y2="371" stroke="#666" stroke-width="2" stroke-dasharray="5,5"/>
<rect x="0" y="341" width="270" height="30" fill="#A0826D" stroke="#000" stroke-width="0.5"/>
<rect x="0" y="333" width="270" height="8" fill="#808080" stroke="#000" stroke-width="0.5"/>
<rect x="257.55" y="20" width="12.5" height="313" fill="none" stroke="#000" stroke-width="0.6"/>
<rect x="-0.05000000000001137" y="20" width="12.5" height="313" fill="none" stroke="#000" stroke-width="0.6"/>
<rect x="146.0" y="75" width="8" height="258" fill="none" stroke="#000" stroke-width="0.6"/>
<rect x="0" y="225.0" width="270" height="8" fill="url(#slab_hatch)" stroke="#000" stroke-width="0.6"/>
<rect x="0" y="225.0" width="230" height="8" fill="url(#slab_hatch)" stroke="#000" stroke-width="0.6"/>
<text x="263.8" y="122.5" text-anchor="middle" font-size="4.0" fill="#000" transform="rotate(-90 263.8 122.5)">20' 6"</text>
<text x="6.199999999999989" y="122.5" text-anchor="middle" font-size="4.0" fill="#000" transform="rotate(-90 6.199999999999989 122.5)">20' 6"</text>
<text x="150.0" y="150.0" text-anchor="middle" font-size="4.0" fill="#000" transform="rotate(-90 150.0 150.0)">15'</text>
<text x="263.8" y="377" text-anchor="end" font-size="3.5" fill="#000" transform="rotate(-90 263.8 377)">Center Pillar 1</text>
<text x="6.199999999999989" y="377" text-anchor="end" font-size="3.5" fill="#000" transform="rotate(-90 6.199999999999989 377)">Center Pillar 3</text>
<text x="150.0" y="377" text-anchor="end" font-size="3.5" fill="#000" transform="rotate(-90 150.0 377)">Center Pillar 2</text>
<line x1="0" y1="371" x2="-8" y2="371" stroke="#000" stroke-width="0.3" stroke-dasharray="2,2"/>
<line x1="0" y1="341" x2="-8" y2="341" stroke="#000" stroke-width="0.3" stroke-dasharray="2,2"/>
<line x1="-8" y1="371" x2="-8" y2="341" stroke="#000" stroke-width="0.5"/>
<polygon points="-8,371 -9.5,369.5 -6.5,369.5" fill="#000"/>
<polygon points="-8,341 -9.5,342.5 -6.5,342.5" fill="#000"/>
<text x="-12" y="356.0" text-anchor="middle" font-size="4" fill="#000" transform="rotate(-90 -12 356.0)">3'</text>
<line x1="0" y1="341" x2="-8" y2="341" stroke="#000" stroke-width="0.3" stroke-dasharray="2,2"/>
<line x1="0" y1="333" x2="-8" y2="333" stroke="#000" stroke-width="0.3" stroke-dasharray="2,2"/>
<line x1="-8" y1="341" x2="-8" y2="333" stroke="#000" stroke-width="0.5"/>
<polygon points="-8,341 -9.5,339.5 -6.5,339.5" fill="#000"/>
<polygon points="-8,333 -9.5,334.5 -6.5,334.5" fill="#000"/>
<text x="-12" y="337.0" text-anchor="middle" font-size="4" fill="#000" transform="rotate(-90 -12 337.0)">10"</text>
<line x1="0" y1="333" x2="-8" y2="333" stroke="#000" stroke-width="0.3" stroke-dasharray="2,2"/>
<line x1="0" y1="233.0" x2="-8" y2="233.0" stroke="#000" stroke-width="0.3" stroke-dasharray="2,2"/>
<line x1="-8" y1="333" x2="-8" y2="233.0" stroke="#000" stroke-width="0.5"/>
<polygon points="-8,333 -9.5,331.5 -6.5,331.5" fill="#000"/>
<polygon points="-8,233.0 -9.5,234.5 -6.5,234.5" fill="#000"/>
<text x="-12" y="283.0" text-anchor="middle" font-size="4" fill="#000" transform="rotate(-90 -12 283.0)">10'</text>
<line x1="0" y1="233.0" x2="-8" y2="233.0" stroke="#000" stroke-width="0.3" stroke-dasharray="2,2"/>
<line x1="0" y1="225.0" x2="-8" y2="225.0" stroke="#000" stroke-width="0.3" stroke-dasharray="2,2"/>
<line x1="-8" y1="233.0" x2="-8" y2="225.0" stroke="#000" stroke-width="0.5"/>
<polygon points="-8,233.0 -9.5,231.5 -6.5,231.5" fill="#000"/>
<polygon points="-8,225.0 -9.5,226.5 -6.5,226.5" fill="#000"/>
<text x="-12" y="229.0" text-anchor="middle" font-size="4" fill="#000" transform="rotate(-90 -12 229.0)">10"</text>
</g>
</svg>
