<?xml version="1.0" encoding="UTF-8"?>
<svg xmlns="http://www.w3.org/2000/svg" width="1220.0" height="832.0" viewBox="0 0 1220.0 832.0">
<title>Section 4-4 - Pillars &amp; Slabs</title>
<defs>
  <style>text { font-family: Arial, sans-serif; }</style>
  <pattern id="slab_hatch" patternUnits="userSpaceOnUse" width="3" height="3" patternTransform="rotate(45)">
    <line x1="0" y1="0" x2="0" y2="3" stroke="#555" stroke-width="0.6"/>
  </pattern>
</defs>
<text x="610.0" y="65" text-anchor="middle" font-size="20" font-weight="bold">Section 4-4 - Pillars &amp; Slabs</text>
<g class="key-plan">
<rect x="1084.0" y="16" width="120" height="120" fill="#fff" stroke="#000" stroke-width="0.7"/>
<text x="1088.0" y="26" font-size="7" font-weight="bold" fill="#000">KEY PLAN</text>
<rect x="1112.8" y="24.0" width="62.4" height="104.0" fill="none" stroke="#000" stroke-width="0.6"/>
<rect x="1112.8" y="23.76888888888889" width="2.311111111111111" height="2.311111111111111" fill="#888" stroke="none"/>
<rect x="1135.911111111111" y="23.76888888888889" width="2.311111111111111" height="2.311111111111111" fill="#888" stroke="none"/>
<rect x="1149.7777777777778" y="23.76888888888889" width="2.311111111111111" height="2.311111111111111" fill="#c00" stroke="none"/>
<rect x="1172.888888888889" y="23.76888888888889" width="2.311111111111111" height="2.311111111111111" fill="#888" stroke="none"/>
<rect x="1112.8" y="43.00311111111111" width="1.8488888888888888" height="1.8488888888888888" fill="#888" stroke="none"/>
<rect x="1139.608888888889" y="43.00311111111111" width="1.8488888888888888" height="1.8488888888888888" fill="#888" stroke="none"/>
<rect x="1173.351111111111" y="43.00311111111111" width="1.8488888888888888" height="1.8488888888888888" fill="#888" stroke="none"/>
<rect x="1112.7884444444444" y="68.77777777777779" width="2.888888888888889" height="2.888888888888889" fill="#888" stroke="none"/>
<rect x="1139.608888888889" y="68.72" width="1.8488888888888888" height="1.8488888888888888" fill="#888" stroke="none"/>
<rect x="1172.3226666666667" y="68.77777777777779" width="2.888888888888889" height="2.888888888888889" fill="#888" stroke="none"/>
<rect x="1112.8" y="91.48444444444443" width="1.8488888888888888" height="1.8488888888888888" fill="#888" stroke="none"/>
<rect x="1122.0444444444445" y="91.48444444444443" width="1.8488888888888888" height="1.8488888888888888" fill="#888" stroke="none"/>
<rect x="1152.9555555555555" y="90.96444444444444" width="2.888888888888889" height="2.888888888888889" fill="#c00" stroke="none"/>
<rect x="1173.351111111111" y="91.48444444444443" width="1.8488888888888888" height="1.8488888888888888" fill="#888" stroke="none"/>
<rect x="1112.8" y="125.57333333333332" width="1.8488888888888888" height="1.8488888888888888" fill="#888" stroke="none"/>
<rect x="1133.2533333333333" y="125.92" width="2.311111111111111" height="2.311111111111111" fill="#888" stroke="none"/>
<rect x="1152.8977777777777" y="125.92" width="2.311111111111111" height="2.311111111111111" fill="#c00" stroke="none"/>
<rect x="1173.351111111111" y="125.57333333333332" width="1.8488888888888888" height="1.8488888888888888" fill="#888" stroke="none"/>
<line x1="1153.128888888889" y1="20.0" x2="1153.128888888889" y2="132.0" stroke="#c00" stroke-width="0.8" stroke-dasharray="3,1.5"/>
<polygon points="1157.128888888889,22.0 1155.628888888889,20.0 1155.628888888889,24.0" fill="#c00"/>
<polygon points="1157.128888888889,130.0 1155.628888888889,128.0 1155.628888888889,132.0" fill="#c00"/>
<text x="1144.0" y="23.0" font-size="6" text-anchor="middle" fill="#000">N</text>
</g>
<g transform="translate(160, 90) scale(2.0)">
<line x1="0" y1="316" x2="450" y2="316" stroke="#666" stroke-width="2" stroke-dasharray="5,5"/>
<rect x="0" y="286" width="450" height="30" fill="#A0826D" stroke="#000" stroke-width="0.5"/>
<rect x="0" y="278" width="450" height="8" fill="#808080" stroke="#000" stroke-width="0.5"/>
<rect x="292.0" y="20" width="8" height="258" fill="none" stroke="#000" stroke-width="0.6"/>
<rect x="442.0" y="85" width="8" height="193" fill="none" stroke="#000" stroke-width="0.6"/>
<rect x="0.0" y="43" width="8" height="235" fill="none" stroke="#000" stroke-width="0.6"/>
<rect x="0" y="170.0" width="234" height="8" fill="url(#slab_hatch)" stroke="#000" stroke-width="0.6"/>
<rect x="234" y="170.0" width="100" height="8" fill="url(#slab_hatch)" stroke="#000" stroke-width="0.6"/>
<text x="296.0" y="95.0" text-anchor="middle" font-size="4.0" fill="#000" transform="rotate(-90 296.0 95.0)">15'</text>
<text x="446.0" y="127.5" text-anchor="middle" font-size="4.0" fill="#000" transform="rotate(-90 446.0 127.5)">8' 6"</text>
<text x="4.0" y="106.5" text-anchor="middle" font-size="4.0" fill="#000" transform="rotate(-90 4.0 106.5)">12' 8"</text>
<text x="296.0" y="322" text-anchor="end" font-size="3.5" fill="#000" transform="rotate(-90 296.0 322)">Fourth Pillar 2</text>
<text x="446.0" y="322" text-anchor="end" font-size="3.5" fill="#000" transform="rotate(-90 446.0 322)">Rear Entrance Pillar 2</text>
<text x="4.0" y="322" text-anchor="end" font-size="3.5" fill="#000" transform="rotate(-90 4.0 322)">First Pillar 3</text>
<line x1="0" y1="316" x2="-8" y2="316" stroke="#000" stroke-width="0.3" stroke-dasharray="2,2"/>
<line x1="0" y1="286" x2="-8" y2="286" stroke="#000" stroke-width="0.3" stroke-dasharray="2,2"/>
<line x1="-8" y1="316" x2="-8" y2="286" stroke="#000" stroke-width="0.5"/>
<polygon points="-8,316 -9.5,314.5 -6.5,314.5" fill="#000"/>
<polygon points="-8,286 -9.5,287.5 -6.5,287.5" fill="#000"/>
<text x="-12" y="301.0" text-anchor="middle" font-size="4" fill="#000" transform="rotate(-90 -12 301.0)">3'</text>
<line x1="0" y1="286" x2="-8" y2="286" stroke="#000" stroke-width="0.3" stroke-dasharray="2,2"/>
<line x1="0" y1="278" x2="-8" y2="278" stroke="#000" stroke-width="0.3" stroke-dasharray="2,2"/>
<line x1="-8" y1="286" x2="-8" y2="278" stroke="#000" stroke-width="0.5"/>
<polygon points="-8,286 -9.5,284.5 -6.5,284.5" fill="#000"/>
<polygon points="-8,278 -9.5,279.5 -6.5,279.5" fill="#000"/>
<text x="-12" y="282.0" text-anchor="middle" font-size="4" fill="#000" transform="rotate(-90 -12 282.0)">10"</text>
<line x1="0" y1="278" x2="-8" y2="278" stroke="#000" stroke-width="0.3" stroke-dasharray="2,2"/>
<line x1="0" y1="178.0" x2="-8" y2="178.0" stroke="#000" stroke-width="0.3" stroke-dasharray="2,2"/>
<line x1="-8" y1="278" x2="-8" y2="178.0" stroke="#000" stroke-width="0.5"/>
<polygon points="-8,278 -9.5,276.5 -6.5,276.5" fill="#000"/>
<polygon points="-8,178.0 -9.5,179.5 -6.5,179.5" fill="#000"/>
<text x="-12" y="228.0" text-anchor="middle" font-size="4" fill="#000" transform="rotate(-90 -12 228.0)">10'</text>
<line x1="0" y1="178.0" x2="-8" y2="178.0" stroke="#000" stroke-width="0.3" stroke-dasharray="2,2"/>
<line x1="0" y1="170.0" x2="-8" y2="170.0" stroke="#000" stroke-width="0.3" stroke-dasharray="2,2"/>
<line x1="-8" y1="178.0" x2="-8" y2="170.0" stroke="#000" stroke-width="0.5"/>
<polygon points="-8,178.0 -9.5,176.5 -6.5,176.5" fill="#000"/>
<polygon points="-8,170.0 -9.5,171.5 -6.5,171.5" fill="#000"/>
<text x="-12" y="174.0" text-anchor="middle" font-size="4" fill="#000" transform="rotate(-90 -12 174.0)">10"</text>
</g>
</svg>
