<?xml version="1.0" encoding="UTF-8"?>
<svg xmlns="http://www.w3.org/2000/svg" width="840.0" height="1004.0" viewBox="0 0 840.0 1004.0">
<title>Front Elevation</title>
<defs>
    <style>
        text { font-family: Arial, sans-serif; }
    </style>
</defs>
<g transform="translate(150, 210) scale(2.0, 2.0)">

<line x1="0" y1="322.0" x2="270" y2="322.0" stroke="#666" stroke-width="2" stroke-dasharray="5,5"/>
<rect x="0" y="292.0" width="270" height="30.0" fill="#A0826D" stroke="#000" stroke-width="1"/>
<rect x="0" y="184.0" width="270" height="100.0" fill="#C19A6B" stroke="#000" stroke-width="0.5"/>
<rect x="96.5" y="219.0" width="75" height="65.0" fill="#D2691E" stroke="#000" stroke-width="0.5"/>
<rect x="186" y="219.0" width="60" height="40.0" fill="#87CEEB" stroke="#000" stroke-width="0.5"/>
<rect x="22.5" y="219.0" width="60" height="40.0" fill="#87CEEB" stroke="#000" stroke-width="0.5"/>
<rect x="0" y="91.0" width="270" height="85.0" fill="#C19A6B" stroke="#000" stroke-width="0.5"/>
<rect x="186" y="111.0" width="60" height="60.0" fill="#87CEEB" stroke="#000" stroke-width="0.5"/>
<rect x="101.5" y="111.0" width="65" height="60.0" fill="#87CEEB" stroke="#000" stroke-width="0.5"/>
<rect x="22.5" y="111.0" width="60" height="60.0" fill="#87CEEB" stroke="#000" stroke-width="0.5"/>
<rect x="8" y="176.0" width="254" height="8.0" fill="#654321" stroke="#000" stroke-width="0.5"/>
<rect x="262.0" y="91.0" width="8" height="193.0" fill="#000" stroke="#000" stroke-width="0.5"/>
<rect x="171.5" y="91.0" width="8" height="193.0" fill="#000" stroke="#000" stroke-width="0.5"/>
<rect x="88.5" y="91.0" width="8" height="193.0" fill="#000" stroke="#000" stroke-width="0.5"/>
<rect x="0.0" y="91.0" width="8" height="193.0" fill="#000" stroke="#000" stroke-width="0.5"/>
<rect x="0" y="176.0" width="8" height="8.0" fill="#654321" stroke="#000" stroke-width="0.5"/>
<rect x="0" y="184.0" width="94" height="100.0" fill="#C19A6B" stroke="#000" stroke-width="0.5"/>
<rect x="0" y="76.0" width="94" height="100.0" fill="#C19A6B" stroke="#000" stroke-width="0.5"/>
<rect x="94" y="184.0" width="40" height="100.0" fill="#C19A6B" stroke="#000" stroke-width="0.5"/>
<rect x="0" y="18.0" width="270" height="8.0" fill="#654321" stroke="#000" stroke-width="0.5"/>
<rect x="222.0" y="184.0" width="8" height="100.0" fill="#000" stroke="#000" stroke-width="0.5"/>
<rect x="262.0" y="26.0" width="8" height="258.0" fill="#000" stroke="#000" stroke-width="0.5"/>
<rect x="0.0" y="26.0" width="8" height="258.0" fill="#000" stroke="#000" stroke-width="0.5"/>
<rect x="0" y="176.0" width="230" height="8.0" fill="#808080" stroke="#000" stroke-width="0.5"/>
<rect x="262" y="176.0" width="8" height="8.0" fill="#654321" stroke="#000" stroke-width="0.5"/>
<g class="staircase-elevation">
<line x1="232.0" y1="284.0" x2="232.0" y2="279.0" stroke="#000" stroke-width="0.5"/>
<line x1="232.0" y1="279.0" x2="233.5" y2="279.0" stroke="#000" stroke-width="0.5"/>
<rect x="232.0" y="279.0" width="1.5" height="5.0" fill="#C19A6B" opacity="0.7"/>
<line x1="233.5" y1="279.0" x2="233.5" y2="274.0" stroke="#000" stroke-width="0.5"/>
<line x1="233.5" y1="274.0" x2="235.0" y2="274.0" stroke="#000" stroke-width="0.5"/>
<rect x="233.5" y="274.0" width="1.5" height="5.0" fill="#C19A6B" opacity="0.7"/>
<line x1="235.0" y1="274.0" x2="235.0" y2="269.0" stroke="#000" stroke-width="0.5"/>
<line x1="235.0" y1="269.0" x2="236.5" y2="269.0" stroke="#000" stroke-width="0.5"/>
<rect x="235.0" y="269.0" width="1.5" height="5.0" fill="#C19A6B" opacity="0.7"/>
<line x1="236.5" y1="269.0" x2="236.5" y2="264.0" stroke="#000" stroke-width="0.5"/>
<line x1="236.5" y1="264.0" x2="238.0" y2="264.0" stroke="#000" stroke-width="0.5"/>
<rect x="236.5" y="264.0" width="1.5" height="5.0" fill="#C19A6B" opacity="0.7"/>
<line x1="238.0" y1="264.0" x2="238.0" y2="259.0" stroke="#000" stroke-width="0.5"/>
<line x1="238.0" y1="259.0" x2="239.5" y2="259.0" stroke="#000" stroke-width="0.5"/>
<rect x="238.0" y="259.0" width="1.5" height="5.0" fill="#C19A6B" opacity="0.7"/>
<line x1="239.5" y1="259.0" x2="239.5" y2="254.0" stroke="#000" stroke-width="0.5"/>
<line x1="239.5" y1="254.0" x2="241.0" y2="254.0" stroke="#000" stroke-width="0.5"/>
<rect x="239.5" y="254.0" width="1.5" height="5.0" fill="#C19A6B" opacity="0.7"/>
<line x1="241.0" y1="254.0" x2="241.0" y2="249.0" stroke="#000" stroke-width="0.5"/>
<line x1="241.0" y1="249.0" x2="242.5" y2="249.0" stroke="#000" stroke-width="0.5"/>
<rect x="241.0" y="249.0" width="1.5" height="5.0" fill="#C19A6B" opacity="0.7"/>
<line x1="242.5" y1="249.0" x2="242.5" y2="244.0" stroke="#000" stroke-width="0.5"/>
<line x1="242.5" y1="244.0" x2="244.0" y2="244.0" stroke="#000" stroke-width="0.5"/>
<rect x="242.5" y="244.0" width="1.5" height="5.0" fill="#C19A6B" opacity="0.7"/>
<line x1="244.0" y1="244.0" x2="244.0" y2="239.0" stroke="#000" stroke-width="0.5"/>
<line x1="244.0" y1="239.0" x2="245.5" y2="239.0" stroke="#000" stroke-width="0.5"/>
<rect x="244.0" y="239.0" width="1.5" height="5.0" fill="#C19A6B" opacity="0.7"/>
<line x1="245.5" y1="239.0" x2="245.5" y2="234.0" stroke="#000" stroke-width="0.5"/>
<line x1="245.5" y1="234.0" x2="247.0" y2="234.0" stroke="#000" stroke-width="0.5"/>
<rect x="245.5" y="234.0" width="1.5" height="5.0" fill="#C19A6B" opacity="0.7"/>
<line x1="247.0" y1="234.0" x2="247.0" y2="229.0" stroke="#000" stroke-width="0.5"/>
<line x1="247.0" y1="229.0" x2="248.5" y2="229.0" stroke="#000" stroke-width="0.5"/>
<rect x="247.0" y="229.0" width="1.5" height="5.0" fill="#C19A6B" opacity="0.7"/>
<line x1="248.5" y1="229.0" x2="248.5" y2="224.0" stroke="#000" stroke-width="0.5"/>
<line x1="248.5" y1="224.0" x2="250.0" y2="224.0" stroke="#000" stroke-width="0.5"/>
<rect x="248.5" y="224.0" width="1.5" height="5.0" fill="#C19A6B" opacity="0.7"/>
<line x1="250.0" y1="224.0" x2="250.0" y2="219.0" stroke="#000" stroke-width="0.5"/>
<line x1="250.0" y1="219.0" x2="251.5" y2="219.0" stroke="#000" stroke-width="0.5"/>
<rect x="250.0" y="219.0" width="1.5" height="5.0" fill="#C19A6B" opacity="0.7"/>
<line x1="251.5" y1="219.0" x2="251.5" y2="214.0" stroke="#000" stroke-width="0.5"/>
<line x1="251.5" y1="214.0" x2="253.0" y2="214.0" stroke="#000" stroke-width="0.5"/>
<rect x="251.5" y="214.0" width="1.5" height="5.0" fill="#C19A6B" opacity="0.7"/>
<line x1="253.0" y1="214.0" x2="253.0" y2="209.0" stroke="#000" stroke-width="0.5"/>
<line x1="253.0" y1="209.0" x2="254.5" y2="209.0" stroke="#000" stroke-width="0.5"/>
<rect x="253.0" y="209.0" width="1.5" height="5.0" fill="#C19A6B" opacity="0.7"/>
<line x1="254.5" y1="209.0" x2="254.5" y2="204.0" stroke="#000" stroke-width="0.5"/>
<line x1="254.5" y1="204.0" x2="256.0" y2="204.0" stroke="#000" stroke-width="0.5"/>
<rect x="254.5" y="204.0" width="1.5" height="5.0" fill="#C19A6B" opacity="0.7"/>
<line x1="256.0" y1="204.0" x2="256.0" y2="199.0" stroke="#000" stroke-width="0.5"/>
<line x1="256.0" y1="199.0" x2="257.5" y2="199.0" stroke="#000" stroke-width="0.5"/>
<rect x="256.0" y="199.0" width="1.5" height="5.0" fill="#C19A6B" opacity="0.7"/>
<line x1="257.5" y1="199.0" x2="257.5" y2="194.0" stroke="#000" stroke-width="0.5"/>
<line x1="257.5" y1="194.0" x2="259.0" y2="194.0" stroke="#000" stroke-width="0.5"/>
<rect x="257.5" y="194.0" width="1.5" height="5.0" fill="#C19A6B" opacity="0.7"/>
<line x1="259.0" y1="194.0" x2="259.0" y2="189.0" stroke="#000" stroke-width="0.5"/>
<line x1="259.0" y1="189.0" x2="260.5" y2="189.0" stroke="#000" stroke-width="0.5"/>
<rect x="259.0" y="189.0" width="1.5" height="5.0" fill="#C19A6B" opacity="0.7"/>
<line x1="260.5" y1="189.0" x2="260.5" y2="184.0" stroke="#000" stroke-width="0.5"/>
<line x1="260.5" y1="184.0" x2="262.0" y2="184.0" stroke="#000" stroke-width="0.5"/>
<rect x="260.5" y="184.0" width="1.5" height="5.0" fill="#C19A6B" opacity="0.7"/>
<line x1="262.0" y1="184.0" x2="262.0" y2="284.0" stroke="#000" stroke-width="0.5"/>
<line x1="232" y1="284.0" x2="262.0" y2="284.0" stroke="#000" stroke-width="0.5"/>
</g>
<rect x="10" y="68.0" width="84" height="8.0" fill="#808080" stroke="#000" stroke-width="0.5"/>
<rect x="146" y="184.0" width="124" height="100.0" fill="#C19A6B" stroke="#000" stroke-width="0.5"/>
<rect x="150" y="219.0" width="30" height="65.0" fill="#D2691E" stroke="#000" stroke-width="0.5"/>
<rect x="0" y="184.0" width="154" height="100.0" fill="#C19A6B" stroke="#000" stroke-width="0.5"/>
<rect x="116" y="219.0" width="30" height="65.0" fill="#D2691E" stroke="#000" stroke-width="0.5"/>
<rect x="146" y="76.0" width="124" height="100.0" fill="#C19A6B" stroke="#000" stroke-width="0.5"/>
<rect x="150" y="111.0" width="30" height="65.0" fill="#D2691E" stroke="#000" stroke-width="0.5"/>
<rect x="0" y="76.0" width="154" height="100.0" fill="#C19A6B" stroke="#000" stroke-width="0.5"/>
<rect x="116" y="111.0" width="30" height="65.0" fill="#D2691E" stroke="#000" stroke-width="0.5"/>
<rect x="262.0" y="-29.0" width="8" height="313.0" fill="#000" stroke="#000" stroke-width="0.5"/>
<rect x="0.0" y="-29.0" width="8" height="313.0" fill="#000" stroke="#000" stroke-width="0.5"/>
<rect x="262" y="18.0" width="8" height="8.0" fill="#654321" stroke="#000" stroke-width="0.5"/>
<rect x="0" y="18.0" width="8" height="8.0" fill="#654321" stroke="#000" stroke-width="0.5"/>
<rect x="10" y="68.0" width="252" height="8.0" fill="#808080" stroke="#000" stroke-width="0.5"/>
<rect x="0" y="18.0" width="270" height="8.0" fill="#654321" stroke="#000" stroke-width="0.5"/>
<rect x="146" y="184.0" width="124" height="100.0" fill="#C19A6B" stroke="#000" stroke-width="0.5"/>
<rect x="185" y="219.0" width="50" height="40.0" fill="#87CEEB" stroke="#000" stroke-width="0.5"/>
<rect x="0" y="184.0" width="154" height="100.0" fill="#C19A6B" stroke="#000" stroke-width="0.5"/>
<rect x="116" y="219.0" width="30" height="65.0" fill="#D2691E" stroke="#000" stroke-width="0.5"/>
<rect x="33" y="219.0" width="50" height="40.0" fill="#87CEEB" stroke="#000" stroke-width="0.5"/>
<rect x="146" y="26.0" width="124" height="150.0" fill="#C19A6B" stroke="#000" stroke-width="0.5"/>
<rect x="165" y="106.0" width="80" height="65.0" fill="#87CEEB" stroke="#000" stroke-width="0.5"/>
<rect x="0" y="26.0" width="154" height="150.0" fill="#C19A6B" stroke="#000" stroke-width="0.5"/>
<rect x="55" y="106.0" width="80" height="65.0" fill="#87CEEB" stroke="#000" stroke-width="0.5"/>
<rect x="262.0" y="26.0" width="8" height="258.0" fill="#000" stroke="#000" stroke-width="0.5"/>
<rect x="0.0" y="26.0" width="8" height="258.0" fill="#000" stroke="#000" stroke-width="0.5"/>
<rect x="0" y="284.0" width="270" height="8.0" fill="#808080" stroke="#000" stroke-width="0.5"/>
<rect x="0" y="176.0" width="270" height="8.0" fill="#808080" stroke="#000" stroke-width="0.5"/>
<rect x="0" y="254.0" width="270" height="30.0" fill="#C19A6B" stroke="#000" stroke-width="0.5"/>
<rect x="110" y="214.0" width="50" height="70.0" fill="#D2691E" stroke="#000" stroke-width="0.5"/>
<rect x="0" y="146.0" width="270" height="30.0" fill="#C19A6B" stroke="#000" stroke-width="0.5"/>
<rect x="262.0" y="49.0" width="8" height="235.0" fill="#000" stroke="#000" stroke-width="0.5"/>
<rect x="160.0" y="49.0" width="8" height="235.0" fill="#000" stroke="#000" stroke-width="0.5"/>
<rect x="102.0" y="49.0" width="8" height="235.0" fill="#000" stroke="#000" stroke-width="0.5"/>
<rect x="0.0" y="49.0" width="8" height="235.0" fill="#000" stroke="#000" stroke-width="0.5"/>
<g class="dimension">
  <line x1="300" y1="284.0" x2="300" y2="184.0" stroke="#000" stroke-width="0.5"/>
  <line x1="270" y1="284.0" x2="300" y2="284.0" stroke="#000" stroke-width="0.3" stroke-dasharray="2,2"/>
  <line x1="270" y1="184.0" x2="300" y2="184.0" stroke="#000" stroke-width="0.3" stroke-dasharray="2,2"/>
  <polygon points="300,284.0 297,287.0 303,287.0" fill="#000"/>
  <polygon points="300,184.0 297,181.0 303,181.0" fill="#000"/>
  <text x="313" y="234.0" text-anchor="middle" font-size="10" fill="#000" transform="rotate(-90 313 234.0)">10'</text>
</g>
<g class="dimension">
  <line x1="300" y1="176.0" x2="300" y2="76.0" stroke="#000" stroke-width="0.5"/>
  <line x1="270" y1="176.0" x2="300" y2="176.0" stroke="#000" stroke-width="0.3" stroke-dasharray="2,2"/>
  <line x1="270" y1="76.0" x2="300" y2="76.0" stroke="#000" stroke-width="0.3" stroke-dasharray="2,2"/>
  <polygon points="300,176.0 297,179.0 303,179.0" fill="#000"/>
  <polygon points="300,76.0 297,73.0 303,73.0" fill="#000"/>
  <text x="313" y="126.0" text-anchor="middle" font-size="10" fill="#000" transform="rotate(-90 313 126.0)">10'</text>
</g>
<g class="dimension">
  <line x1="300" y1="68.0" x2="300" y2="26.0" stroke="#000" stroke-width="0.5"/>
  <line x1="270" y1="68.0" x2="300" y2="68.0" stroke="#000" stroke-width="0.3" stroke-dasharray="2,2"/>
  <line x1="270" y1="26.0" x2="300" y2="26.0" stroke="#000" stroke-width="0.3" stroke-dasharray="2,2"/>
  <polygon points="300,68.0 297,71.0 303,71.0" fill="#000"/>
  <polygon points="300,26.0 297,23.0 303,23.0" fill="#000"/>
  <text x="313" y="47.0" text-anchor="middle" font-size="10" fill="#000" transform="rotate(-90 313 47.0)">4' 2"</text>
</g>
<g class="dimension">
  <line x1="300" y1="18.0" x2="300" y2="-32.0" stroke="#000" stroke-width="0.5"/>
  <line x1="270" y1="18.0" x2="300" y2="18.0" stroke="#000" stroke-width="0.3" stroke-dasharray="2,2"/>
  <line x1="270" y1="-32.0" x2="300" y2="-32.0" stroke="#000" stroke-width="0.3" stroke-dasharray="2,2"/>
  <polygon points="300,18.0 297,21.0 303,21.0" fill="#000"/>
  <polygon points="300,-32.0 297,-35.0 303,-35.0" fill="#000"/>
  <text x="313" y="-7.0" text-anchor="middle" font-size="10" fill="#000" transform="rotate(-90 313 -7.0)">5'</text>
</g>
<g class="dimension">
  <line x1="0" y1="-30.0" x2="270" y2="-30.0" stroke="#000" stroke-width="0.5"/>
  <line x1="0" y1="0.0" x2="0" y2="-30.0" stroke="#000" stroke-width="0.3" stroke-dasharray="2,2"/>
  <line x1="270" y1="0.0" x2="270" y2="-30.0" stroke="#000" stroke-width="0.3" stroke-dasharray="2,2"/>
  <polygon points="0,-30.0 3,-33.0 3,-27.0" fill="#000"/>
  <polygon points="270,-30.0 267,-33.0 267,-27.0" fill="#000"/>
  <text x="135.0" y="-35.0" text-anchor="middle" font-size="10" fill="#000">27'</text>
</g>
<g class="dimension">
  <line x1="160" y1="299.0" x2="270" y2="299.0" stroke="#000" stroke-width="0.5"/>
  <line x1="160" y1="284.0" x2="160" y2="299.0" stroke="#000" stroke-width="0.3" stroke-dasharray="2,2"/>
  <line x1="270" y1="284.0" x2="270" y2="299.0" stroke="#000" stroke-width="0.3" stroke-dasharray="2,2"/>
  <polygon points="160,299.0 163,296.0 163,302.0" fill="#000"/>
  <polygon points="270,299.0 267,296.0 267,302.0" fill="#000"/>
  <text x="215.0" y="312.0" text-anchor="middle" font-size="10" fill="#000">11'</text>
</g>
<g class="dimension">
  <line x1="110" y1="299.0" x2="160" y2="299.0" stroke="#000" stroke-width="0.5"/>
  <line x1="110" y1="284.0" x2="110" y2="299.0" stroke="#000" stroke-width="0.3" stroke-dasharray="2,2"/>
  <line x1="160" y1="284.0" x2="160" y2="299.0" stroke="#000" stroke-width="0.3" stroke-dasharray="2,2"/>
  <polygon points="110,299.0 113,296.0 113,302.0" fill="#000"/>
  <polygon points="160,299.0 157,296.0 157,302.0" fill="#000"/>
  <text x="135.0" y="312.0" text-anchor="middle" font-size="10" fill="#000">5'</text>
</g>
<g class="dimension">
  <line x1="105.0" y1="284.0" x2="105.0" y2="254.0" stroke="#000" stroke-width="0.5"/>
  <line x1="135.0" y1="284.0" x2="105.0" y2="284.0" stroke="#000" stroke-width="0.3" stroke-dasharray="2,2"/>
  <line x1="135.0" y1="254.0" x2="105.0" y2="254.0" stroke="#000" stroke-width="0.3" stroke-dasharray="2,2"/>
  <polygon points="105.0,284.0 102.0,287.0 108.0,287.0" fill="#000"/>
  <polygon points="105.0,254.0 102.0,251.0 108.0,251.0" fill="#000"/>
  <text x="92.0" y="269.0" text-anchor="middle" font-size="10" fill="#000" transform="rotate(-90 92.0 269.0)">3'</text>
</g>
</g>
<text x="420.0" y="40.0" text-anchor="middle" font-size="18" font-weight="bold" fill="#333">Front Elevation</text>
</svg>