<?xml version="1.0" encoding="UTF-8"?>
<svg xmlns="http://www.w3.org/2000/svg" width="1200.0" height="1004.0" viewBox="0 0 1200.0 1004.0">
<title>Left Elevation</title>
<defs>
    <style>
        text { font-family: Arial, sans-serif; }
    </style>
</defs>
<g transform="translate(150, 210) scale(2.0, 2.0)">

<line x1="0" y1="322.0" x2="450" y2="322.0" stroke="#666" stroke-width="2" stroke-dasharray="5,5"/>
<rect x="0" y="292.0" width="450" height="30.0" fill="#A0826D" stroke="#000" stroke-width="1"/>
<line x1="-13.252286550361106" y1="56.159516485659765" x2="200" y2="-33.0" stroke="#8B4513" stroke-width="3"/>
<line x1="200" y1="-33.0" x2="478.62615435274176" y2="105.89505550461402" stroke="#8B4513" stroke-width="3"/>
<polygon points="300,176.0 300,18.0 450,91.0 450,176.0" fill="#C19A6B" stroke="#000" stroke-width="0.5"/>
<rect x="310" y="111.0" width="50" height="60.0" fill="#87CEEB" stroke="#000" stroke-width="0.5"/>
<rect x="375" y="111.0" width="50" height="60.0" fill="#87CEEB" stroke="#000" stroke-width="0.5"/>
<polygon points="80,18.0 80,18.0 196,-29.0 196,18.0" fill="#C19A6B" stroke="#000" stroke-width="0.5"/>
<polygon points="204,18.0 204,-29.0 300,18.0 300,18.0" fill="#C19A6B" stroke="#000" stroke-width="0.5"/>
<rect x="330" y="176.0" width="120" height="8.0" fill="#654321" stroke="#000" stroke-width="0.5"/>
<rect x="88" y="18.0" width="204" height="8.0" fill="#654321" stroke="#000" stroke-width="0.5"/>
<rect x="0" y="254.0" width="88" height="30.0" fill="#C19A6B" stroke="#000" stroke-width="0.5"/>
<rect x="196" y="184.0" width="254" height="100.0" fill="#C19A6B" stroke="#000" stroke-width="0.5"/>
<rect x="214" y="219.0" width="20" height="20.0" fill="#87CEEB" stroke="#000" stroke-width="0.5"/>
<rect x="254" y="219.0" width="20" height="20.0" fill="#87CEEB" stroke="#000" stroke-width="0.5"/>
<rect x="310" y="219.0" width="60" height="30.0" fill="#87CEEB" stroke="#000" stroke-width="0.5"/>
<rect x="80" y="184.0" width="124" height="100.0" fill="#C19A6B" stroke="#000" stroke-width="0.5"/>
<rect x="115" y="219.0" width="50" height="40.0" fill="#87CEEB" stroke="#000" stroke-width="0.5"/>
<rect x="0" y="146.0" width="88" height="30.0" fill="#C19A6B" stroke="#000" stroke-width="0.5"/>
<rect x="80" y="26.0" width="124" height="150.0" fill="#C19A6B" stroke="#000" stroke-width="0.5"/>
<rect x="115" y="111.0" width="50" height="40.0" fill="#87CEEB" stroke="#000" stroke-width="0.5"/>
<rect x="196" y="26.0" width="104" height="150.0" fill="#C19A6B" stroke="#000" stroke-width="0.5"/>
<rect x="214" y="111.0" width="20" height="20.0" fill="#87CEEB" stroke="#000" stroke-width="0.5"/>
<rect x="254" y="111.0" width="20" height="20.0" fill="#87CEEB" stroke="#000" stroke-width="0.5"/>
<rect x="0.0" y="49.0" width="8" height="235.0" fill="#000" stroke="#000" stroke-width="0.5"/>
<rect x="80.0" y="26.0" width="8" height="258.0" fill="#000" stroke="#000" stroke-width="0.5"/>
<rect x="196.0" y="-29.0" width="8" height="313.0" fill="#000" stroke="#000" stroke-width="0.5"/>
<rect x="292.0" y="26.0" width="8" height="258.0" fill="#000" stroke="#000" stroke-width="0.5"/>
<rect x="442.0" y="91.0" width="8" height="193.0" fill="#000" stroke="#000" stroke-width="0.5"/>
<rect x="208" y="68.0" width="92" height="8.0" fill="#808080" stroke="#000" stroke-width="0.5"/>
<rect x="196" y="184.0" width="104" height="100.0" fill="#C19A6B" stroke="#000" stroke-width="0.5"/>
<rect x="228" y="219.0" width="30" height="65.0" fill="#D2691E" stroke="#000" stroke-width="0.5"/>
<rect x="196" y="76.0" width="104" height="100.0" fill="#C19A6B" stroke="#000" stroke-width="0.5"/>
<rect x="228" y="111.0" width="30" height="65.0" fill="#D2691E" stroke="#000" stroke-width="0.5"/>
<rect x="442.0" y="91.0" width="8" height="193.0" fill="#000" stroke="#000" stroke-width="0.5"/>
<rect x="0.0" y="49.0" width="8" height="235.0" fill="#000" stroke="#000" stroke-width="0.5"/>
<rect x="80" y="184.0" width="124" height="100.0" fill="#C19A6B" stroke="#000" stroke-width="0.5"/>
<rect x="80" y="76.0" width="124" height="100.0" fill="#C19A6B" stroke="#000" stroke-width="0.5"/>
<rect x="0.0" y="49.0" width="8" height="235.0" fill="#000" stroke="#000" stroke-width="0.5"/>
<rect x="442.0" y="91.0" width="8" height="193.0" fill="#000" stroke="#000" stroke-width="0.5"/>
<rect x="234" y="176.0" width="100" height="8.0" fill="#808080" stroke="#000" stroke-width="0.5"/>
<rect x="292.0" y="184.0" width="8" height="100.0" fill="#000" stroke="#000" stroke-width="0.5"/>
<rect x="442" y="176.0" width="8" height="8.0" fill="#654321" stroke="#000" stroke-width="0.5"/>
<g class="staircase-elevation">
<line x1="230.0" y1="284.0" x2="230.0" y2="279.0" stroke="#000" stroke-width="0.5"/>
<line x1="230.0" y1="279.0" x2="240.0" y2="279.0" stroke="#000" stroke-width="0.5"/>
<rect x="230.0" y="279.0" width="10.0" height="5.0" fill="#C19A6B" opacity="0.7"/>
<line x1="240.0" y1="279.0" x2="240.0" y2="274.0" stroke="#000" stroke-width="0.5"/>
<line x1="240.0" y1="274.0" x2="250.0" y2="274.0" stroke="#000" stroke-width="0.5"/>
<rect x="240.0" y="274.0" width="10.0" height="5.0" fill="#C19A6B" opacity="0.7"/>
<line x1="250.0" y1="274.0" x2="250.0" y2="269.0" stroke="#000" stroke-width="0.5"/>
<line x1="250.0" y1="269.0" x2="260.0" y2="269.0" stroke="#000" stroke-width="0.5"/>
<rect x="250.0" y="269.0" width="10.0" height="5.0" fill="#C19A6B" opacity="0.7"/>
<line x1="260.0" y1="269.0" x2="260.0" y2="264.0" stroke="#000" stroke-width="0.5"/>
<line x1="260.0" y1="264.0" x2="270.0" y2="264.0" stroke="#000" stroke-width="0.5"/>
<rect x="260.0" y="264.0" width="10.0" height="5.0" fill="#C19A6B" opacity="0.7"/>
<line x1="270.0" y1="264.0" x2="270.0" y2="259.0" stroke="#000" stroke-width="0.5"/>
<line x1="270.0" y1="259.0" x2="280.0" y2="259.0" stroke="#000" stroke-width="0.5"/>
<rect x="270.0" y="259.0" width="10.0" height="5.0" fill="#C19A6B" opacity="0.7"/>
<line x1="280.0" y1="259.0" x2="280.0" y2="254.0" stroke="#000" stroke-width="0.5"/>
<line x1="280.0" y1="254.0" x2="290.0" y2="254.0" stroke="#000" stroke-width="0.5"/>
<rect x="280.0" y="254.0" width="10.0" height="5.0" fill="#C19A6B" opacity="0.7"/>
<line x1="290.0" y1="254.0" x2="290.0" y2="249.0" stroke="#000" stroke-width="0.5"/>
<line x1="290.0" y1="249.0" x2="300.0" y2="249.0" stroke="#000" stroke-width="0.5"/>
<rect x="290.0" y="249.0" width="10.0" height="5.0" fill="#C19A6B" opacity="0.7"/>
<line x1="300.0" y1="249.0" x2="300.0" y2="244.0" stroke="#000" stroke-width="0.5"/>
<line x1="300.0" y1="244.0" x2="310.0" y2="244.0" stroke="#000" stroke-width="0.5"/>
<rect x="300.0" y="244.0" width="10.0" height="5.0" fill="#C19A6B" opacity="0.7"/>
<line x1="310.0" y1="244.0" x2="310.0" y2="239.0" stroke="#000" stroke-width="0.5"/>
<line x1="310.0" y1="239.0" x2="320.0" y2="239.0" stroke="#000" stroke-width="0.5"/>
<rect x="310.0" y="239.0" width="10.0" height="5.0" fill="#C19A6B" opacity="0.7"/>
<line x1="320.0" y1="239.0" x2="320.0" y2="234.0" stroke="#000" stroke-width="0.5"/>
<line x1="320.0" y1="234.0" x2="330.0" y2="234.0" stroke="#000" stroke-width="0.5"/>
<rect x="320.0" y="234.0" width="10.0" height="5.0" fill="#C19A6B" opacity="0.7"/>
<line x1="330.0" y1="234.0" x2="330.0" y2="229.0" stroke="#000" stroke-width="0.5"/>
<line x1="330.0" y1="229.0" x2="340.0" y2="229.0" stroke="#000" stroke-width="0.5"/>
<rect x="330.0" y="229.0" width="10.0" height="5.0" fill="#C19A6B" opacity="0.7"/>
<line x1="340.0" y1="229.0" x2="340.0" y2="224.0" stroke="#000" stroke-width="0.5"/>
<line x1="340.0" y1="224.0" x2="350.0" y2="224.0" stroke="#000" stroke-width="0.5"/>
<rect x="340.0" y="224.0" width="10.0" height="5.0" fill="#C19A6B" opacity="0.7"/>
<line x1="350.0" y1="224.0" x2="350.0" y2="219.0" stroke="#000" stroke-width="0.5"/>
<line x1="350.0" y1="219.0" x2="360.0" y2="219.0" stroke="#000" stroke-width="0.5"/>
<rect x="350.0" y="219.0" width="10.0" height="5.0" fill="#C19A6B" opacity="0.7"/>
<line x1="360.0" y1="219.0" x2="360.0" y2="214.0" stroke="#000" stroke-width="0.5"/>
<line x1="360.0" y1="214.0" x2="370.0" y2="214.0" stroke="#000" stroke-width="0.5"/>
<rect x="360.0" y="214.0" width="10.0" height="5.0" fill="#C19A6B" opacity="0.7"/>
<line x1="370.0" y1="214.0" x2="370.0" y2="209.0" stroke="#000" stroke-width="0.5"/>
<line x1="370.0" y1="209.0" x2="380.0" y2="209.0" stroke="#000" stroke-width="0.5"/>
<rect x="370.0" y="209.0" width="10.0" height="5.0" fill="#C19A6B" opacity="0.7"/>
<line x1="380.0" y1="209.0" x2="380.0" y2="204.0" stroke="#000" stroke-width="0.5"/>
<line x1="380.0" y1="204.0" x2="390.0" y2="204.0" stroke="#000" stroke-width="0.5"/>
<rect x="380.0" y="204.0" width="10.0" height="5.0" fill="#C19A6B" opacity="0.7"/>
<line x1="390.0" y1="204.0" x2="390.0" y2="199.0" stroke="#000" stroke-width="0.5"/>
<line x1="390.0" y1="199.0" x2="400.0" y2="199.0" stroke="#000" stroke-width="0.5"/>
<rect x="390.0" y="199.0" width="10.0" height="5.0" fill="#C19A6B" opacity="0.7"/>
<line x1="400.0" y1="199.0" x2="400.0" y2="194.0" stroke="#000" stroke-width="0.5"/>
<line x1="400.0" y1="194.0" x2="410.0" y2="194.0" stroke="#000" stroke-width="0.5"/>
<rect x="400.0" y="194.0" width="10.0" height="5.0" fill="#C19A6B" opacity="0.7"/>
<line x1="410.0" y1="194.0" x2="410.0" y2="189.0" stroke="#000" stroke-width="0.5"/>
<line x1="410.0" y1="189.0" x2="420.0" y2="189.0" stroke="#000" stroke-width="0.5"/>
<rect x="410.0" y="189.0" width="10.0" height="5.0" fill="#C19A6B" opacity="0.7"/>
<line x1="420.0" y1="189.0" x2="420.0" y2="184.0" stroke="#000" stroke-width="0.5"/>
<line x1="420.0" y1="184.0" x2="430.0" y2="184.0" stroke="#000" stroke-width="0.5"/>
<rect x="420.0" y="184.0" width="10.0" height="5.0" fill="#C19A6B" opacity="0.7"/>
<line x1="430.0" y1="184.0" x2="430.0" y2="284.0" stroke="#000" stroke-width="0.5"/>
<line x1="230" y1="284.0" x2="430.0" y2="284.0" stroke="#000" stroke-width="0.5"/>
</g>
<rect x="88" y="68.0" width="120" height="8.0" fill="#808080" stroke="#000" stroke-width="0.5"/>
<rect x="200" y="26.0" width="100" height="150.0" fill="#C19A6B" stroke="#000" stroke-width="0.5"/>
<polygon points="300,176.0 300,18.0 450,91.0 450,176.0" fill="#C19A6B" stroke="#000" stroke-width="0.5"/>
<rect x="310" y="111.0" width="50" height="60.0" fill="#87CEEB" stroke="#000" stroke-width="0.5"/>
<rect x="375" y="111.0" width="50" height="60.0" fill="#87CEEB" stroke="#000" stroke-width="0.5"/>
<polygon points="80,18.0 80,18.0 196,-29.0 196,18.0" fill="#C19A6B" stroke="#000" stroke-width="0.5"/>
<polygon points="204,18.0 204,-29.0 300,18.0 300,18.0" fill="#C19A6B" stroke="#000" stroke-width="0.5"/>
<rect x="230" y="176.0" width="220" height="8.0" fill="#654321" stroke="#000" stroke-width="0.5"/>
<rect x="80" y="18.0" width="8" height="8.0" fill="#654321" stroke="#000" stroke-width="0.5"/>
<rect x="292" y="18.0" width="8" height="8.0" fill="#654321" stroke="#000" stroke-width="0.5"/>
<rect x="88" y="18.0" width="204" height="8.0" fill="#654321" stroke="#000" stroke-width="0.5"/>
<rect x="0" y="284.0" width="450" height="8.0" fill="#808080" stroke="#000" stroke-width="0.5"/>
<rect x="0" y="176.0" width="234" height="8.0" fill="#808080" stroke="#000" stroke-width="0.5"/>
<rect x="0" y="254.0" width="88" height="30.0" fill="#C19A6B" stroke="#000" stroke-width="0.5"/>
<rect x="80" y="184.0" width="124" height="100.0" fill="#C19A6B" stroke="#000" stroke-width="0.5"/>
<rect x="117" y="219.0" width="50" height="40.0" fill="#87CEEB" stroke="#000" stroke-width="0.5"/>
<rect x="196" y="184.0" width="254" height="100.0" fill="#C19A6B" stroke="#000" stroke-width="0.5"/>
<rect x="224" y="219.0" width="40" height="40.0" fill="#87CEEB" stroke="#000" stroke-width="0.5"/>
<rect x="386" y="219.0" width="40" height="30.0" fill="#87CEEB" stroke="#000" stroke-width="0.5"/>
<rect x="0" y="146.0" width="88" height="30.0" fill="#C19A6B" stroke="#000" stroke-width="0.5"/>
<rect x="80" y="26.0" width="124" height="150.0" fill="#C19A6B" stroke="#000" stroke-width="0.5"/>
<rect x="115" y="111.0" width="50" height="40.0" fill="#87CEEB" stroke="#000" stroke-width="0.5"/>
<rect x="0.0" y="49.0" width="8" height="235.0" fill="#000" stroke="#000" stroke-width="0.5"/>
<rect x="80.0" y="26.0" width="8" height="258.0" fill="#000" stroke="#000" stroke-width="0.5"/>
<rect x="196.0" y="-29.0" width="8" height="313.0" fill="#000" stroke="#000" stroke-width="0.5"/>
<rect x="292.0" y="26.0" width="8" height="258.0" fill="#000" stroke="#000" stroke-width="0.5"/>
<rect x="442.0" y="91.0" width="8" height="193.0" fill="#000" stroke="#000" stroke-width="0.5"/>
<g class="dimension">
  <line x1="480" y1="284.0" x2="480" y2="184.0" stroke="#000" stroke-width="0.5"/>
  <line x1="450" y1="284.0" x2="480" y2="284.0" stroke="#000" stroke-width="0.3" stroke-dasharray="2,2"/>
  <line x1="450" y1="184.0" x2="480" y2="184.0" stroke="#000" stroke-width="0.3" stroke-dasharray="2,2"/>
  <polygon points="480,284.0 477,287.0 483,287.0" fill="#000"/>
  <polygon points="480,184.0 477,181.0 483,181.0" fill="#000"/>
  <text x="493" y="234.0" text-anchor="middle" font-size="10" fill="#000" transform="rotate(-90 493 234.0)">10'</text>
</g>
<g class="dimension">
  <line x1="480" y1="176.0" x2="480" y2="76.0" stroke="#000" stroke-width="0.5"/>
  <line x1="450" y1="176.0" x2="480" y2="176.0" stroke="#000" stroke-width="0.3" stroke-dasharray="2,2"/>
  <line x1="450" y1="76.0" x2="480" y2="76.0" stroke="#000" stroke-width="0.3" stroke-dasharray="2,2"/>
  <polygon points="480,176.0 477,179.0 483,179.0" fill="#000"/>
  <polygon points="480,76.0 477,73.0 483,73.0" fill="#000"/>
  <text x="493" y="126.0" text-anchor="middle" font-size="10" fill="#000" transform="rotate(-90 493 126.0)">10'</text>
</g>
<g class="dimension">
  <line x1="480" y1="68.0" x2="480" y2="26.0" stroke="#000" stroke-width="0.5"/>
  <line x1="450" y1="68.0" x2="480" y2="68.0" stroke="#000" stroke-width="0.3" stroke-dasharray="2,2"/>
  <line x1="450" y1="26.0" x2="480" y2="26.0" stroke="#000" stroke-width="0.3" stroke-dasharray="2,2"/>
  <polygon points="480,68.0 477,71.0 483,71.0" fill="#000"/>
  <polygon points="480,26.0 477,23.0 483,23.0" fill="#000"/>
  <text x="493" y="47.0" text-anchor="middle" font-size="10" fill="#000" transform="rotate(-90 493 47.0)">4' 2"</text>
</g>
<g class="dimension">
  <line x1="480" y1="18.0" x2="480" y2="-32.0" stroke="#000" stroke-width="0.5"/>
  <line x1="450" y1="18.0" x2="480" y2="18.0" stroke="#000" stroke-width="0.3" stroke-dasharray="2,2"/>
  <line x1="450" y1="-32.0" x2="480" y2="-32.0" stroke="#000" stroke-width="0.3" stroke-dasharray="2,2"/>
  <polygon points="480,18.0 477,21.0 483,21.0" fill="#000"/>
  <polygon points="480,-32.0 477,-35.0 483,-35.0" fill="#000"/>
  <text x="493" y="-7.0" text-anchor="middle" font-size="10" fill="#000" transform="rotate(-90 493 -7.0)">5'</text>
</g>
<g class="dimension">
  <line x1="0" y1="-30.0" x2="450" y2="-30.0" stroke="#000" stroke-width="0.5"/>
  <line x1="0" y1="0.0" x2="0" y2="-30.0" stroke="#000" stroke-width="0.3" stroke-dasharray="2,2"/>
  <line x1="450" y1="0.0" x2="450" y2="-30.0" stroke="#000" stroke-width="0.3" stroke-dasharray="2,2"/>
  <polygon points="0,-30.0 3,-33.0 3,-27.0" fill="#000"/>
  <polygon points="450,-30.0 447,-33.0 447,-27.0" fill="#000"/>
  <text x="225.0" y="-35.0" text-anchor="middle" font-size="10" fill="#000">45'</text>
</g>
<g class="dimension">
  <line x1="310" y1="186.0" x2="360" y2="186.0" stroke="#000" stroke-width="0.5"/>
  <line x1="310" y1="171.0" x2="310" y2="186.0" stroke="#000" stroke-width="0.3" stroke-dasharray="2,2"/>
  <line x1="360" y1="171.0" x2="360" y2="186.0" stroke="#000" stroke-width="0.3" stroke-dasharray="2,2"/>
  <polygon points="310,186.0 313,183.0 313,189.0" fill="#000"/>
  <polygon points="360,186.0 357,183.0 357,189.0" fill="#000"/>
  <text x="335.0" y="199.0" text-anchor="middle" font-size="10" fill="#000">5'</text>
</g>
<g class="dimension">
  <line x1="375" y1="186.0" x2="425" y2="186.0" stroke="#000" stroke-width="0.5"/>
  <line x1="375" y1="171.0" x2="375" y2="186.0" stroke="#000" stroke-width="0.3" stroke-dasharray="2,2"/>
  <line x1="425" y1="171.0" x2="425" y2="186.0" stroke="#000" stroke-width="0.3" stroke-dasharray="2,2"/>
  <polygon points="375,186.0 378,183.0 378,189.0" fill="#000"/>
  <polygon points="425,186.0 422,183.0 422,189.0" fill="#000"/>
  <text x="400.0" y="199.0" text-anchor="middle" font-size="10" fill="#000">5'</text>
</g>
<g class="dimension">
  <line x1="80" y1="274.0" x2="117" y2="274.0" stroke="#000" stroke-width="0.5"/>
  <line x1="80" y1="259.0" x2="80" y2="274.0" stroke="#000" stroke-width="0.3" stroke-dasharray="2,2"/>
  <line x1="117" y1="259.0" x2="117" y2="274.0" stroke="#000" stroke-width="0.3" stroke-dasharray="2,2"/>
  <polygon points="80,274.0 83,271.0 83,277.0" fill="#000"/>
  <polygon points="117,274.0 114,271.0 114,277.0" fill="#000"/>
  <text x="98.5" y="287.0" text-anchor="middle" font-size="10" fill="#000">3' 8"</text>
</g>
<g class="dimension">
  <line x1="117" y1="274.0" x2="167" y2="274.0" stroke="#000" stroke-width="0.5"/>
  <line x1="117" y1="259.0" x2="117" y2="274.0" stroke="#000" stroke-width="0.3" stroke-dasharray="2,2"/>
  <line x1="167" y1="259.0" x2="167" y2="274.0" stroke="#000" stroke-width="0.3" stroke-dasharray="2,2"/>
  <polygon points="117,274.0 120,271.0 120,277.0" fill="#000"/>
  <polygon points="167,274.0 164,271.0 164,277.0" fill="#000"/>
  <text x="142.0" y="287.0" text-anchor="middle" font-size="10" fill="#000">5'</text>
</g>
<g class="dimension">
  <line x1="196" y1="274.0" x2="224" y2="274.0" stroke="#000" stroke-width="0.5"/>
  <line x1="196" y1="259.0" x2="196" y2="274.0" stroke="#000" stroke-width="0.3" stroke-dasharray="2,2"/>
  <line x1="224" y1="259.0" x2="224" y2="274.0" stroke="#000" stroke-width="0.3" stroke-dasharray="2,2"/>
  <polygon points="196,274.0 199,271.0 199,277.0" fill="#000"/>
  <polygon points="224,274.0 221,271.0 221,277.0" fill="#000"/>
  <text x="210.0" y="287.0" text-anchor="middle" font-size="10" fill="#000">2' 10"</text>
</g>
<g class="dimension">
  <line x1="224" y1="274.0" x2="264" y2="274.0" stroke="#000" stroke-width="0.5"/>
  <line x1="224" y1="259.0" x2="224" y2="274.0" stroke="#000" stroke-width="0.3" stroke-dasharray="2,2"/>
  <line x1="264" y1="259.0" x2="264" y2="274.0" stroke="#000" stroke-width="0.3" stroke-dasharray="2,2"/>
  <polygon points="224,274.0 227,271.0 227,277.0" fill="#000"/>
  <polygon points="264,274.0 261,271.0 261,277.0" fill="#000"/>
  <text x="244.0" y="287.0" text-anchor="middle" font-size="10" fill="#000">4'</text>
</g>
<g class="dimension">
  <line x1="264" y1="274.0" x2="386" y2="274.0" stroke="#000" stroke-width="0.5"/>
  <line x1="264" y1="259.0" x2="264" y2="274.0" stroke="#000" stroke-width="0.3" stroke-dasharray="2,2"/>
  <line x1="386" y1="259.0" x2="386" y2="274.0" stroke="#000" stroke-width="0.3" stroke-dasharray="2,2"/>
  <polygon points="264,274.0 267,271.0 267,277.0" fill="#000"/>
  <polygon points="386,274.0 383,271.0 383,277.0" fill="#000"/>
  <text x="325.0" y="287.0" text-anchor="middle" font-size="10" fill="#000">12' 2"</text>
</g>
<g class="dimension">
  <line x1="386" y1="274.0" x2="426" y2="274.0" stroke="#000" stroke-width="0.5"/>
  <line x1="386" y1="259.0" x2="386" y2="274.0" stroke="#000" stroke-width="0.3" stroke-dasharray="2,2"/>
  <line x1="426" y1="259.0" x2="426" y2="274.0" stroke="#000" stroke-width="0.3" stroke-dasharray="2,2"/>
  <polygon points="386,274.0 389,271.0 389,277.0" fill="#000"/>
  <polygon points="426,274.0 423,271.0 423,277.0" fill="#000"/>
  <text x="406.0" y="287.0" text-anchor="middle" font-size="10" fill="#000">4'</text>
</g>
<g class="dimension">
  <line x1="80" y1="166.0" x2="115" y2="166.0" stroke="#000" stroke-width="0.5"/>
  <line x1="80" y1="151.0" x2="80" y2="166.0" stroke="#000" stroke-width="0.3" stroke-dasharray="2,2"/>
  <line x1="115" y1="151.0" x2="115" y2="166.0" stroke="#000" stroke-width="0.3" stroke-dasharray="2,2"/>
  <polygon points="80,166.0 83,163.0 83,169.0" fill="#000"/>
  <polygon points="115,166.0 112,163.0 112,169.0" fill="#000"/>
  <text x="97.5" y="179.0" text-anchor="middle" font-size="10" fill="#000">3' 6"</text>
</g>
<g class="dimension">
  <line x1="115" y1="166.0" x2="165" y2="166.0" stroke="#000" stroke-width="0.5"/>
  <line x1="115" y1="151.0" x2="115" y2="166.0" stroke="#000" stroke-width="0.3" stroke-dasharray="2,2"/>
  <line x1="165" y1="151.0" x2="165" y2="166.0" stroke="#000" stroke-width="0.3" stroke-dasharray="2,2"/>
  <polygon points="115,166.0 118,163.0 118,169.0" fill="#000"/>
  <polygon points="165,166.0 162,163.0 162,169.0" fill="#000"/>
  <text x="140.0" y="179.0" text-anchor="middle" font-size="10" fill="#000">5'</text>
</g>
<g class="dimension">
  <line x1="220.0" y1="176.0" x2="220.0" y2="26.0" stroke="#000" stroke-width="0.5"/>
  <line x1="250.0" y1="176.0" x2="220.0" y2="176.0" stroke="#000" stroke-width="0.3" stroke-dasharray="2,2"/>
  <line x1="250.0" y1="26.0" x2="220.0" y2="26.0" stroke="#000" stroke-width="0.3" stroke-dasharray="2,2"/>
  <polygon points="220.0,176.0 217.0,179.0 223.0,179.0" fill="#000"/>
  <polygon points="220.0,26.0 217.0,23.0 223.0,23.0" fill="#000"/>
  <text x="207.0" y="101.0" text-anchor="middle" font-size="10" fill="#000" transform="rotate(-90 207.0 101.0)">15'</text>
</g>
<g class="dimension">
  <line x1="270" y1="176.0" x2="270" y2="18.0" stroke="#000" stroke-width="0.5"/>
  <line x1="300" y1="176.0" x2="270" y2="176.0" stroke="#000" stroke-width="0.3" stroke-dasharray="2,2"/>
  <line x1="300" y1="18.0" x2="270" y2="18.0" stroke="#000" stroke-width="0.3" stroke-dasharray="2,2"/>
  <polygon points="270,176.0 267,179.0 273,179.0" fill="#000"/>
  <polygon points="270,18.0 267,15.0 273,15.0" fill="#000"/>
  <text x="257" y="97.0" text-anchor="middle" font-size="10" fill="#000" transform="rotate(-90 257 97.0)">15' 10"</text>
</g>
<g class="dimension">
  <line x1="420" y1="176.0" x2="420" y2="91.0" stroke="#000" stroke-width="0.5"/>
  <line x1="450" y1="176.0" x2="420" y2="176.0" stroke="#000" stroke-width="0.3" stroke-dasharray="2,2"/>
  <line x1="450" y1="91.0" x2="420" y2="91.0" stroke="#000" stroke-width="0.3" stroke-dasharray="2,2"/>
  <polygon points="420,176.0 417,179.0 423,179.0" fill="#000"/>
  <polygon points="420,91.0 417,88.0 423,88.0" fill="#000"/>
  <text x="407" y="133.5" text-anchor="middle" font-size="10" fill="#000" transform="rotate(-90 407 133.5)">8' 6"</text>
</g>
<g class="dimension">
  <line x1="166" y1="18.0" x2="166" y2="-29.0" stroke="#000" stroke-width="0.5"/>
  <line x1="196" y1="18.0" x2="166" y2="18.0" stroke="#000" stroke-width="0.3" stroke-dasharray="2,2"/>
  <line x1="196" y1="-29.0" x2="166" y2="-29.0" stroke="#000" stroke-width="0.3" stroke-dasharray="2,2"/>
  <polygon points="166,18.0 163,21.0 169,21.0" fill="#000"/>
  <polygon points="166,-29.0 163,-32.0 169,-32.0" fill="#000"/>
  <text x="153" y="-5.5" text-anchor="middle" font-size="10" fill="#000" transform="rotate(-90 153 -5.5)">4' 8"</text>
</g>
<g class="dimension">
  <line x1="14.0" y1="284.0" x2="14.0" y2="254.0" stroke="#000" stroke-width="0.5"/>
  <line x1="44.0" y1="284.0" x2="14.0" y2="284.0" stroke="#000" stroke-width="0.3" stroke-dasharray="2,2"/>
  <line x1="44.0" y1="254.0" x2="14.0" y2="254.0" stroke="#000" stroke-width="0.3" stroke-dasharray="2,2"/>
  <polygon points="14.0,284.0 11.0,287.0 17.0,287.0" fill="#000"/>
  <polygon points="14.0,254.0 11.0,251.0 17.0,251.0" fill="#000"/>
  <text x="1.0" y="269.0" text-anchor="middle" font-size="10" fill="#000" transform="rotate(-90 1.0 269.0)">3'</text>
</g>
</g>
<text x="600.0" y="40.0" text-anchor="middle" font-size="18" font-weight="bold" fill="#333">Left Elevation</text>
</svg>