<?xml version="1.0" encoding="UTF-8"?>
<svg xmlns="http://www.w3.org/2000/svg" width="1200.0" height="1004.0" viewBox="0 0 1200.0 1004.0">
<title>Right Elevation</title>
<defs>
    <style>
        text { font-family: Arial, sans-serif; }
    </style>
</defs>
<g transform="translate(150, 210) scale(2.0, 2.0)">

<line x1="0" y1="322.0" x2="450" y2="322.0" stroke="#666" stroke-width="2" stroke-dasharray="5,5"/>
<rect x="0" y="292.0" width="450" height="30.0" fill="#A0826D" stroke="#000" stroke-width="1"/>
<rect x="150" y="184.0" width="104" height="100.0" fill="#C19A6B" stroke="#000" stroke-width="0.5"/>
<rect x="192" y="219.0" width="30" height="65.0" fill="#D2691E" stroke="#000" stroke-width="0.5"/>
<rect x="150" y="76.0" width="104" height="100.0" fill="#C19A6B" stroke="#000" stroke-width="0.5"/>
<rect x="192" y="111.0" width="30" height="65.0" fill="#D2691E" stroke="#000" stroke-width="0.5"/>
<rect x="362" y="254.0" width="88" height="30.0" fill="#C19A6B" stroke="#000" stroke-width="0.5"/>
<rect x="246" y="184.0" width="124" height="100.0" fill="#C19A6B" stroke="#000" stroke-width="0.5"/>
<rect x="283" y="219.0" width="50" height="40.0" fill="#87CEEB" stroke="#000" stroke-width="0.5"/>
<rect x="0" y="184.0" width="254" height="100.0" fill="#C19A6B" stroke="#000" stroke-width="0.5"/>
<rect x="186" y="219.0" width="40" height="40.0" fill="#87CEEB" stroke="#000" stroke-width="0.5"/>
<rect x="24" y="219.0" width="40" height="30.0" fill="#87CEEB" stroke="#000" stroke-width="0.5"/>
<rect x="362" y="146.0" width="88" height="30.0" fill="#C19A6B" stroke="#000" stroke-width="0.5"/>
<rect x="246" y="26.0" width="124" height="150.0" fill="#C19A6B" stroke="#000" stroke-width="0.5"/>
<rect x="285" y="111.0" width="50" height="40.0" fill="#87CEEB" stroke="#000" stroke-width="0.5"/>
<rect x="150" y="26.0" width="100" height="150.0" fill="#C19A6B" stroke="#000" stroke-width="0.5"/>
<polygon points="0,176.0 0,91.0 150,18.0 150,176.0" fill="#C19A6B" stroke="#000" stroke-width="0.5"/>
<rect x="90" y="111.0" width="50" height="60.0" fill="#87CEEB" stroke="#000" stroke-width="0.5"/>
<rect x="25" y="111.0" width="50" height="60.0" fill="#87CEEB" stroke="#000" stroke-width="0.5"/>
<polygon points="254,18.0 254,-29.0 370,18.0 370,18.0" fill="#C19A6B" stroke="#000" stroke-width="0.5"/>
<polygon points="150,18.0 150,18.0 246,-29.0 246,18.0" fill="#C19A6B" stroke="#000" stroke-width="0.5"/>
<rect x="0" y="176.0" width="220" height="8.0" fill="#654321" stroke="#000" stroke-width="0.5"/>
<rect x="158" y="18.0" width="204" height="8.0" fill="#654321" stroke="#000" stroke-width="0.5"/>
<rect x="442.0" y="49.0" width="8" height="235.0" fill="#000" stroke="#000" stroke-width="0.5"/>
<rect x="362.0" y="26.0" width="8" height="258.0" fill="#000" stroke="#000" stroke-width="0.5"/>
<rect x="246.0" y="-29.0" width="8" height="313.0" fill="#000" stroke="#000" stroke-width="0.5"/>
<rect x="150.0" y="26.0" width="8" height="258.0" fill="#000" stroke="#000" stroke-width="0.5"/>
<rect x="150.0" y="184.0" width="8" height="100.0" fill="#000" stroke="#000" stroke-width="0.5"/>
<rect x="442.0" y="49.0" width="8" height="235.0" fill="#000" stroke="#000" stroke-width="0.5"/>
<rect x="246" y="184.0" width="124" height="100.0" fill="#C19A6B" stroke="#000" stroke-width="0.5"/>
<rect x="246" y="76.0" width="124" height="100.0" fill="#C19A6B" stroke="#000" stroke-width="0.5"/>
<rect x="442.0" y="49.0" width="8" height="235.0" fill="#000" stroke="#000" stroke-width="0.5"/>
<rect x="150" y="68.0" width="92" height="8.0" fill="#808080" stroke="#000" stroke-width="0.5"/>
<rect x="242" y="68.0" width="120" height="8.0" fill="#808080" stroke="#000" stroke-width="0.5"/>
<rect x="0" y="176.0" width="8" height="8.0" fill="#654321" stroke="#000" stroke-width="0.5"/>
<polygon points="0,176.0 0,91.0 150,18.0 150,176.0" fill="#C19A6B" stroke="#000" stroke-width="0.5"/>
<rect x="90" y="111.0" width="50" height="60.0" fill="#87CEEB" stroke="#000" stroke-width="0.5"/>
<rect x="25" y="111.0" width="50" height="60.0" fill="#87CEEB" stroke="#000" stroke-width="0.5"/>
<polygon points="254,18.0 254,-29.0 370,18.0 370,18.0" fill="#C19A6B" stroke="#000" stroke-width="0.5"/>
<polygon points="150,18.0 150,18.0 246,-29.0 246,18.0" fill="#C19A6B" stroke="#000" stroke-width="0.5"/>
<rect x="0" y="176.0" width="120" height="8.0" fill="#654321" stroke="#000" stroke-width="0.5"/>
<rect x="158" y="18.0" width="204" height="8.0" fill="#654321" stroke="#000" stroke-width="0.5"/>
<rect x="362" y="18.0" width="8" height="8.0" fill="#654321" stroke="#000" stroke-width="0.5"/>
<rect x="150" y="18.0" width="8" height="8.0" fill="#654321" stroke="#000" stroke-width="0.5"/>
<rect x="0" y="284.0" width="450" height="8.0" fill="#808080" stroke="#000" stroke-width="0.5"/>
<rect x="116" y="176.0" width="100" height="8.0" fill="#808080" stroke="#000" stroke-width="0.5"/>
<rect x="216" y="176.0" width="234" height="8.0" fill="#808080" stroke="#000" stroke-width="0.5"/>
<rect x="246" y="184.0" width="124" height="100.0" fill="#C19A6B" stroke="#000" stroke-width="0.5"/>
<rect x="285" y="219.0" width="50" height="40.0" fill="#87CEEB" stroke="#000" stroke-width="0.5"/>
<rect x="362" y="254.0" width="88" height="30.0" fill="#C19A6B" stroke="#000" stroke-width="0.5"/>
<rect x="0" y="184.0" width="254" height="100.0" fill="#C19A6B" stroke="#000" stroke-width="0.5"/>
<rect x="216" y="219.0" width="20" height="20.0" fill="#87CEEB" stroke="#000" stroke-width="0.5"/>
<rect x="176" y="219.0" width="20" height="20.0" fill="#87CEEB" stroke="#000" stroke-width="0.5"/>
<rect x="80" y="219.0" width="60" height="30.0" fill="#87CEEB" stroke="#000" stroke-width="0.5"/>
<rect x="150" y="26.0" width="104" height="150.0" fill="#C19A6B" stroke="#000" stroke-width="0.5"/>
<rect x="216" y="111.0" width="20" height="20.0" fill="#87CEEB" stroke="#000" stroke-width="0.5"/>
<rect x="176" y="111.0" width="20" height="20.0" fill="#87CEEB" stroke="#000" stroke-width="0.5"/>
<rect x="246" y="26.0" width="124" height="150.0" fill="#C19A6B" stroke="#000" stroke-width="0.5"/>
<rect x="285" y="111.0" width="50" height="40.0" fill="#87CEEB" stroke="#000" stroke-width="0.5"/>
<rect x="362" y="146.0" width="88" height="30.0" fill="#C19A6B" stroke="#000" stroke-width="0.5"/>
<rect x="442.0" y="49.0" width="8" height="235.0" fill="#000" stroke="#000" stroke-width="0.5"/>
<rect x="362.0" y="26.0" width="8" height="258.0" fill="#000" stroke="#000" stroke-width="0.5"/>
<rect x="246.0" y="-29.0" width="8" height="313.0" fill="#000" stroke="#000" stroke-width="0.5"/>
<rect x="150.0" y="26.0" width="8" height="258.0" fill="#000" stroke="#000" stroke-width="0.5"/>
<g class="dimension">
  <line x1="480" y1="284.0" x2="480" y2="184.0" stroke="#000" stroke-width="0.5"/>
  <line x1="450" y1="284.0" x2="480" y2="284.0" stroke="#000" stroke-width="0.3" stroke-dasharray="2,2"/>
  <line x1="450" y1="184.0" x2="480" y2="184.0" stroke="#000" stroke-width="0.3" stroke-dasharray="2,2"/>
  <polygon points="480,284.0 477,287.0 483,287.0" fill="#000"/>
  <polygon points="480,184.0 477,181.0 483,181.0" fill="#000"/>
  <text x="493" y="234.0" text-anchor="middle" font-size="10" fill="#000" transform="rotate(-90 493 234.0)">10.0'</text>
</g>
<g class="dimension">
  <line x1="480" y1="176.0" x2="480" y2="76.0" stroke="#000" stroke-width="0.5"/>
  <line x1="450" y1="176.0" x2="480" y2="176.0" stroke="#000" stroke-width="0.3" stroke-dasharray="2,2"/>
  <line x1="450" y1="76.0" x2="480" y2="76.0" stroke="#000" stroke-width="0.3" stroke-dasharray="2,2"/>
  <polygon points="480,176.0 477,179.0 483,179.0" fill="#000"/>
  <polygon points="480,76.0 477,73.0 483,73.0" fill="#000"/>
  <text x="493" y="126.0" text-anchor="middle" font-size="10" fill="#000" transform="rotate(-90 493 126.0)">10.0'</text>
</g>
<g class="dimension">
  <line x1="480" y1="68.0" x2="480" y2="26.0" stroke="#000" stroke-width="0.5"/>
  <line x1="450" y1="68.0" x2="480" y2="68.0" stroke="#000" stroke-width="0.3" stroke-dasharray="2,2"/>
  <line x1="450" y1="26.0" x2="480" y2="26.0" stroke="#000" stroke-width="0.3" stroke-dasharray="2,2"/>
  <polygon points="480,68.0 477,71.0 483,71.0" fill="#000"/>
  <polygon points="480,26.0 477,23.0 483,23.0" fill="#000"/>
  <text x="493" y="47.0" text-anchor="middle" font-size="10" fill="#000" transform="rotate(-90 493 47.0)">4.2'</text>
</g>
<g class="dimension">
  <line x1="480" y1="18.0" x2="480" y2="-32.0" stroke="#000" stroke-width="0.5"/>
  <line x1="450" y1="18.0" x2="480" y2="18.0" stroke="#000" stroke-width="0.3" stroke-dasharray="2,2"/>
  <line x1="450" y1="-32.0" x2="480" y2="-32.0" stroke="#000" stroke-width="0.3" stroke-dasharray="2,2"/>
  <polygon points="480,18.0 477,21.0 483,21.0" fill="#000"/>
  <polygon points="480,-32.0 477,-35.0 483,-35.0" fill="#000"/>
  <text x="493" y="-7.0" text-anchor="middle" font-size="10" fill="#000" transform="rotate(-90 493 -7.0)">5.0'</text>
</g>
<g class="dimension">
  <line x1="0" y1="-30.0" x2="450" y2="-30.0" stroke="#000" stroke-width="0.5"/>
  <line x1="0" y1="0.0" x2="0" y2="-30.0" stroke="#000" stroke-width="0.3" stroke-dasharray="2,2"/>
  <line x1="450" y1="0.0" x2="450" y2="-30.0" stroke="#000" stroke-width="0.3" stroke-dasharray="2,2"/>
  <polygon points="0,-30.0 3,-33.0 3,-27.0" fill="#000"/>
  <polygon points="450,-30.0 447,-33.0 447,-27.0" fill="#000"/>
  <text x="225.0" y="-35.0" text-anchor="middle" font-size="10" fill="#000">45.0'</text>
</g>
<g class="dimension">
  <line x1="90" y1="186.0" x2="140" y2="186.0" stroke="#000" stroke-width="0.5"/>
  <line x1="90" y1="171.0" x2="90" y2="186.0" stroke="#000" stroke-width="0.3" stroke-dasharray="2,2"/>
  <line x1="140" y1="171.0" x2="140" y2="186.0" stroke="#000" stroke-width="0.3" stroke-dasharray="2,2"/>
  <polygon points="90,186.0 93,183.0 93,189.0" fill="#000"/>
  <polygon points="140,186.0 137,183.0 137,189.0" fill="#000"/>
  <text x="115.0" y="199.0" text-anchor="middle" font-size="10" fill="#000">5.0'</text>
</g>
<g class="dimension">
  <line x1="25" y1="186.0" x2="75" y2="186.0" stroke="#000" stroke-width="0.5"/>
  <line x1="25" y1="171.0" x2="25" y2="186.0" stroke="#000" stroke-width="0.3" stroke-dasharray="2,2"/>
  <line x1="75" y1="171.0" x2="75" y2="186.0" stroke="#000" stroke-width="0.3" stroke-dasharray="2,2"/>
  <polygon points="25,186.0 28,183.0 28,189.0" fill="#000"/>
  <polygon points="75,186.0 72,183.0 72,189.0" fill="#000"/>
  <text x="50.0" y="199.0" text-anchor="middle" font-size="10" fill="#000">5.0'</text>
</g>
<g class="dimension">
  <line x1="335" y1="274.0" x2="370" y2="274.0" stroke="#000" stroke-width="0.5"/>
  <line x1="335" y1="259.0" x2="335" y2="274.0" stroke="#000" stroke-width="0.3" stroke-dasharray="2,2"/>
  <line x1="370" y1="259.0" x2="370" y2="274.0" stroke="#000" stroke-width="0.3" stroke-dasharray="2,2"/>
  <polygon points="335,274.0 338,271.0 338,277.0" fill="#000"/>
  <polygon points="370,274.0 367,271.0 367,277.0" fill="#000"/>
  <text x="352.5" y="287.0" text-anchor="middle" font-size="10" fill="#000">3.5'</text>
</g>
<g class="dimension">
  <line x1="285" y1="274.0" x2="335" y2="274.0" stroke="#000" stroke-width="0.5"/>
  <line x1="285" y1="259.0" x2="285" y2="274.0" stroke="#000" stroke-width="0.3" stroke-dasharray="2,2"/>
  <line x1="335" y1="259.0" x2="335" y2="274.0" stroke="#000" stroke-width="0.3" stroke-dasharray="2,2"/>
  <polygon points="285,274.0 288,271.0 288,277.0" fill="#000"/>
  <polygon points="335,274.0 332,271.0 332,277.0" fill="#000"/>
  <text x="310.0" y="287.0" text-anchor="middle" font-size="10" fill="#000">5.0'</text>
</g>
<g class="dimension">
  <line x1="216" y1="264.0" x2="236" y2="264.0" stroke="#000" stroke-width="0.5"/>
  <line x1="216" y1="249.0" x2="216" y2="264.0" stroke="#000" stroke-width="0.3" stroke-dasharray="2,2"/>
  <line x1="236" y1="249.0" x2="236" y2="264.0" stroke="#000" stroke-width="0.3" stroke-dasharray="2,2"/>
  <polygon points="216,264.0 219,261.0 219,267.0" fill="#000"/>
  <polygon points="236,264.0 233,261.0 233,267.0" fill="#000"/>
  <text x="226.0" y="277.0" text-anchor="middle" font-size="10" fill="#000">2.0'</text>
</g>
<g class="dimension">
  <line x1="196" y1="264.0" x2="216" y2="264.0" stroke="#000" stroke-width="0.5"/>
  <line x1="196" y1="249.0" x2="196" y2="264.0" stroke="#000" stroke-width="0.3" stroke-dasharray="2,2"/>
  <line x1="216" y1="249.0" x2="216" y2="264.0" stroke="#000" stroke-width="0.3" stroke-dasharray="2,2"/>
  <polygon points="196,264.0 199,261.0 199,267.0" fill="#000"/>
  <polygon points="216,264.0 213,261.0 213,267.0" fill="#000"/>
  <text x="206.0" y="277.0" text-anchor="middle" font-size="10" fill="#000">2.0'</text>
</g>
<g class="dimension">
  <line x1="176" y1="264.0" x2="196" y2="264.0" stroke="#000" stroke-width="0.5"/>
  <line x1="176" y1="249.0" x2="176" y2="264.0" stroke="#000" stroke-width="0.3" stroke-dasharray="2,2"/>
  <line x1="196" y1="249.0" x2="196" y2="264.0" stroke="#000" stroke-width="0.3" stroke-dasharray="2,2"/>
  <polygon points="176,264.0 179,261.0 179,267.0" fill="#000"/>
  <polygon points="196,264.0 193,261.0 193,267.0" fill="#000"/>
  <text x="186.0" y="277.0" text-anchor="middle" font-size="10" fill="#000">2.0'</text>
</g>
<g class="dimension">
  <line x1="140" y1="264.0" x2="176" y2="264.0" stroke="#000" stroke-width="0.5"/>
  <line x1="140" y1="249.0" x2="140" y2="264.0" stroke="#000" stroke-width="0.3" stroke-dasharray="2,2"/>
  <line x1="176" y1="249.0" x2="176" y2="264.0" stroke="#000" stroke-width="0.3" stroke-dasharray="2,2"/>
  <polygon points="140,264.0 143,261.0 143,267.0" fill="#000"/>
  <polygon points="176,264.0 173,261.0 173,267.0" fill="#000"/>
  <text x="158.0" y="277.0" text-anchor="middle" font-size="10" fill="#000">3.6'</text>
</g>
<g class="dimension">
  <line x1="80" y1="264.0" x2="140" y2="264.0" stroke="#000" stroke-width="0.5"/>
  <line x1="80" y1="249.0" x2="80" y2="264.0" stroke="#000" stroke-width="0.3" stroke-dasharray="2,2"/>
  <line x1="140" y1="249.0" x2="140" y2="264.0" stroke="#000" stroke-width="0.3" stroke-dasharray="2,2"/>
  <polygon points="80,264.0 83,261.0 83,267.0" fill="#000"/>
  <polygon points="140,264.0 137,261.0 137,267.0" fill="#000"/>
  <text x="110.0" y="277.0" text-anchor="middle" font-size="10" fill="#000">6.0'</text>
</g>
<g class="dimension">
  <line x1="216" y1="146.0" x2="236" y2="146.0" stroke="#000" stroke-width="0.5"/>
  <line x1="216" y1="131.0" x2="216" y2="146.0" stroke="#000" stroke-width="0.3" stroke-dasharray="2,2"/>
  <line x1="236" y1="131.0" x2="236" y2="146.0" stroke="#000" stroke-width="0.3" stroke-dasharray="2,2"/>
  <polygon points="216,146.0 219,143.0 219,149.0" fill="#000"/>
  <polygon points="236,146.0 233,143.0 233,149.0" fill="#000"/>
  <text x="226.0" y="159.0" text-anchor="middle" font-size="10" fill="#000">2.0'</text>
</g>
<g class="dimension">
  <line x1="196" y1="146.0" x2="216" y2="146.0" stroke="#000" stroke-width="0.5"/>
  <line x1="196" y1="131.0" x2="196" y2="146.0" stroke="#000" stroke-width="0.3" stroke-dasharray="2,2"/>
  <line x1="216" y1="131.0" x2="216" y2="146.0" stroke="#000" stroke-width="0.3" stroke-dasharray="2,2"/>
  <polygon points="196,146.0 199,143.0 199,149.0" fill="#000"/>
  <polygon points="216,146.0 213,143.0 213,149.0" fill="#000"/>
  <text x="206.0" y="159.0" text-anchor="middle" font-size="10" fill="#000">2.0'</text>
</g>
<g class="dimension">
  <line x1="176" y1="146.0" x2="196" y2="146.0" stroke="#000" stroke-width="0.5"/>
  <line x1="176" y1="131.0" x2="176" y2="146.0" stroke="#000" stroke-width="0.3" stroke-dasharray="2,2"/>
  <line x1="196" y1="131.0" x2="196" y2="146.0" stroke="#000" stroke-width="0.3" stroke-dasharray="2,2"/>
  <polygon points="176,146.0 179,143.0 179,149.0" fill="#000"/>
  <polygon points="196,146.0 193,143.0 193,149.0" fill="#000"/>
  <text x="186.0" y="159.0" text-anchor="middle" font-size="10" fill="#000">2.0'</text>
</g>
<g class="dimension">
  <line x1="335" y1="166.0" x2="370" y2="166.0" stroke="#000" stroke-width="0.5"/>
  <line x1="335" y1="151.0" x2="335" y2="166.0" stroke="#000" stroke-width="0.3" stroke-dasharray="2,2"/>
  <line x1="370" y1="151.0" x2="370" y2="166.0" stroke="#000" stroke-width="0.3" stroke-dasharray="2,2"/>
  <polygon points="335,166.0 338,163.0 338,169.0" fill="#000"/>
  <polygon points="370,166.0 367,163.0 367,169.0" fill="#000"/>
  <text x="352.5" y="179.0" text-anchor="middle" font-size="10" fill="#000">3.5'</text>
</g>
<g class="dimension">
  <line x1="285" y1="166.0" x2="335" y2="166.0" stroke="#000" stroke-width="0.5"/>
  <line x1="285" y1="151.0" x2="285" y2="166.0" stroke="#000" stroke-width="0.3" stroke-dasharray="2,2"/>
  <line x1="335" y1="151.0" x2="335" y2="166.0" stroke="#000" stroke-width="0.3" stroke-dasharray="2,2"/>
  <polygon points="285,166.0 288,163.0 288,169.0" fill="#000"/>
  <polygon points="335,166.0 332,163.0 332,169.0" fill="#000"/>
  <text x="310.0" y="179.0" text-anchor="middle" font-size="10" fill="#000">5.0'</text>
</g>
</g>
<text x="600.0" y="40.0" text-anchor="middle" font-size="18" font-weight="bold" fill="#333">Right Elevation</text>
</svg>