<?xml version="1.0" encoding="UTF-8"?>
<svg xmlns="http://www.w3.org/2000/svg" width="1200.0" height="1004.0" viewBox="0 0 1200.0 1004.0">
<title>Left Elevation</title>
<defs>
    <style>
        text { font-family: Arial, sans-serif; }
    </style>
</defs>
<g transform="translate(150, 210) scale(2.0, 2.0)">

<line x1="0" y1="322.0" x2="450" y2="322.0" stroke="#666" stroke-width="2" stroke-dasharray="5,5"/>
<rect x="0" y="292.0" width="450" height="30.0" fill="#A0826D" stroke="#000" stroke-width="1"/>
<polygon points="300,176.0 300,18.0 450,91.0 450,176.0" fill="#C19A6B" stroke="#000" stroke-width="0.5"/>
<rect x="310" y="111.0" width="50" height="60.0" fill="#87CEEB" stroke="#000" stroke-width="0.5"/>
<rect x="375" y="111.0" width="50" height="60.0" fill="#87CEEB" stroke="#000" stroke-width="0.5"/>
<polygon points="80,18.0 80,18.0 196,-29.0 196,18.0" fill="#C19A6B" stroke="#000" stroke-width="0.5"/>
<polygon points="204,18.0 204,-29.0 300,18.0 300,18.0" fill="#C19A6B" stroke="#000" stroke-width="0.5"/>
<rect x="330" y="176.0" width="120" height="8.0" fill="#654321" stroke="#000" stroke-width="0.5"/>
<rect x="88" y="18.0" width="204" height="8.0" fill="#654321" stroke="#000" stroke-width="0.5"/>
<rect x="0" y="254.0" width="88" height="30.0" fill="#C19A6B" stroke="#000" stroke-width="0.5"/>
<rect x="196" y="184.0" width="254" height="100.0" fill="#C19A6B" stroke="#000" stroke-width="0.5"/>
<rect x="214" y="219.0" width="20" height="20.0" fill="#87CEEB" stroke="#000" stroke-width="0.5"/>
<rect x="254" y="219.0" width="20" height="20.0" fill="#87CEEB" stroke="#000" stroke-width="0.5"/>
<rect x="310" y="219.0" width="60" height="30.0" fill="#87CEEB" stroke="#000" stroke-width="0.5"/>
<rect x="80" y="184.0" width="124" height="100.0" fill="#C19A6B" stroke="#000" stroke-width="0.5"/>
<rect x="115" y="219.0" width="50" height="40.0" fill="#87CEEB" stroke="#000" stroke-width="0.5"/>
<rect x="0" y="146.0" width="88" height="30.0" fill="#C19A6B" stroke="#000" stroke-width="0.5"/>
<rect x="80" y="26.0" width="124" height="150.0" fill="#C19A6B" stroke="#000" stroke-width="0.5"/>
<rect x="115" y="111.0" width="50" height="40.0" fill="#87CEEB" stroke="#000" stroke-width="0.5"/>
<rect x="196" y="26.0" width="104" height="150.0" fill="#C19A6B" stroke="#000" stroke-width="0.5"/>
<rect x="214" y="111.0" width="20" height="20.0" fill="#87CEEB" stroke="#000" stroke-width="0.5"/>
<rect x="254" y="111.0" width="20" height="20.0" fill="#87CEEB" stroke="#000" stroke-width="0.5"/>
<rect x="0.0" y="49.0" width="8" height="235.0" fill="#000" stroke="#000" stroke-width="0.5"/>
<rect x="80.0" y="26.0" width="8" height="258.0" fill="#000" stroke="#000" stroke-width="0.5"/>
<rect x="196.0" y="-29.0" width="8" height="313.0" fill="#000" stroke="#000" stroke-width="0.5"/>
<rect x="292.0" y="26.0" width="8" height="258.0" fill="#000" stroke="#000" stroke-width="0.5"/>
<rect x="208" y="68.0" width="92" height="8.0" fill="#808080" stroke="#000" stroke-width="0.5"/>
<rect x="196" y="184.0" width="104" height="100.0" fill="#C19A6B" stroke="#000" stroke-width="0.5"/>
<rect x="228" y="219.0" width="30" height="65.0" fill="#D2691E" stroke="#000" stroke-width="0.5"/>
<rect x="196" y="76.0" width="104" height="100.0" fill="#C19A6B" stroke="#000" stroke-width="0.5"/>
<rect x="228" y="111.0" width="30" height="65.0" fill="#D2691E" stroke="#000" stroke-width="0.5"/>
<rect x="0.0" y="49.0" width="8" height="235.0" fill="#000" stroke="#000" stroke-width="0.5"/>
<rect x="80" y="184.0" width="124" height="100.0" fill="#C19A6B" stroke="#000" stroke-width="0.5"/>
<rect x="80" y="76.0" width="124" height="100.0" fill="#C19A6B" stroke="#000" stroke-width="0.5"/>
<rect x="0.0" y="49.0" width="8" height="235.0" fill="#000" stroke="#000" stroke-width="0.5"/>
<rect x="234" y="176.0" width="100" height="8.0" fill="#808080" stroke="#000" stroke-width="0.5"/>
<rect x="292.0" y="184.0" width="8" height="100.0" fill="#000" stroke="#000" stroke-width="0.5"/>
<rect x="442" y="176.0" width="8" height="8.0" fill="#654321" stroke="#000" stroke-width="0.5"/>
<rect x="88" y="68.0" width="120" height="8.0" fill="#808080" stroke="#000" stroke-width="0.5"/>
<rect x="200" y="26.0" width="100" height="150.0" fill="#C19A6B" stroke="#000" stroke-width="0.5"/>
<polygon points="300,176.0 300,18.0 450,91.0 450,176.0" fill="#C19A6B" stroke="#000" stroke-width="0.5"/>
<rect x="310" y="111.0" width="50" height="60.0" fill="#87CEEB" stroke="#000" stroke-width="0.5"/>
<rect x="375" y="111.0" width="50" height="60.0" fill="#87CEEB" stroke="#000" stroke-width="0.5"/>
<polygon points="80,18.0 80,18.0 196,-29.0 196,18.0" fill="#C19A6B" stroke="#000" stroke-width="0.5"/>
<polygon points="204,18.0 204,-29.0 300,18.0 300,18.0" fill="#C19A6B" stroke="#000" stroke-width="0.5"/>
<rect x="230" y="176.0" width="220" height="8.0" fill="#654321" stroke="#000" stroke-width="0.5"/>
<rect x="80" y="18.0" width="8" height="8.0" fill="#654321" stroke="#000" stroke-width="0.5"/>
<rect x="292" y="18.0" width="8" height="8.0" fill="#654321" stroke="#000" stroke-width="0.5"/>
<rect x="88" y="18.0" width="204" height="8.0" fill="#654321" stroke="#000" stroke-width="0.5"/>
<rect x="0" y="284.0" width="450" height="8.0" fill="#808080" stroke="#000" stroke-width="0.5"/>
<rect x="0" y="176.0" width="234" height="8.0" fill="#808080" stroke="#000" stroke-width="0.5"/>
<rect x="0" y="254.0" width="88" height="30.0" fill="#C19A6B" stroke="#000" stroke-width="0.5"/>
<rect x="80" y="184.0" width="124" height="100.0" fill="#C19A6B" stroke="#000" stroke-width="0.5"/>
<rect x="117" y="219.0" width="50" height="40.0" fill="#87CEEB" stroke="#000" stroke-width="0.5"/>
<rect x="196" y="184.0" width="254" height="100.0" fill="#C19A6B" stroke="#000" stroke-width="0.5"/>
<rect x="224" y="219.0" width="40" height="40.0" fill="#87CEEB" stroke="#000" stroke-width="0.5"/>
<rect x="386" y="219.0" width="40" height="30.0" fill="#87CEEB" stroke="#000" stroke-width="0.5"/>
<rect x="0" y="146.0" width="88" height="30.0" fill="#C19A6B" stroke="#000" stroke-width="0.5"/>
<rect x="80" y="26.0" width="124" height="150.0" fill="#C19A6B" stroke="#000" stroke-width="0.5"/>
<rect x="115" y="111.0" width="50" height="40.0" fill="#87CEEB" stroke="#000" stroke-width="0.5"/>
<rect x="0.0" y="49.0" width="8" height="235.0" fill="#000" stroke="#000" stroke-width="0.5"/>
<rect x="80.0" y="26.0" width="8" height="258.0" fill="#000" stroke="#000" stroke-width="0.5"/>
<rect x="196.0" y="-29.0" width="8" height="313.0" fill="#000" stroke="#000" stroke-width="0.5"/>
<rect x="292.0" y="26.0" width="8" height="258.0" fill="#000" stroke="#000" stroke-width="0.5"/>
<g class="dimension">
  <line x1="480" y1="284.0" x2="480" y2="184.0" stroke="#000" stroke-width="0.5"/>
  <line x1="450" y1="284.0" x2="480" y2="284.0" stroke="#000" stroke-width="0.3" stroke-dasharray="2,2"/>
  <line x1="450" y1="184.0" x2="480" y2="184.0" stroke="#000" stroke-width="0.3" stroke-dasharray="2,2"/>
  <polygon points="480,284.0 477,287.0 483,287.0" fill="#000"/>
  <polygon points="480,184.0 477,181.0 483,181.0" fill="#000"/>
  <text x="493" y="234.0" text-anchor="middle" font-size="10" fill="#000" transform="rotate(-90 493 234.0)">10.0'</text>
</g>
<g class="dimension">
  <line x1="480" y1="176.0" x2="480" y2="76.0" stroke="#000" stroke-width="0.5"/>
  <line x1="450" y1="176.0" x2="480" y2="176.0" stroke="#000" stroke-width="0.3" stroke-dasharray="2,2"/>
  <line x1="450" y1="76.0" x2="480" y2="76.0" stroke="#000" stroke-width="0.3" stroke-dasharray="2,2"/>
  <polygon points="480,176.0 477,179.0 483,179.0" fill="#000"/>
  <polygon points="480,76.0 477,73.0 483,73.0" fill="#000"/>
  <text x="493" y="126.0" text-anchor="middle" font-size="10" fill="#000" transform="rotate(-90 493 126.0)">10.0'</text>
</g>
<g class="dimension">
  <line x1="480" y1="68.0" x2="480" y2="26.0" stroke="#000" stroke-width="0.5"/>
  <line x1="450" y1="68.0" x2="480" y2="68.0" stroke="#000" stroke-width="0.3" stroke-dasharray="2,2"/>
  <line x1="450" y1="26.0" x2="480" y2="26.0" stroke="#000" stroke-width="0.3" stroke-dasharray="2,2"/>
  <polygon points="480,68.0 477,71.0 483,71.0" fill="#000"/>
  <polygon points="480,26.0 477,23.0 483,23.0" fill="#000"/>
  <text x="493" y="47.0" text-anchor="middle" font-size="10" fill="#000" transform="rotate(-90 493 47.0)">4.2'</text>
</g>
<g class="dimension">
  <line x1="480" y1="18.0" x2="480" y2="-32.0" stroke="#000" stroke-width="0.5"/>
  <line x1="450" y1="18.0" x2="480" y2="18.0" stroke="#000" stroke-width="0.3" stroke-dasharray="2,2"/>
  <line x1="450" y1="-32.0" x2="480" y2="-32.0" stroke="#000" stroke-width="0.3" stroke-dasharray="2,2"/>
  <polygon points="480,18.0 477,21.0 483,21.0" fill="#000"/>
  <polygon points="480,-32.0 477,-35.0 483,-35.0" fill="#000"/>
  <text x="493" y="-7.0" text-anchor="middle" font-size="10" fill="#000" transform="rotate(-90 493 -7.0)">5.0'</text>
</g>
<g class="dimension">
  <line x1="0" y1="-30.0" x2="450" y2="-30.0" stroke="#000" stroke-width="0.5"/>
  <line x1="0" y1="0.0" x2="0" y2="-30.0" stroke="#000" stroke-width="0.3" stroke-dasharray="2,2"/>
  <line x1="450" y1="0.0" x2="450" y2="-30.0" stroke="#000" stroke-width="0.3" stroke-dasharray="2,2"/>
  <polygon points="0,-30.0 3,-33.0 3,-27.0" fill="#000"/>
  <polygon points="450,-30.0 447,-33.0 447,-27.0" fill="#000"/>
  <text x="225.0" y="-35.0" text-anchor="middle" font-size="10" fill="#000">45.0'</text>
</g>
<g class="dimension">
  <line x1="310" y1="186.0" x2="360" y2="186.0" stroke="#000" stroke-width="0.5"/>
  <line x1="310" y1="171.0" x2="310" y2="186.0" stroke="#000" stroke-width="0.3" stroke-dasharray="2,2"/>
  <line x1="360" y1="171.0" x2="360" y2="186.0" stroke="#000" stroke-width="0.3" stroke-dasharray="2,2"/>
  <polygon points="310,186.0 313,183.0 313,189.0" fill="#000"/>
  <polygon points="360,186.0 357,183.0 357,189.0" fill="#000"/>
  <text x="335.0" y="199.0" text-anchor="middle" font-size="10" fill="#000">5.0'</text>
</g>
<g class="dimension">
  <line x1="375" y1="186.0" x2="425" y2="186.0" stroke="#000" stroke-width="0.5"/>
  <line x1="375" y1="171.0" x2="375" y2="186.0" stroke="#000" stroke-width="0.3" stroke-dasharray="2,2"/>
  <line x1="425" y1="171.0" x2="425" y2="186.0" stroke="#000" stroke-width="0.3" stroke-dasharray="2,2"/>
  <polygon points="375,186.0 378,183.0 378,189.0" fill="#000"/>
  <polygon points="425,186.0 422,183.0 422,189.0" fill="#000"/>
  <text x="400.0" y="199.0" text-anchor="middle" font-size="10" fill="#000">5.0'</text>
</g>
<g class="dimension">
  <line x1="80" y1="274.0" x2="117" y2="274.0" stroke="#000" stroke-width="0.5"/>
  <line x1="80" y1="259.0" x2="80" y2="274.0" stroke="#000" stroke-width="0.3" stroke-dasharray="2,2"/>
  <line x1="117" y1="259.0" x2="117" y2="274.0" stroke="#000" stroke-width="0.3" stroke-dasharray="2,2"/>
  <polygon points="80,274.0 83,271.0 83,277.0" fill="#000"/>
  <polygon points="117,274.0 114,271.0 114,277.0" fill="#000"/>
  <text x="98.5" y="287.0" text-anchor="middle" font-size="10" fill="#000">3.7'</text>
</g>
<g class="dimension">
  <line x1="117" y1="274.0" x2="167" y2="274.0" stroke="#000" stroke-width="0.5"/>
  <line x1="117" y1="259.0" x2="117" y2="274.0" stroke="#000" stroke-width="0.3" stroke-dasharray="2,2"/>
  <line x1="167" y1="259.0" x2="167" y2="274.0" stroke="#000" stroke-width="0.3" stroke-dasharray="2,2"/>
  <polygon points="117,274.0 120,271.0 120,277.0" fill="#000"/>
  <polygon points="167,274.0 164,271.0 164,277.0" fill="#000"/>
  <text x="142.0" y="287.0" text-anchor="middle" font-size="10" fill="#000">5.0'</text>
</g>
<g class="dimension">
  <line x1="196" y1="274.0" x2="224" y2="274.0" stroke="#000" stroke-width="0.5"/>
  <line x1="196" y1="259.0" x2="196" y2="274.0" stroke="#000" stroke-width="0.3" stroke-dasharray="2,2"/>
  <line x1="224" y1="259.0" x2="224" y2="274.0" stroke="#000" stroke-width="0.3" stroke-dasharray="2,2"/>
  <polygon points="196,274.0 199,271.0 199,277.0" fill="#000"/>
  <polygon points="224,274.0 221,271.0 221,277.0" fill="#000"/>
  <text x="210.0" y="287.0" text-anchor="middle" font-size="10" fill="#000">2.8'</text>
</g>
<g class="dimension">
  <line x1="224" y1="274.0" x2="264" y2="274.0" stroke="#000" stroke-width="0.5"/>
  <line x1="224" y1="259.0" x2="224" y2="274.0" stroke="#000" stroke-width="0.3" stroke-dasharray="2,2"/>
  <line x1="264" y1="259.0" x2="264" y2="274.0" stroke="#000" stroke-width="0.3" stroke-dasharray="2,2"/>
  <polygon points="224,274.0 227,271.0 227,277.0" fill="#000"/>
  <polygon points="264,274.0 261,271.0 261,277.0" fill="#000"/>
  <text x="244.0" y="287.0" text-anchor="middle" font-size="10" fill="#000">4.0'</text>
</g>
<g class="dimension">
  <line x1="264" y1="274.0" x2="386" y2="274.0" stroke="#000" stroke-width="0.5"/>
  <line x1="264" y1="259.0" x2="264" y2="274.0" stroke="#000" stroke-width="0.3" stroke-dasharray="2,2"/>
  <line x1="386" y1="259.0" x2="386" y2="274.0" stroke="#000" stroke-width="0.3" stroke-dasharray="2,2"/>
  <polygon points="264,274.0 267,271.0 267,277.0" fill="#000"/>
  <polygon points="386,274.0 383,271.0 383,277.0" fill="#000"/>
  <text x="325.0" y="287.0" text-anchor="middle" font-size="10" fill="#000">12.2'</text>
</g>
<g class="dimension">
  <line x1="386" y1="274.0" x2="426" y2="274.0" stroke="#000" stroke-width="0.5"/>
  <line x1="386" y1="259.0" x2="386" y2="274.0" stroke="#000" stroke-width="0.3" stroke-dasharray="2,2"/>
  <line x1="426" y1="259.0" x2="426" y2="274.0" stroke="#000" stroke-width="0.3" stroke-dasharray="2,2"/>
  <polygon points="386,274.0 389,271.0 389,277.0" fill="#000"/>
  <polygon points="426,274.0 423,271.0 423,277.0" fill="#000"/>
  <text x="406.0" y="287.0" text-anchor="middle" font-size="10" fill="#000">4.0'</text>
</g>
<g class="dimension">
  <line x1="80" y1="166.0" x2="115" y2="166.0" stroke="#000" stroke-width="0.5"/>
  <line x1="80" y1="151.0" x2="80" y2="166.0" stroke="#000" stroke-width="0.3" stroke-dasharray="2,2"/>
  <line x1="115" y1="151.0" x2="115" y2="166.0" stroke="#000" stroke-width="0.3" stroke-dasharray="2,2"/>
  <polygon points="80,166.0 83,163.0 83,169.0" fill="#000"/>
  <polygon points="115,166.0 112,163.0 112,169.0" fill="#000"/>
  <text x="97.5" y="179.0" text-anchor="middle" font-size="10" fill="#000">3.5'</text>
</g>
<g class="dimension">
  <line x1="115" y1="166.0" x2="165" y2="166.0" stroke="#000" stroke-width="0.5"/>
  <line x1="115" y1="151.0" x2="115" y2="166.0" stroke="#000" stroke-width="0.3" stroke-dasharray="2,2"/>
  <line x1="165" y1="151.0" x2="165" y2="166.0" stroke="#000" stroke-width="0.3" stroke-dasharray="2,2"/>
  <polygon points="115,166.0 118,163.0 118,169.0" fill="#000"/>
  <polygon points="165,166.0 162,163.0 162,169.0" fill="#000"/>
  <text x="140.0" y="179.0" text-anchor="middle" font-size="10" fill="#000">5.0'</text>
</g>
</g>
<text x="600.0" y="40.0" text-anchor="middle" font-size="18" font-weight="bold" fill="#333">Left Elevation</text>
</svg>