<?xml version="1.0" encoding="UTF-8"?>
<svg xmlns="http://www.w3.org/2000/svg" width="780.0" height="690.0" viewBox="0 0 780.0 690.0">
<title>Roof Floor - Floor Plan</title>
<defs>
    <style>
        text { font-family: Arial, sans-serif; }
    </style>
</defs>
<g transform="translate(120.0, -10.0) scale(2.0, 2.0)">

<rect x="0" y="80" width="270" height="8" fill="#D3D3D3" stroke="#999" stroke-width="1" opacity="0.6"/>
<rect x="0" y="282" width="270" height="8" fill="#D3D3D3" stroke="#999" stroke-width="1" opacity="0.6"/>
<rect x="0" y="88" width="8" height="194" fill="#D3D3D3" stroke="#999" stroke-width="1" opacity="0.6"/>
<rect x="262" y="88" width="8" height="194" fill="#D3D3D3" stroke="#999" stroke-width="1" opacity="0.6"/>
<polygon points="0.0,80.0 0.0,192.0 8.0,192.0 8.0,80.0" fill="#8B4513" stroke="#000" stroke-width="0.5"/>
<polygon points="0.0,200.0 0.0,290.0 8.0,290.0 8.0,200.0" fill="#8B4513" stroke="#000" stroke-width="0.5"/>
<polygon points="262.0,80.0 262.0,192.0 270.0,192.0 270.0,80.0" fill="#8B4513" stroke="#000" stroke-width="0.5"/>
<polygon points="262.0,200.0 262.0,290.0 270.0,290.0 270.0,200.0" fill="#8B4513" stroke="#000" stroke-width="0.5"/>
<g class="dimension">
  <line x1="19" y1="80" x2="19" y2="192" stroke="#000" stroke-width="0.5"/>
  <line x1="4" y1="80" x2="19" y2="80" stroke="#000" stroke-width="0.3" stroke-dasharray="2,2"/>
  <line x1="4" y1="192" x2="19" y2="192" stroke="#000" stroke-width="0.3" stroke-dasharray="2,2"/>
  <polygon points="19,80 16,83 22,83" fill="#000"/>
  <polygon points="19,192 16,189 22,189" fill="#000"/>
  <text x="32" y="136.0" text-anchor="middle" font-size="10" fill="#000" transform="rotate(-90 32 136.0)">11.2'</text>
</g>
<g class="dimension">
  <line x1="19" y1="200" x2="19" y2="290" stroke="#000" stroke-width="0.5"/>
  <line x1="4" y1="200" x2="19" y2="200" stroke="#000" stroke-width="0.3" stroke-dasharray="2,2"/>
  <line x1="4" y1="290" x2="19" y2="290" stroke="#000" stroke-width="0.3" stroke-dasharray="2,2"/>
  <polygon points="19,200 16,203 22,203" fill="#000"/>
  <polygon points="19,290 16,287 22,287" fill="#000"/>
  <text x="32" y="245.0" text-anchor="middle" font-size="10" fill="#000" transform="rotate(-90 32 245.0)">9.0'</text>
</g>
<g class="dimension">
  <line x1="281" y1="80" x2="281" y2="192" stroke="#000" stroke-width="0.5"/>
  <line x1="266" y1="80" x2="281" y2="80" stroke="#000" stroke-width="0.3" stroke-dasharray="2,2"/>
  <line x1="266" y1="192" x2="281" y2="192" stroke="#000" stroke-width="0.3" stroke-dasharray="2,2"/>
  <polygon points="281,80 278,83 284,83" fill="#000"/>
  <polygon points="281,192 278,189 284,189" fill="#000"/>
  <text x="294" y="136.0" text-anchor="middle" font-size="10" fill="#000" transform="rotate(-90 294 136.0)">11.2'</text>
</g>
<g class="dimension">
  <line x1="281" y1="200" x2="281" y2="290" stroke="#000" stroke-width="0.5"/>
  <line x1="266" y1="200" x2="281" y2="200" stroke="#000" stroke-width="0.3" stroke-dasharray="2,2"/>
  <line x1="266" y1="290" x2="281" y2="290" stroke="#000" stroke-width="0.3" stroke-dasharray="2,2"/>
  <polygon points="281,200 278,203 284,203" fill="#000"/>
  <polygon points="281,290 278,287 284,287" fill="#000"/>
  <text x="294" y="245.0" text-anchor="middle" font-size="10" fill="#000" transform="rotate(-90 294 245.0)">9.0'</text>
</g>
</g>
<text x="390.0" y="30" text-anchor="middle" font-size="16" font-weight="bold">Roof Floor</text>
</svg>