<?xml version="1.0" encoding="UTF-8"?>
<svg xmlns="http://www.w3.org/2000/svg" width="780.0" height="1170.0" viewBox="0 0 780.0 1170.0">
<title>First Floor - Floor Plan</title>
<defs>
    <style>
        text { font-family: Arial, sans-serif; }
    </style>
</defs>
<g transform="translate(120.0, 150.0) scale(2.0, 2.0)">

<rect x="0" y="0" width="270" height="234" fill="#D3D3D3" stroke="#999" stroke-width="1" opacity="0.6"/>
<rect x="40" y="234" width="230" height="100" fill="#D3D3D3" stroke="#999" stroke-width="1" opacity="0.6"/>
<rect x="0" y="230" width="8" height="220" fill="#D3D3D3" stroke="#999" stroke-width="1" opacity="0.6"/>
<rect x="262" y="330" width="8" height="120" fill="#D3D3D3" stroke="#999" stroke-width="1" opacity="0.6"/>
<rect x="8" y="442" width="254" height="8" fill="#D3D3D3" stroke="#999" stroke-width="1" opacity="0.6"/>
<polygon points="0.0,8.0 270.0,8.0 270.0,0.0 0.0,0.0" fill="#8B4513" stroke="#000" stroke-width="0.5"/>
<polygon points="262.0,8.0 262.0,80.0 270.0,80.0 270.0,8.0" fill="#8B4513" stroke="#000" stroke-width="0.5"/>
<polygon points="0.0,8.0 0.0,80.0 8.0,80.0 8.0,8.0" fill="#8B4513" stroke="#000" stroke-width="0.5"/>
<polygon points="0.0,88.0 124.0,88.0 124.0,80.0 0.0,80.0" fill="#8B4513" stroke="#000" stroke-width="0.5"/>
<polygon points="0.0,204.0 124.0,204.0 124.0,196.0 0.0,196.0" fill="#8B4513" stroke="#000" stroke-width="0.5"/>
<polygon points="116.0,88.0 116.0,196.0 124.0,196.0 124.0,88.0" fill="#8B4513" stroke="#000" stroke-width="0.5"/>
<polygon points="0.0,88.0 0.0,196.0 8.0,196.0 8.0,88.0" fill="#8B4513" stroke="#000" stroke-width="0.5"/>
<polygon points="116.0,88.0 270.0,88.0 270.0,80.0 116.0,80.0" fill="#8B4513" stroke="#000" stroke-width="0.5"/>
<polygon points="116.0,204.0 270.0,204.0 270.0,196.0 116.0,196.0" fill="#8B4513" stroke="#000" stroke-width="0.5"/>
<polygon points="262.0,88.0 262.0,196.0 270.0,196.0 270.0,88.0" fill="#8B4513" stroke="#000" stroke-width="0.5"/>
<polygon points="176.0,290.0 270.0,290.0 270.0,282.0 176.0,282.0" fill="#8B4513" stroke="#000" stroke-width="0.5"/>
<polygon points="262.0,204.0 262.0,282.0 270.0,282.0 270.0,204.0" fill="#8B4513" stroke="#000" stroke-width="0.5"/>
<polygon points="176.0,204.0 176.0,282.0 184.0,282.0 184.0,204.0" fill="#8B4513" stroke="#000" stroke-width="0.5"/>
<polygon points="0.0,200.0 0.0,290.0 8.0,290.0 8.0,200.0" fill="#8B4513" stroke="#000" stroke-width="0.5"/>
<polygon points="262.0,290.0 262.0,450.0 270.0,450.0 270.0,290.0" fill="#8B4513" stroke="#000" stroke-width="0.5"/>
<polygon points="0.0,290.0 0.0,450.0 8.0,450.0 8.0,290.0" fill="#8B4513" stroke="#000" stroke-width="0.5"/>
<polygon points="8.0,450.0 262.0,450.0 262.0,442.0 8.0,442.0" fill="#8B4513" stroke="#000" stroke-width="0.5"/>
<rect x="124" y="194" width="30" height="4" fill="#A0522D" stroke="#000" stroke-width="0.5"/>
<rect x="90" y="194" width="30" height="4" fill="#A0522D" stroke="#000" stroke-width="0.5"/>
<rect x="174" y="228" width="4" height="30" fill="#A0522D" stroke="#000" stroke-width="0.5"/>
<rect x="25" y="79" width="80" height="2" fill="#87CEEB" stroke="#000" stroke-width="0.5"/>
<rect x="-1" y="115" width="2" height="50" fill="#87CEEB" stroke="#000" stroke-width="0.5"/>
<rect x="135" y="79" width="80" height="2" fill="#87CEEB" stroke="#000" stroke-width="0.5"/>
<rect x="261" y="115" width="2" height="50" fill="#87CEEB" stroke="#000" stroke-width="0.5"/>
<rect x="261" y="214" width="2" height="20" fill="#87CEEB" stroke="#000" stroke-width="0.5"/>
<rect x="261" y="254" width="2" height="20" fill="#87CEEB" stroke="#000" stroke-width="0.5"/>
<rect x="261" y="310" width="2" height="50" fill="#87CEEB" stroke="#000" stroke-width="0.5"/>
<rect x="261" y="375" width="2" height="50" fill="#87CEEB" stroke="#000" stroke-width="0.5"/>
<rect x="-1" y="310" width="2" height="50" fill="#87CEEB" stroke="#000" stroke-width="0.5"/>
<rect x="-1" y="375" width="2" height="50" fill="#87CEEB" stroke="#000" stroke-width="0.5"/>
<rect x="24" y="441" width="60" height="2" fill="#87CEEB" stroke="#000" stroke-width="0.5"/>
<rect x="98.5" y="441" width="75" height="2" fill="#87CEEB" stroke="#000" stroke-width="0.5"/>
<rect x="187.5" y="441" width="60" height="2" fill="#87CEEB" stroke="#000" stroke-width="0.5"/>
<g class="opening-dimension">
  <line x1="116" y1="204" x2="124" y2="204" stroke="#666" stroke-width="0.3"/>
  <line x1="116" y1="196" x2="116" y2="204" stroke="#666" stroke-width="0.2" stroke-dasharray="1,1"/>
  <line x1="124" y1="196" x2="124" y2="204" stroke="#666" stroke-width="0.2" stroke-dasharray="1,1"/>
  <polygon points="116,204 118,203.0 118,205.0" fill="#666"/>
  <polygon points="124,204 122,203.0 122,205.0" fill="#666"/>
  <text x="120.0" y="213" text-anchor="middle" font-size="8" fill="#666">0.8'</text>
  <line x1="124" y1="210.4" x2="154" y2="210.4" stroke="#000" stroke-width="0.4"/>
  <line x1="124" y1="196" x2="124" y2="210.4" stroke="#000" stroke-width="0.2" stroke-dasharray="1,1"/>
  <line x1="154" y1="196" x2="154" y2="210.4" stroke="#000" stroke-width="0.2" stroke-dasharray="1,1"/>
  <polygon points="124,210.4 126,209.4 126,211.4" fill="#000"/>
  <polygon points="154,210.4 152,209.4 152,211.4" fill="#000"/>
  <text x="139.0" y="219.4" text-anchor="middle" font-size="8" font-weight="bold" fill="#000">3.0'</text>
</g>
<g class="opening-dimension">
  <line x1="0" y1="204" x2="90" y2="204" stroke="#666" stroke-width="0.3"/>
  <line x1="0" y1="196" x2="0" y2="204" stroke="#666" stroke-width="0.2" stroke-dasharray="1,1"/>
  <line x1="90" y1="196" x2="90" y2="204" stroke="#666" stroke-width="0.2" stroke-dasharray="1,1"/>
  <polygon points="0,204 2,203.0 2,205.0" fill="#666"/>
  <polygon points="90,204 88,203.0 88,205.0" fill="#666"/>
  <text x="45.0" y="213" text-anchor="middle" font-size="8" fill="#666">9.0'</text>
  <line x1="90" y1="210.4" x2="120" y2="210.4" stroke="#000" stroke-width="0.4"/>
  <line x1="90" y1="196" x2="90" y2="210.4" stroke="#000" stroke-width="0.2" stroke-dasharray="1,1"/>
  <line x1="120" y1="196" x2="120" y2="210.4" stroke="#000" stroke-width="0.2" stroke-dasharray="1,1"/>
  <polygon points="90,210.4 92,209.4 92,211.4" fill="#000"/>
  <polygon points="120,210.4 118,209.4 118,211.4" fill="#000"/>
  <text x="105.0" y="219.4" text-anchor="middle" font-size="8" font-weight="bold" fill="#000">3.0'</text>
</g>
<g class="opening-dimension">
  <line x1="168" y1="196" x2="168" y2="228" stroke="#666" stroke-width="0.3"/>
  <line x1="176" y1="196" x2="168" y2="196" stroke="#666" stroke-width="0.2" stroke-dasharray="1,1"/>
  <line x1="176" y1="228" x2="168" y2="228" stroke="#666" stroke-width="0.2" stroke-dasharray="1,1"/>
  <polygon points="168,196 167.0,198 169.0,198" fill="#666"/>
  <polygon points="168,228 167.0,226 169.0,226" fill="#666"/>
  <text x="158" y="212.0" text-anchor="middle" font-size="8" fill="#666" transform="rotate(-90 158 212.0)">3.2'</text>
  <line x1="161.6" y1="228" x2="161.6" y2="258" stroke="#000" stroke-width="0.4"/>
  <line x1="176" y1="228" x2="161.6" y2="228" stroke="#000" stroke-width="0.2" stroke-dasharray="1,1"/>
  <line x1="176" y1="258" x2="161.6" y2="258" stroke="#000" stroke-width="0.2" stroke-dasharray="1,1"/>
  <polygon points="161.6,228 160.6,230 162.6,230" fill="#000"/>
  <polygon points="161.6,258 160.6,256 162.6,256" fill="#000"/>
  <text x="151.6" y="243.0" text-anchor="middle" font-size="8" font-weight="bold" fill="#000" transform="rotate(-90 151.6 243.0)">3.0'</text>
</g>
<g class="opening-dimension">
  <line x1="0" y1="72" x2="25" y2="72" stroke="#666" stroke-width="0.3"/>
  <line x1="0" y1="80" x2="0" y2="72" stroke="#666" stroke-width="0.2" stroke-dasharray="1,1"/>
  <line x1="25" y1="80" x2="25" y2="72" stroke="#666" stroke-width="0.2" stroke-dasharray="1,1"/>
  <polygon points="0,72 2,71.0 2,73.0" fill="#666"/>
  <polygon points="25,72 23,71.0 23,73.0" fill="#666"/>
  <text x="12.5" y="69" text-anchor="middle" font-size="8" fill="#666">2.5'</text>
  <line x1="25" y1="65.6" x2="105" y2="65.6" stroke="#000" stroke-width="0.4"/>
  <line x1="25" y1="80" x2="25" y2="65.6" stroke="#000" stroke-width="0.2" stroke-dasharray="1,1"/>
  <line x1="105" y1="80" x2="105" y2="65.6" stroke="#000" stroke-width="0.2" stroke-dasharray="1,1"/>
  <polygon points="25,65.6 27,64.6 27,66.6" fill="#000"/>
  <polygon points="105,65.6 103,64.6 103,66.6" fill="#000"/>
  <text x="65.0" y="62.599999999999994" text-anchor="middle" font-size="8" font-weight="bold" fill="#000">8.0'</text>
</g>
<g class="opening-dimension">
  <line x1="-8" y1="80" x2="-8" y2="115" stroke="#666" stroke-width="0.3"/>
  <line x1="0" y1="80" x2="-8" y2="80" stroke="#666" stroke-width="0.2" stroke-dasharray="1,1"/>
  <line x1="0" y1="115" x2="-8" y2="115" stroke="#666" stroke-width="0.2" stroke-dasharray="1,1"/>
  <polygon points="-8,80 -9.0,82 -7.0,82" fill="#666"/>
  <polygon points="-8,115 -9.0,113 -7.0,113" fill="#666"/>
  <text x="-18" y="97.5" text-anchor="middle" font-size="8" fill="#666" transform="rotate(-90 -18 97.5)">3.5'</text>
  <line x1="-14.4" y1="115" x2="-14.4" y2="165" stroke="#000" stroke-width="0.4"/>
  <line x1="0" y1="115" x2="-14.4" y2="115" stroke="#000" stroke-width="0.2" stroke-dasharray="1,1"/>
  <line x1="0" y1="165" x2="-14.4" y2="165" stroke="#000" stroke-width="0.2" stroke-dasharray="1,1"/>
  <polygon points="-14.4,115 -15.4,117 -13.4,117" fill="#000"/>
  <polygon points="-14.4,165 -15.4,163 -13.4,163" fill="#000"/>
  <text x="-24.4" y="140.0" text-anchor="middle" font-size="8" font-weight="bold" fill="#000" transform="rotate(-90 -24.4 140.0)">5.0'</text>
</g>
<g class="opening-dimension">
  <line x1="116" y1="72" x2="135" y2="72" stroke="#666" stroke-width="0.3"/>
  <line x1="116" y1="80" x2="116" y2="72" stroke="#666" stroke-width="0.2" stroke-dasharray="1,1"/>
  <line x1="135" y1="80" x2="135" y2="72" stroke="#666" stroke-width="0.2" stroke-dasharray="1,1"/>
  <polygon points="116,72 118,71.0 118,73.0" fill="#666"/>
  <polygon points="135,72 133,71.0 133,73.0" fill="#666"/>
  <text x="125.5" y="69" text-anchor="middle" font-size="8" fill="#666">1.9'</text>
  <line x1="135" y1="65.6" x2="215" y2="65.6" stroke="#000" stroke-width="0.4"/>
  <line x1="135" y1="80" x2="135" y2="65.6" stroke="#000" stroke-width="0.2" stroke-dasharray="1,1"/>
  <line x1="215" y1="80" x2="215" y2="65.6" stroke="#000" stroke-width="0.2" stroke-dasharray="1,1"/>
  <polygon points="135,65.6 137,64.6 137,66.6" fill="#000"/>
  <polygon points="215,65.6 213,64.6 213,66.6" fill="#000"/>
  <text x="175.0" y="62.599999999999994" text-anchor="middle" font-size="8" font-weight="bold" fill="#000">8.0'</text>
</g>
<g class="opening-dimension">
  <line x1="270" y1="80" x2="270" y2="115" stroke="#666" stroke-width="0.3"/>
  <line x1="262" y1="80" x2="270" y2="80" stroke="#666" stroke-width="0.2" stroke-dasharray="1,1"/>
  <line x1="262" y1="115" x2="270" y2="115" stroke="#666" stroke-width="0.2" stroke-dasharray="1,1"/>
  <polygon points="270,80 269.0,82 271.0,82" fill="#666"/>
  <polygon points="270,115 269.0,113 271.0,113" fill="#666"/>
  <text x="280" y="97.5" text-anchor="middle" font-size="8" fill="#666" transform="rotate(-90 280 97.5)">3.5'</text>
  <line x1="276.4" y1="115" x2="276.4" y2="165" stroke="#000" stroke-width="0.4"/>
  <line x1="262" y1="115" x2="276.4" y2="115" stroke="#000" stroke-width="0.2" stroke-dasharray="1,1"/>
  <line x1="262" y1="165" x2="276.4" y2="165" stroke="#000" stroke-width="0.2" stroke-dasharray="1,1"/>
  <polygon points="276.4,115 275.4,117 277.4,117" fill="#000"/>
  <polygon points="276.4,165 275.4,163 277.4,163" fill="#000"/>
  <text x="286.4" y="140.0" text-anchor="middle" font-size="8" font-weight="bold" fill="#000" transform="rotate(-90 286.4 140.0)">5.0'</text>
</g>
<g class="opening-dimension">
  <line x1="270" y1="196" x2="270" y2="214" stroke="#666" stroke-width="0.3"/>
  <line x1="262" y1="196" x2="270" y2="196" stroke="#666" stroke-width="0.2" stroke-dasharray="1,1"/>
  <line x1="262" y1="214" x2="270" y2="214" stroke="#666" stroke-width="0.2" stroke-dasharray="1,1"/>
  <polygon points="270,196 269.0,198 271.0,198" fill="#666"/>
  <polygon points="270,214 269.0,212 271.0,212" fill="#666"/>
  <text x="280" y="205.0" text-anchor="middle" font-size="8" fill="#666" transform="rotate(-90 280 205.0)">1.8'</text>
  <line x1="276.4" y1="214" x2="276.4" y2="234" stroke="#000" stroke-width="0.4"/>
  <line x1="262" y1="214" x2="276.4" y2="214" stroke="#000" stroke-width="0.2" stroke-dasharray="1,1"/>
  <line x1="262" y1="234" x2="276.4" y2="234" stroke="#000" stroke-width="0.2" stroke-dasharray="1,1"/>
  <polygon points="276.4,214 275.4,216 277.4,216" fill="#000"/>
  <polygon points="276.4,234 275.4,232 277.4,232" fill="#000"/>
  <text x="286.4" y="224.0" text-anchor="middle" font-size="8" font-weight="bold" fill="#000" transform="rotate(-90 286.4 224.0)">2.0'</text>
</g>
<g class="opening-dimension">
  <line x1="270" y1="196" x2="270" y2="254" stroke="#666" stroke-width="0.3"/>
  <line x1="262" y1="196" x2="270" y2="196" stroke="#666" stroke-width="0.2" stroke-dasharray="1,1"/>
  <line x1="262" y1="254" x2="270" y2="254" stroke="#666" stroke-width="0.2" stroke-dasharray="1,1"/>
  <polygon points="270,196 269.0,198 271.0,198" fill="#666"/>
  <polygon points="270,254 269.0,252 271.0,252" fill="#666"/>
  <text x="280" y="225.0" text-anchor="middle" font-size="8" fill="#666" transform="rotate(-90 280 225.0)">5.8'</text>
  <line x1="276.4" y1="254" x2="276.4" y2="274" stroke="#000" stroke-width="0.4"/>
  <line x1="262" y1="254" x2="276.4" y2="254" stroke="#000" stroke-width="0.2" stroke-dasharray="1,1"/>
  <line x1="262" y1="274" x2="276.4" y2="274" stroke="#000" stroke-width="0.2" stroke-dasharray="1,1"/>
  <polygon points="276.4,254 275.4,256 277.4,256" fill="#000"/>
  <polygon points="276.4,274 275.4,272 277.4,272" fill="#000"/>
  <text x="286.4" y="264.0" text-anchor="middle" font-size="8" font-weight="bold" fill="#000" transform="rotate(-90 286.4 264.0)">2.0'</text>
</g>
<g class="opening-dimension">
  <line x1="270" y1="290" x2="270" y2="310" stroke="#666" stroke-width="0.3"/>
  <line x1="262" y1="290" x2="270" y2="290" stroke="#666" stroke-width="0.2" stroke-dasharray="1,1"/>
  <line x1="262" y1="310" x2="270" y2="310" stroke="#666" stroke-width="0.2" stroke-dasharray="1,1"/>
  <polygon points="270,290 269.0,292 271.0,292" fill="#666"/>
  <polygon points="270,310 269.0,308 271.0,308" fill="#666"/>
  <text x="280" y="300.0" text-anchor="middle" font-size="8" fill="#666" transform="rotate(-90 280 300.0)">2.0'</text>
  <line x1="276.4" y1="310" x2="276.4" y2="360" stroke="#000" stroke-width="0.4"/>
  <line x1="262" y1="310" x2="276.4" y2="310" stroke="#000" stroke-width="0.2" stroke-dasharray="1,1"/>
  <line x1="262" y1="360" x2="276.4" y2="360" stroke="#000" stroke-width="0.2" stroke-dasharray="1,1"/>
  <polygon points="276.4,310 275.4,312 277.4,312" fill="#000"/>
  <polygon points="276.4,360 275.4,358 277.4,358" fill="#000"/>
  <text x="286.4" y="335.0" text-anchor="middle" font-size="8" font-weight="bold" fill="#000" transform="rotate(-90 286.4 335.0)">5.0'</text>
</g>
<g class="opening-dimension">
  <line x1="270" y1="290" x2="270" y2="375" stroke="#666" stroke-width="0.3"/>
  <line x1="262" y1="290" x2="270" y2="290" stroke="#666" stroke-width="0.2" stroke-dasharray="1,1"/>
  <line x1="262" y1="375" x2="270" y2="375" stroke="#666" stroke-width="0.2" stroke-dasharray="1,1"/>
  <polygon points="270,290 269.0,292 271.0,292" fill="#666"/>
  <polygon points="270,375 269.0,373 271.0,373" fill="#666"/>
  <text x="280" y="332.5" text-anchor="middle" font-size="8" fill="#666" transform="rotate(-90 280 332.5)">8.5'</text>
  <line x1="276.4" y1="375" x2="276.4" y2="425" stroke="#000" stroke-width="0.4"/>
  <line x1="262" y1="375" x2="276.4" y2="375" stroke="#000" stroke-width="0.2" stroke-dasharray="1,1"/>
  <line x1="262" y1="425" x2="276.4" y2="425" stroke="#000" stroke-width="0.2" stroke-dasharray="1,1"/>
  <polygon points="276.4,375 275.4,377 277.4,377" fill="#000"/>
  <polygon points="276.4,425 275.4,423 277.4,423" fill="#000"/>
  <text x="286.4" y="400.0" text-anchor="middle" font-size="8" font-weight="bold" fill="#000" transform="rotate(-90 286.4 400.0)">5.0'</text>
</g>
<g class="opening-dimension">
  <line x1="-8" y1="290" x2="-8" y2="310" stroke="#666" stroke-width="0.3"/>
  <line x1="0" y1="290" x2="-8" y2="290" stroke="#666" stroke-width="0.2" stroke-dasharray="1,1"/>
  <line x1="0" y1="310" x2="-8" y2="310" stroke="#666" stroke-width="0.2" stroke-dasharray="1,1"/>
  <polygon points="-8,290 -9.0,292 -7.0,292" fill="#666"/>
  <polygon points="-8,310 -9.0,308 -7.0,308" fill="#666"/>
  <text x="-18" y="300.0" text-anchor="middle" font-size="8" fill="#666" transform="rotate(-90 -18 300.0)">2.0'</text>
  <line x1="-14.4" y1="310" x2="-14.4" y2="360" stroke="#000" stroke-width="0.4"/>
  <line x1="0" y1="310" x2="-14.4" y2="310" stroke="#000" stroke-width="0.2" stroke-dasharray="1,1"/>
  <line x1="0" y1="360" x2="-14.4" y2="360" stroke="#000" stroke-width="0.2" stroke-dasharray="1,1"/>
  <polygon points="-14.4,310 -15.4,312 -13.4,312" fill="#000"/>
  <polygon points="-14.4,360 -15.4,358 -13.4,358" fill="#000"/>
  <text x="-24.4" y="335.0" text-anchor="middle" font-size="8" font-weight="bold" fill="#000" transform="rotate(-90 -24.4 335.0)">5.0'</text>
</g>
<g class="opening-dimension">
  <line x1="-8" y1="290" x2="-8" y2="375" stroke="#666" stroke-width="0.3"/>
  <line x1="0" y1="290" x2="-8" y2="290" stroke="#666" stroke-width="0.2" stroke-dasharray="1,1"/>
  <line x1="0" y1="375" x2="-8" y2="375" stroke="#666" stroke-width="0.2" stroke-dasharray="1,1"/>
  <polygon points="-8,290 -9.0,292 -7.0,292" fill="#666"/>
  <polygon points="-8,375 -9.0,373 -7.0,373" fill="#666"/>
  <text x="-18" y="332.5" text-anchor="middle" font-size="8" fill="#666" transform="rotate(-90 -18 332.5)">8.5'</text>
  <line x1="-14.4" y1="375" x2="-14.4" y2="425" stroke="#000" stroke-width="0.4"/>
  <line x1="0" y1="375" x2="-14.4" y2="375" stroke="#000" stroke-width="0.2" stroke-dasharray="1,1"/>
  <line x1="0" y1="425" x2="-14.4" y2="425" stroke="#000" stroke-width="0.2" stroke-dasharray="1,1"/>
  <polygon points="-14.4,375 -15.4,377 -13.4,377" fill="#000"/>
  <polygon points="-14.4,425 -15.4,423 -13.4,423" fill="#000"/>
  <text x="-24.4" y="400.0" text-anchor="middle" font-size="8" font-weight="bold" fill="#000" transform="rotate(-90 -24.4 400.0)">5.0'</text>
</g>
<g class="opening-dimension">
  <line x1="8" y1="450" x2="24" y2="450" stroke="#666" stroke-width="0.3"/>
  <line x1="8" y1="442" x2="8" y2="450" stroke="#666" stroke-width="0.2" stroke-dasharray="1,1"/>
  <line x1="24" y1="442" x2="24" y2="450" stroke="#666" stroke-width="0.2" stroke-dasharray="1,1"/>
  <polygon points="8,450 10,449.0 10,451.0" fill="#666"/>
  <polygon points="24,450 22,449.0 22,451.0" fill="#666"/>
  <text x="16.0" y="459" text-anchor="middle" font-size="8" fill="#666">1.6'</text>
  <line x1="24" y1="456.4" x2="84" y2="456.4" stroke="#000" stroke-width="0.4"/>
  <line x1="24" y1="442" x2="24" y2="456.4" stroke="#000" stroke-width="0.2" stroke-dasharray="1,1"/>
  <line x1="84" y1="442" x2="84" y2="456.4" stroke="#000" stroke-width="0.2" stroke-dasharray="1,1"/>
  <polygon points="24,456.4 26,455.4 26,457.4" fill="#000"/>
  <polygon points="84,456.4 82,455.4 82,457.4" fill="#000"/>
  <text x="54.0" y="465.4" text-anchor="middle" font-size="8" font-weight="bold" fill="#000">6.0'</text>
</g>
<g class="opening-dimension">
  <line x1="8" y1="450" x2="98.5" y2="450" stroke="#666" stroke-width="0.3"/>
  <line x1="8" y1="442" x2="8" y2="450" stroke="#666" stroke-width="0.2" stroke-dasharray="1,1"/>
  <line x1="98.5" y1="442" x2="98.5" y2="450" stroke="#666" stroke-width="0.2" stroke-dasharray="1,1"/>
  <polygon points="8,450 10,449.0 10,451.0" fill="#666"/>
  <polygon points="98.5,450 96.5,449.0 96.5,451.0" fill="#666"/>
  <text x="53.25" y="459" text-anchor="middle" font-size="8" fill="#666">9.1'</text>
  <line x1="98.5" y1="456.4" x2="173.5" y2="456.4" stroke="#000" stroke-width="0.4"/>
  <line x1="98.5" y1="442" x2="98.5" y2="456.4" stroke="#000" stroke-width="0.2" stroke-dasharray="1,1"/>
  <line x1="173.5" y1="442" x2="173.5" y2="456.4" stroke="#000" stroke-width="0.2" stroke-dasharray="1,1"/>
  <polygon points="98.5,456.4 100.5,455.4 100.5,457.4" fill="#000"/>
  <polygon points="173.5,456.4 171.5,455.4 171.5,457.4" fill="#000"/>
  <text x="136.0" y="465.4" text-anchor="middle" font-size="8" font-weight="bold" fill="#000">7.5'</text>
</g>
<g class="opening-dimension">
  <line x1="8" y1="450" x2="187.5" y2="450" stroke="#666" stroke-width="0.3"/>
  <line x1="8" y1="442" x2="8" y2="450" stroke="#666" stroke-width="0.2" stroke-dasharray="1,1"/>
  <line x1="187.5" y1="442" x2="187.5" y2="450" stroke="#666" stroke-width="0.2" stroke-dasharray="1,1"/>
  <polygon points="8,450 10,449.0 10,451.0" fill="#666"/>
  <polygon points="187.5,450 185.5,449.0 185.5,451.0" fill="#666"/>
  <text x="97.75" y="459" text-anchor="middle" font-size="8" fill="#666">17.9'</text>
  <line x1="187.5" y1="456.4" x2="247.5" y2="456.4" stroke="#000" stroke-width="0.4"/>
  <line x1="187.5" y1="442" x2="187.5" y2="456.4" stroke="#000" stroke-width="0.2" stroke-dasharray="1,1"/>
  <line x1="247.5" y1="442" x2="247.5" y2="456.4" stroke="#000" stroke-width="0.2" stroke-dasharray="1,1"/>
  <polygon points="187.5,456.4 189.5,455.4 189.5,457.4" fill="#000"/>
  <polygon points="247.5,456.4 245.5,455.4 245.5,457.4" fill="#000"/>
  <text x="217.5" y="465.4" text-anchor="middle" font-size="8" font-weight="bold" fill="#000">6.0'</text>
</g>
<g class="dimension">
  <line x1="0" y1="-30" x2="270" y2="-30" stroke="#000" stroke-width="0.5"/>
  <line x1="0" y1="0" x2="0" y2="-30" stroke="#000" stroke-width="0.3" stroke-dasharray="2,2"/>
  <line x1="270" y1="0" x2="270" y2="-30" stroke="#000" stroke-width="0.3" stroke-dasharray="2,2"/>
  <polygon points="0,-30 3,-33 3,-27" fill="#000"/>
  <polygon points="270,-30 267,-33 267,-27" fill="#000"/>
  <text x="135.0" y="-35" text-anchor="middle" font-size="10" fill="#000">27.0'</text>
</g>
<g class="dimension">
  <line x1="-30" y1="0" x2="-30" y2="88" stroke="#000" stroke-width="0.5"/>
  <line x1="0" y1="0" x2="-30" y2="0" stroke="#000" stroke-width="0.3" stroke-dasharray="2,2"/>
  <line x1="0" y1="88" x2="-30" y2="88" stroke="#000" stroke-width="0.3" stroke-dasharray="2,2"/>
  <polygon points="-30,0 -33,3 -27,3" fill="#000"/>
  <polygon points="-30,88 -33,85 -27,85" fill="#000"/>
  <text x="-43" y="44.0" text-anchor="middle" font-size="10" fill="#000" transform="rotate(-90 -43 44.0)">8.8'</text>
</g>
<g class="dimension">
  <line x1="-30" y1="80" x2="-30" y2="204" stroke="#000" stroke-width="0.5"/>
  <line x1="0" y1="80" x2="-30" y2="80" stroke="#000" stroke-width="0.3" stroke-dasharray="2,2"/>
  <line x1="0" y1="204" x2="-30" y2="204" stroke="#000" stroke-width="0.3" stroke-dasharray="2,2"/>
  <polygon points="-30,80 -33,83 -27,83" fill="#000"/>
  <polygon points="-30,204 -33,201 -27,201" fill="#000"/>
  <text x="-43" y="142.0" text-anchor="middle" font-size="10" fill="#000" transform="rotate(-90 -43 142.0)">12.4'</text>
</g>
<g class="dimension">
  <line x1="300" y1="0" x2="300" y2="88" stroke="#000" stroke-width="0.5"/>
  <line x1="270" y1="0" x2="300" y2="0" stroke="#000" stroke-width="0.3" stroke-dasharray="2,2"/>
  <line x1="270" y1="88" x2="300" y2="88" stroke="#000" stroke-width="0.3" stroke-dasharray="2,2"/>
  <polygon points="300,0 297,3 303,3" fill="#000"/>
  <polygon points="300,88 297,85 303,85" fill="#000"/>
  <text x="313" y="44.0" text-anchor="middle" font-size="10" fill="#000" transform="rotate(-90 313 44.0)">8.8'</text>
</g>
<g class="dimension">
  <line x1="300" y1="80" x2="300" y2="204" stroke="#000" stroke-width="0.5"/>
  <line x1="270" y1="80" x2="300" y2="80" stroke="#000" stroke-width="0.3" stroke-dasharray="2,2"/>
  <line x1="270" y1="204" x2="300" y2="204" stroke="#000" stroke-width="0.3" stroke-dasharray="2,2"/>
  <polygon points="300,80 297,83 303,83" fill="#000"/>
  <polygon points="300,204 297,201 303,201" fill="#000"/>
  <text x="313" y="142.0" text-anchor="middle" font-size="10" fill="#000" transform="rotate(-90 313 142.0)">12.4'</text>
</g>
<g class="dimension">
  <line x1="300" y1="196" x2="300" y2="290" stroke="#000" stroke-width="0.5"/>
  <line x1="270" y1="196" x2="300" y2="196" stroke="#000" stroke-width="0.3" stroke-dasharray="2,2"/>
  <line x1="270" y1="290" x2="300" y2="290" stroke="#000" stroke-width="0.3" stroke-dasharray="2,2"/>
  <polygon points="300,196 297,199 303,199" fill="#000"/>
  <polygon points="300,290 297,287 303,287" fill="#000"/>
  <text x="313" y="243.0" text-anchor="middle" font-size="10" fill="#000" transform="rotate(-90 313 243.0)">9.4'</text>
</g>
<g class="dimension">
  <line x1="0" y1="95" x2="124" y2="95" stroke="#000" stroke-width="0.5"/>
  <line x1="0" y1="80" x2="0" y2="95" stroke="#000" stroke-width="0.3" stroke-dasharray="2,2"/>
  <line x1="124" y1="80" x2="124" y2="95" stroke="#000" stroke-width="0.3" stroke-dasharray="2,2"/>
  <polygon points="0,95 3,92 3,98" fill="#000"/>
  <polygon points="124,95 121,92 121,98" fill="#000"/>
  <text x="62.0" y="108" text-anchor="middle" font-size="10" fill="#000">12.4'</text>
</g>
<g class="dimension">
  <line x1="0" y1="219" x2="124" y2="219" stroke="#000" stroke-width="0.5"/>
  <line x1="0" y1="204" x2="0" y2="219" stroke="#000" stroke-width="0.3" stroke-dasharray="2,2"/>
  <line x1="124" y1="204" x2="124" y2="219" stroke="#000" stroke-width="0.3" stroke-dasharray="2,2"/>
  <polygon points="0,219 3,216 3,222" fill="#000"/>
  <polygon points="124,219 121,216 121,222" fill="#000"/>
  <text x="62.0" y="232" text-anchor="middle" font-size="10" fill="#000">12.4'</text>
</g>
<g class="dimension">
  <line x1="116" y1="95" x2="270" y2="95" stroke="#000" stroke-width="0.5"/>
  <line x1="116" y1="80" x2="116" y2="95" stroke="#000" stroke-width="0.3" stroke-dasharray="2,2"/>
  <line x1="270" y1="80" x2="270" y2="95" stroke="#000" stroke-width="0.3" stroke-dasharray="2,2"/>
  <polygon points="116,95 119,92 119,98" fill="#000"/>
  <polygon points="270,95 267,92 267,98" fill="#000"/>
  <text x="193.0" y="108" text-anchor="middle" font-size="10" fill="#000">15.4'</text>
</g>
<g class="dimension">
  <line x1="116" y1="219" x2="270" y2="219" stroke="#000" stroke-width="0.5"/>
  <line x1="116" y1="204" x2="116" y2="219" stroke="#000" stroke-width="0.3" stroke-dasharray="2,2"/>
  <line x1="270" y1="204" x2="270" y2="219" stroke="#000" stroke-width="0.3" stroke-dasharray="2,2"/>
  <polygon points="116,219 119,216 119,222" fill="#000"/>
  <polygon points="270,219 267,216 267,222" fill="#000"/>
  <text x="193.0" y="232" text-anchor="middle" font-size="10" fill="#000">15.4'</text>
</g>
<g class="dimension">
  <line x1="176" y1="305" x2="270" y2="305" stroke="#000" stroke-width="0.5"/>
  <line x1="176" y1="290" x2="176" y2="305" stroke="#000" stroke-width="0.3" stroke-dasharray="2,2"/>
  <line x1="270" y1="290" x2="270" y2="305" stroke="#000" stroke-width="0.3" stroke-dasharray="2,2"/>
  <polygon points="176,305 179,302 179,308" fill="#000"/>
  <polygon points="270,305 267,302 267,308" fill="#000"/>
  <text x="223.0" y="318" text-anchor="middle" font-size="10" fill="#000">9.4'</text>
</g>
<g class="dimension">
  <line x1="8" y1="461" x2="262" y2="461" stroke="#000" stroke-width="0.5"/>
  <line x1="8" y1="446" x2="8" y2="461" stroke="#000" stroke-width="0.3" stroke-dasharray="2,2"/>
  <line x1="262" y1="446" x2="262" y2="461" stroke="#000" stroke-width="0.3" stroke-dasharray="2,2"/>
  <polygon points="8,461 11,458 11,464" fill="#000"/>
  <polygon points="262,461 259,458 259,464" fill="#000"/>
  <text x="135.0" y="474" text-anchor="middle" font-size="10" fill="#000">25.4'</text>
</g>
<g class="dimension">
  <line x1="139" y1="80" x2="139" y2="204" stroke="#000" stroke-width="0.5"/>
  <line x1="124" y1="80" x2="139" y2="80" stroke="#000" stroke-width="0.3" stroke-dasharray="2,2"/>
  <line x1="124" y1="204" x2="139" y2="204" stroke="#000" stroke-width="0.3" stroke-dasharray="2,2"/>
  <polygon points="139,80 136,83 142,83" fill="#000"/>
  <polygon points="139,204 136,201 142,201" fill="#000"/>
  <text x="152" y="142.0" text-anchor="middle" font-size="10" fill="#000" transform="rotate(-90 152 142.0)">12.4'</text>
</g>
<g class="dimension">
  <line x1="191" y1="196" x2="191" y2="290" stroke="#000" stroke-width="0.5"/>
  <line x1="176" y1="196" x2="191" y2="196" stroke="#000" stroke-width="0.3" stroke-dasharray="2,2"/>
  <line x1="176" y1="290" x2="191" y2="290" stroke="#000" stroke-width="0.3" stroke-dasharray="2,2"/>
  <polygon points="191,196 188,199 194,199" fill="#000"/>
  <polygon points="191,290 188,287 194,287" fill="#000"/>
  <text x="204" y="243.0" text-anchor="middle" font-size="10" fill="#000" transform="rotate(-90 204 243.0)">9.4'</text>
</g>
<g class="dimension">
  <line x1="19" y1="200" x2="19" y2="290" stroke="#000" stroke-width="0.5"/>
  <line x1="4" y1="200" x2="19" y2="200" stroke="#000" stroke-width="0.3" stroke-dasharray="2,2"/>
  <line x1="4" y1="290" x2="19" y2="290" stroke="#000" stroke-width="0.3" stroke-dasharray="2,2"/>
  <polygon points="19,200 16,203 22,203" fill="#000"/>
  <polygon points="19,290 16,287 22,287" fill="#000"/>
  <text x="32" y="245.0" text-anchor="middle" font-size="10" fill="#000" transform="rotate(-90 32 245.0)">9.0'</text>
</g>
<g class="dimension">
  <line x1="281" y1="290" x2="281" y2="450" stroke="#000" stroke-width="0.5"/>
  <line x1="266" y1="290" x2="281" y2="290" stroke="#000" stroke-width="0.3" stroke-dasharray="2,2"/>
  <line x1="266" y1="450" x2="281" y2="450" stroke="#000" stroke-width="0.3" stroke-dasharray="2,2"/>
  <polygon points="281,290 278,293 284,293" fill="#000"/>
  <polygon points="281,450 278,447 284,447" fill="#000"/>
  <text x="294" y="370.0" text-anchor="middle" font-size="10" fill="#000" transform="rotate(-90 294 370.0)">16.0'</text>
</g>
<g class="dimension">
  <line x1="19" y1="290" x2="19" y2="450" stroke="#000" stroke-width="0.5"/>
  <line x1="4" y1="290" x2="19" y2="290" stroke="#000" stroke-width="0.3" stroke-dasharray="2,2"/>
  <line x1="4" y1="450" x2="19" y2="450" stroke="#000" stroke-width="0.3" stroke-dasharray="2,2"/>
  <polygon points="19,290 16,293 22,293" fill="#000"/>
  <polygon points="19,450 16,447 22,447" fill="#000"/>
  <text x="32" y="370.0" text-anchor="middle" font-size="10" fill="#000" transform="rotate(-90 32 370.0)">16.0'</text>
</g>
<text x="135.0" y="36.0" text-anchor="middle" font-size="12" font-weight="bold" fill="#333">Upper_Verandah</text>
<text x="135.0" y="52.0" text-anchor="middle" font-size="10" fill="#666">25.4' × 8.0'</text>
<text x="62.0" y="134.0" text-anchor="middle" font-size="12" font-weight="bold" fill="#333">Bedroom_2</text>
<text x="62.0" y="150.0" text-anchor="middle" font-size="10" fill="#666">10.8' × 10.8'</text>
<text x="193.0" y="134.0" text-anchor="middle" font-size="12" font-weight="bold" fill="#333">Bedroom_3</text>
<text x="193.0" y="150.0" text-anchor="middle" font-size="10" fill="#666">14.6' × 10.8'</text>
<text x="223.0" y="235.0" text-anchor="middle" font-size="12" font-weight="bold" fill="#333">Bathroom_2</text>
<text x="223.0" y="251.0" text-anchor="middle" font-size="10" fill="#666">7.8' × 8.6'</text>
</g>
<text x="390.0" y="30" text-anchor="middle" font-size="16" font-weight="bold">First Floor</text>
</svg>