<?xml version="1.0" encoding="UTF-8"?>
<svg xmlns="http://www.w3.org/2000/svg" width="1180.0" height="1110.0" viewBox="0 0 1180.0 1110.0">
<title>Roof Floor - Floor Plan</title>
<defs>
    <style>
        text { font-family: Arial, sans-serif; }
    </style>
</defs>
<g transform="translate(320.0, 190.0) scale(2.0, 2.0)">

<rect x="0" y="80" width="270" height="8" fill="#8B4513" stroke="#654321" stroke-width="1" opacity="0.8"/>
<rect x="0" y="292" width="270" height="8" fill="#8B4513" stroke="#654321" stroke-width="1" opacity="0.8"/>
<rect x="0" y="88" width="8" height="204" fill="#8B4513" stroke="#654321" stroke-width="1" opacity="0.8"/>
<rect x="262" y="88" width="8" height="204" fill="#8B4513" stroke="#654321" stroke-width="1" opacity="0.8"/>
<polygon points="0.0,80.0 0.0,196.0 8.0,196.0 8.0,80.0" fill="#8B4513" stroke="#000" stroke-width="0.5"/>
<polygon points="0.0,204.0 0.0,300.0 8.0,300.0 8.0,204.0" fill="#8B4513" stroke="#000" stroke-width="0.5"/>
<polygon points="262.0,80.0 262.0,196.0 270.0,196.0 270.0,80.0" fill="#8B4513" stroke="#000" stroke-width="0.5"/>
<polygon points="262.0,204.0 262.0,300.0 270.0,300.0 270.0,204.0" fill="#8B4513" stroke="#000" stroke-width="0.5"/>
<g class="dimension">
  <line x1="0" y1="0.0" x2="270" y2="0.0" stroke="#000" stroke-width="0.5"/>
  <line x1="0" y1="80" x2="0" y2="0.0" stroke="#000" stroke-width="0.3" stroke-dasharray="2,2"/>
  <line x1="270" y1="80" x2="270" y2="0.0" stroke="#000" stroke-width="0.3" stroke-dasharray="2,2"/>
  <polygon points="0,0.0 3,-3.0 3,3.0" fill="#000"/>
  <polygon points="270,0.0 267,-3.0 267,3.0" fill="#000"/>
  <text x="135.0" y="-5.0" text-anchor="middle" font-size="10" fill="#000">27'</text>
</g>
<g class="dimension">
  <line x1="0" y1="380.0" x2="270" y2="380.0" stroke="#000" stroke-width="0.5"/>
  <line x1="0" y1="300" x2="0" y2="380.0" stroke="#000" stroke-width="0.3" stroke-dasharray="2,2"/>
  <line x1="270" y1="300" x2="270" y2="380.0" stroke="#000" stroke-width="0.3" stroke-dasharray="2,2"/>
  <polygon points="0,380.0 3,377.0 3,383.0" fill="#000"/>
  <polygon points="270,380.0 267,377.0 267,383.0" fill="#000"/>
  <text x="135.0" y="393.0" text-anchor="middle" font-size="10" fill="#000">27'</text>
</g>
<g class="dimension">
  <line x1="-80.0" y1="80" x2="-80.0" y2="300" stroke="#000" stroke-width="0.5"/>
  <line x1="0" y1="80" x2="-80.0" y2="80" stroke="#000" stroke-width="0.3" stroke-dasharray="2,2"/>
  <line x1="0" y1="300" x2="-80.0" y2="300" stroke="#000" stroke-width="0.3" stroke-dasharray="2,2"/>
  <polygon points="-80.0,80 -83.0,83 -77.0,83" fill="#000"/>
  <polygon points="-80.0,300 -83.0,297 -77.0,297" fill="#000"/>
  <text x="-93.0" y="190.0" text-anchor="middle" font-size="10" fill="#000" transform="rotate(-90 -93.0 190.0)">22'</text>
</g>
<g class="dimension">
  <line x1="350.0" y1="80" x2="350.0" y2="300" stroke="#000" stroke-width="0.5"/>
  <line x1="270" y1="80" x2="350.0" y2="80" stroke="#000" stroke-width="0.3" stroke-dasharray="2,2"/>
  <line x1="270" y1="300" x2="350.0" y2="300" stroke="#000" stroke-width="0.3" stroke-dasharray="2,2"/>
  <polygon points="350.0,80 347.0,83 353.0,83" fill="#000"/>
  <polygon points="350.0,300 347.0,297 353.0,297" fill="#000"/>
  <text x="363.0" y="190.0" text-anchor="middle" font-size="10" fill="#000" transform="rotate(-90 363.0 190.0)">22'</text>
</g>
<g class="dimension">
  <line x1="19" y1="88" x2="19" y2="188" stroke="#000" stroke-width="0.5"/>
  <line x1="4" y1="88" x2="19" y2="88" stroke="#000" stroke-width="0.3" stroke-dasharray="2,2"/>
  <line x1="4" y1="188" x2="19" y2="188" stroke="#000" stroke-width="0.3" stroke-dasharray="2,2"/>
  <polygon points="19,88 16,91 22,91" fill="#000"/>
  <polygon points="19,188 16,185 22,185" fill="#000"/>
  <text x="32" y="138.0" text-anchor="middle" font-size="10" fill="#000" transform="rotate(-90 32 138.0)">10'</text>
</g>
<g class="dimension">
  <line x1="19" y1="212" x2="19" y2="292" stroke="#000" stroke-width="0.5"/>
  <line x1="4" y1="212" x2="19" y2="212" stroke="#000" stroke-width="0.3" stroke-dasharray="2,2"/>
  <line x1="4" y1="292" x2="19" y2="292" stroke="#000" stroke-width="0.3" stroke-dasharray="2,2"/>
  <polygon points="19,212 16,215 22,215" fill="#000"/>
  <polygon points="19,292 16,289 22,289" fill="#000"/>
  <text x="32" y="252.0" text-anchor="middle" font-size="10" fill="#000" transform="rotate(-90 32 252.0)">8'</text>
</g>
<g class="dimension">
  <line x1="281" y1="88" x2="281" y2="188" stroke="#000" stroke-width="0.5"/>
  <line x1="266" y1="88" x2="281" y2="88" stroke="#000" stroke-width="0.3" stroke-dasharray="2,2"/>
  <line x1="266" y1="188" x2="281" y2="188" stroke="#000" stroke-width="0.3" stroke-dasharray="2,2"/>
  <polygon points="281,88 278,91 284,91" fill="#000"/>
  <polygon points="281,188 278,185 284,185" fill="#000"/>
  <text x="294" y="138.0" text-anchor="middle" font-size="10" fill="#000" transform="rotate(-90 294 138.0)">10'</text>
</g>
<g class="dimension">
  <line x1="281" y1="212" x2="281" y2="292" stroke="#000" stroke-width="0.5"/>
  <line x1="266" y1="212" x2="281" y2="212" stroke="#000" stroke-width="0.3" stroke-dasharray="2,2"/>
  <line x1="266" y1="292" x2="281" y2="292" stroke="#000" stroke-width="0.3" stroke-dasharray="2,2"/>
  <polygon points="281,212 278,215 284,215" fill="#000"/>
  <polygon points="281,292 278,289 284,289" fill="#000"/>
  <text x="294" y="252.0" text-anchor="middle" font-size="10" fill="#000" transform="rotate(-90 294 252.0)">8'</text>
</g>
</g>
<text x="590.0" y="30" text-anchor="middle" font-size="16" font-weight="bold">Roof Floor</text>
</svg>