<?xml version="1.0" encoding="UTF-8"?>
<svg xmlns="http://www.w3.org/2000/svg" width="860.0" height="702.0" viewBox="0 0 860.0 702.0">
<title>Back Elevation - Pillars &amp; Slabs</title>
<defs>
  <style>text { font-family: Arial, sans-serif; }</style>
  <pattern id="slab_hatch" patternUnits="userSpaceOnUse" width="3" height="3" patternTransform="rotate(45)">
    <line x1="0" y1="0" x2="0" y2="3" stroke="#555" stroke-width="0.6"/>
  </pattern>
</defs>
<text x="430.0" y="65" text-anchor="middle" font-size="20" font-weight="bold">Back Elevation - Pillars &amp; Slabs</text>
<g class="key-plan">
<rect x="724.0" y="16" width="120" height="120" fill="#fff" stroke="#000" stroke-width="0.7"/>
<text x="728.0" y="26" font-size="7" font-weight="bold" fill="#000">KEY PLAN</text>
<rect x="752.8" y="24.0" width="62.4" height="104.0" fill="none" stroke="#000" stroke-width="0.6"/>
<rect x="752.8" y="23.76888888888889" width="2.311111111111111" height="2.311111111111111" fill="#888" stroke="none"/>
<rect x="775.911111111111" y="23.76888888888889" width="2.311111111111111" height="2.311111111111111" fill="#888" stroke="none"/>
<rect x="789.7777777777777" y="23.76888888888889" width="2.311111111111111" height="2.311111111111111" fill="#888" stroke="none"/>
<rect x="812.8888888888888" y="23.76888888888889" width="2.311111111111111" height="2.311111111111111" fill="#888" stroke="none"/>
<rect x="752.8" y="43.00311111111111" width="1.8488888888888888" height="1.8488888888888888" fill="#888" stroke="none"/>
<rect x="779.6088888888888" y="43.00311111111111" width="1.8488888888888888" height="1.8488888888888888" fill="#888" stroke="none"/>
<rect x="813.351111111111" y="43.00311111111111" width="1.8488888888888888" height="1.8488888888888888" fill="#888" stroke="none"/>
<rect x="752.7884444444444" y="68.77777777777779" width="2.888888888888889" height="2.888888888888889" fill="#888" stroke="none"/>
<rect x="779.6088888888888" y="68.72" width="1.8488888888888888" height="1.8488888888888888" fill="#888" stroke="none"/>
<rect x="812.3226666666666" y="68.77777777777779" width="2.888888888888889" height="2.888888888888889" fill="#888" stroke="none"/>
<rect x="752.8" y="91.48444444444443" width="1.8488888888888888" height="1.8488888888888888" fill="#888" stroke="none"/>
<rect x="762.0444444444444" y="91.48444444444443" width="1.8488888888888888" height="1.8488888888888888" fill="#888" stroke="none"/>
<rect x="792.9555555555555" y="90.96444444444444" width="2.888888888888889" height="2.888888888888889" fill="#888" stroke="none"/>
<rect x="813.351111111111" y="91.48444444444443" width="1.8488888888888888" height="1.8488888888888888" fill="#888" stroke="none"/>
<rect x="752.8" y="125.57333333333332" width="1.8488888888888888" height="1.8488888888888888" fill="#c00" stroke="none"/>
<rect x="773.2533333333333" y="125.92" width="2.311111111111111" height="2.311111111111111" fill="#c00" stroke="none"/>
<rect x="792.8977777777777" y="125.92" width="2.311111111111111" height="2.311111111111111" fill="#c00" stroke="none"/>
<rect x="813.351111111111" y="125.57333333333332" width="1.8488888888888888" height="1.8488888888888888" fill="#c00" stroke="none"/>
<line x1="748.8" y1="126.78666666666666" x2="819.1999999999999" y2="126.78666666666666" stroke="#c00" stroke-width="0.8" stroke-dasharray="3,1.5"/>
<polygon points="750.8,122.78666666666666 748.8,124.28666666666666 752.8,124.28666666666666" fill="#c00"/>
<polygon points="817.1999999999999,122.78666666666666 815.1999999999999,124.28666666666666 819.1999999999999,124.28666666666666" fill="#c00"/>
<text x="784.0" y="23.0" font-size="6" text-anchor="middle" fill="#000">N</text>
</g>
<g transform="translate(160, 90) scale(2.0)">
<line x1="0" y1="251" x2="270" y2="251" stroke="#666" stroke-width="2" stroke-dasharray="5,5"/>
<rect x="0" y="221" width="270" height="30" fill="#A0826D" stroke="#000" stroke-width="0.5"/>
<rect x="0" y="213" width="270" height="8" fill="#808080" stroke="#000" stroke-width="0.5"/>
<rect x="0.0" y="20" width="8" height="193" fill="none" stroke="#000" stroke-width="0.6"/>
<rect x="262.0" y="20" width="8" height="193" fill="none" stroke="#000" stroke-width="0.6"/>
<rect x="88.5" y="20" width="10" height="193" fill="none" stroke="#000" stroke-width="0.6"/>
<rect x="173.5" y="20" width="10" height="193" fill="none" stroke="#000" stroke-width="0.6"/>
<rect x="0" y="105.0" width="270" height="8" fill="url(#slab_hatch)" stroke="#000" stroke-width="0.6"/>
<rect x="40" y="105.0" width="230" height="8" fill="url(#slab_hatch)" stroke="#000" stroke-width="0.6"/>
<text x="4.0" y="62.5" text-anchor="middle" font-size="4.0" fill="#000" transform="rotate(-90 4.0 62.5)">8' 6"</text>
<text x="266.0" y="62.5" text-anchor="middle" font-size="4.0" fill="#000" transform="rotate(-90 266.0 62.5)">8' 6"</text>
<text x="93.5" y="62.5" text-anchor="middle" font-size="4.0" fill="#000" transform="rotate(-90 93.5 62.5)">8' 6"</text>
<text x="178.5" y="62.5" text-anchor="middle" font-size="4.0" fill="#000" transform="rotate(-90 178.5 62.5)">8' 6"</text>
<text x="4.0" y="257" text-anchor="end" font-size="3.5" fill="#000" transform="rotate(-90 4.0 257)">Rear Corner Pillar 1</text>
<text x="266.0" y="257" text-anchor="end" font-size="3.5" fill="#000" transform="rotate(-90 266.0 257)">Rear Corner Pillar 2</text>
<text x="93.5" y="257" text-anchor="end" font-size="3.5" fill="#000" transform="rotate(-90 93.5 257)">Rear Entrance Pillar 1</text>
<text x="178.5" y="257" text-anchor="end" font-size="3.5" fill="#000" transform="rotate(-90 178.5 257)">Rear Entrance Pillar 2</text>
<line x1="0" y1="251" x2="-8" y2="251" stroke="#000" stroke-width="0.3" stroke-dasharray="2,2"/>
<line x1="0" y1="221" x2="-8" y2="221" stroke="#000" stroke-width="0.3" stroke-dasharray="2,2"/>
<line x1="-8" y1="251" x2="-8" y2="221" stroke="#000" stroke-width="0.5"/>
<polygon points="-8,251 -9.5,249.5 -6.5,249.5" fill="#000"/>
<polygon points="-8,221 -9.5,222.5 -6.5,222.5" fill="#000"/>
<text x="-12" y="236.0" text-anchor="middle" font-size="4" fill="#000" transform="rotate(-90 -12 236.0)">3'</text>
<line x1="0" y1="221" x2="-8" y2="221" stroke="#000" stroke-width="0.3" stroke-dasharray="2,2"/>
<line x1="0" y1="213" x2="-8" y2="213" stroke="#000" stroke-width="0.3" stroke-dasharray="2,2"/>
<line x1="-8" y1="221" x2="-8" y2="213" stroke="#000" stroke-width="0.5"/>
<polygon points="-8,221 -9.5,219.5 -6.5,219.5" fill="#000"/>
<polygon points="-8,213 -9.5,214.5 -6.5,214.5" fill="#000"/>
<text x="-12" y="217.0" text-anchor="middle" font-size="4" fill="#000" transform="rotate(-90 -12 217.0)">10"</text>
<line x1="0" y1="213" x2="-8" y2="213" stroke="#000" stroke-width="0.3" stroke-dasharray="2,2"/>
<line x1="0" y1="113.0" x2="-8" y2="113.0" stroke="#000" stroke-width="0.3" stroke-dasharray="2,2"/>
<line x1="-8" y1="213" x2="-8" y2="113.0" stroke="#000" stroke-width="0.5"/>
<polygon points="-8,213 -9.5,211.5 -6.5,211.5" fill="#000"/>
<polygon points="-8,113.0 -9.5,114.5 -6.5,114.5" fill="#000"/>
<text x="-12" y="163.0" text-anchor="middle" font-size="4" fill="#000" transform="rotate(-90 -12 163.0)">10'</text>
<line x1="0" y1="113.0" x2="-8" y2="113.0" stroke="#000" stroke-width="0.3" stroke-dasharray="2,2"/>
<line x1="0" y1="105.0" x2="-8" y2="105.0" stroke="#000" stroke-width="0.3" stroke-dasharray="2,2"/>
<line x1="-8" y1="113.0" x2="-8" y2="105.0" stroke="#000" stroke-width="0.5"/>
<polygon points="-8,113.0 -9.5,111.5 -6.5,111.5" fill="#000"/>
<polygon points="-8,105.0 -9.5,106.5 -6.5,106.5" fill="#000"/>
<text x="-12" y="109.0" text-anchor="middle" font-size="4" fill="#000" transform="rotate(-90 -12 109.0)">10"</text>
</g>
</svg>
