<?xml version="1.0" encoding="UTF-8"?>
<svg xmlns="http://www.w3.org/2000/svg" width="850" height="298.0" viewBox="904 1194 850 298.0">
<title>Section A-A — long axis cross-section</title>
<defs>
  <marker id="arr" viewBox="0 0 10 10" refX="5" refY="5" markerWidth="6" markerHeight="6" orient="auto-start-reverse">
    <path d="M0,0 L10,5 L0,10 z" fill="#0066cc"/>
  </marker>
  <style>text { font-family: -apple-system, Arial, sans-serif; }</style>
</defs>
<rect x="0" y="0" width="100%" height="100%" fill="#fafafa"/>
<rect x="904" y="1194" width="850" height="298.0" fill="#ffffff" stroke="#bbb" stroke-width="1"/>
<rect x="904" y="1194" width="850" height="36" fill="#f2f2f2" stroke="#bbb" stroke-width="1"/>
<text x="1329.0" y="1218" text-anchor="middle" font-size="16" font-weight="600" fill="#222">SECTION A–A : TRANSVERSE (perpendicular to ridge) — TRUSS PROFILE</text>
<path d="M 1065.8 1392.0 L 1592.2 1392.0 L 1329.0 1255.5 Z" fill="none" stroke="#8B4513" stroke-width="1.2" stroke-dasharray="6,4" opacity="0.55"/>
<line x1="1065.75" y1="1392.0" x2="1029.75" y2="1392.0" stroke="#0066cc" stroke-width="0.5" stroke-dasharray="3,3"/>
<line x1="1329.0" y1="1255.5" x2="1029.75" y2="1255.5" stroke="#0066cc" stroke-width="0.5" stroke-dasharray="3,3"/>
<line x1="1035.75" y1="1392.0" x2="1035.75" y2="1255.5" stroke="#0066cc" stroke-width="1" marker-start="url(#arr)" marker-end="url(#arr)"/>
<text x="1029.75" y="1323.75" text-anchor="end" font-size="11" fill="#0066cc">h = 9'</text>
<line x1="1065.75" y1="1392.0" x2="1065.75" y2="1430.0" stroke="#0066cc" stroke-width="0.5"/>
<line x1="1592.25" y1="1392.0" x2="1592.25" y2="1430.0" stroke="#0066cc" stroke-width="0.5"/>
<line x1="1065.75" y1="1424.0" x2="1592.25" y2="1424.0" stroke="#0066cc" stroke-width="1" marker-start="url(#arr)" marker-end="url(#arr)"/>
<text x="1329.0" y="1419.0" text-anchor="middle" font-size="11" fill="#0066cc">34' 10"</text>
<text x="1073.75" y="1386.0" text-anchor="start" font-size="11" fill="#333">27.4°</text>
<text x="1584.25" y="1386.0" text-anchor="end" font-size="11" fill="#333">27.4°</text>
<text x="1329.0" y="1270.5" text-anchor="middle" font-size="11" fill="#333">125.2°</text>
<text x="1742" y="1248" text-anchor="end" font-size="12" font-weight="600" fill="#8B4513">PITCH: 27.4°</text>
<line x1="1065.8" y1="1392.0" x2="1325.2" y2="1255.5" stroke="#8B4513" stroke-width="2.8" stroke-linecap="round"/>
<line x1="1592.2" y1="1392.0" x2="1332.8" y2="1255.5" stroke="#8B4513" stroke-width="2.8" stroke-linecap="round"/>
<g transform="translate(1079.2,1384.9) rotate(-27.4)"><rect x="-1.5" y="-2.0" width="3.0" height="2.0" fill="#a8c9e0" stroke="#4a8fbf" stroke-width="0.6"/></g>
<g transform="translate(1578.8,1384.9) rotate(27.4)"><rect x="-1.5" y="-2.0" width="3.0" height="2.0" fill="#a8c9e0" stroke="#4a8fbf" stroke-width="0.6"/></g>
<g transform="translate(1092.6,1377.9) rotate(-27.4)"><rect x="-1.5" y="-2.0" width="3.0" height="2.0" fill="#a8c9e0" stroke="#4a8fbf" stroke-width="0.6"/></g>
<g transform="translate(1565.4,1377.9) rotate(27.4)"><rect x="-1.5" y="-2.0" width="3.0" height="2.0" fill="#a8c9e0" stroke="#4a8fbf" stroke-width="0.6"/></g>
<g transform="translate(1106.0,1370.8) rotate(-27.4)"><rect x="-1.5" y="-2.0" width="3.0" height="2.0" fill="#a8c9e0" stroke="#4a8fbf" stroke-width="0.6"/></g>
<g transform="translate(1552.0,1370.8) rotate(27.4)"><rect x="-1.5" y="-2.0" width="3.0" height="2.0" fill="#a8c9e0" stroke="#4a8fbf" stroke-width="0.6"/></g>
<g transform="translate(1119.4,1363.8) rotate(-27.4)"><rect x="-1.5" y="-2.0" width="3.0" height="2.0" fill="#a8c9e0" stroke="#4a8fbf" stroke-width="0.6"/></g>
<g transform="translate(1538.6,1363.8) rotate(27.4)"><rect x="-1.5" y="-2.0" width="3.0" height="2.0" fill="#a8c9e0" stroke="#4a8fbf" stroke-width="0.6"/></g>
<g transform="translate(1132.9,1356.7) rotate(-27.4)"><rect x="-1.5" y="-2.0" width="3.0" height="2.0" fill="#a8c9e0" stroke="#4a8fbf" stroke-width="0.6"/></g>
<g transform="translate(1525.1,1356.7) rotate(27.4)"><rect x="-1.5" y="-2.0" width="3.0" height="2.0" fill="#a8c9e0" stroke="#4a8fbf" stroke-width="0.6"/></g>
<g transform="translate(1146.3,1349.6) rotate(-27.4)"><rect x="-1.5" y="-2.0" width="3.0" height="2.0" fill="#a8c9e0" stroke="#4a8fbf" stroke-width="0.6"/></g>
<g transform="translate(1511.7,1349.6) rotate(27.4)"><rect x="-1.5" y="-2.0" width="3.0" height="2.0" fill="#a8c9e0" stroke="#4a8fbf" stroke-width="0.6"/></g>
<g transform="translate(1159.7,1342.6) rotate(-27.4)"><rect x="-1.5" y="-2.0" width="3.0" height="2.0" fill="#a8c9e0" stroke="#4a8fbf" stroke-width="0.6"/></g>
<g transform="translate(1498.3,1342.6) rotate(27.4)"><rect x="-1.5" y="-2.0" width="3.0" height="2.0" fill="#a8c9e0" stroke="#4a8fbf" stroke-width="0.6"/></g>
<g transform="translate(1173.1,1335.5) rotate(-27.4)"><rect x="-1.5" y="-2.0" width="3.0" height="2.0" fill="#a8c9e0" stroke="#4a8fbf" stroke-width="0.6"/></g>
<g transform="translate(1484.9,1335.5) rotate(27.4)"><rect x="-1.5" y="-2.0" width="3.0" height="2.0" fill="#a8c9e0" stroke="#4a8fbf" stroke-width="0.6"/></g>
<g transform="translate(1186.5,1328.5) rotate(-27.4)"><rect x="-1.5" y="-2.0" width="3.0" height="2.0" fill="#a8c9e0" stroke="#4a8fbf" stroke-width="0.6"/></g>
<g transform="translate(1471.5,1328.5) rotate(27.4)"><rect x="-1.5" y="-2.0" width="3.0" height="2.0" fill="#a8c9e0" stroke="#4a8fbf" stroke-width="0.6"/></g>
<g transform="translate(1200.0,1321.4) rotate(-27.4)"><rect x="-1.5" y="-2.0" width="3.0" height="2.0" fill="#a8c9e0" stroke="#4a8fbf" stroke-width="0.6"/></g>
<g transform="translate(1458.0,1321.4) rotate(27.4)"><rect x="-1.5" y="-2.0" width="3.0" height="2.0" fill="#a8c9e0" stroke="#4a8fbf" stroke-width="0.6"/></g>
<g transform="translate(1213.4,1314.3) rotate(-27.4)"><rect x="-1.5" y="-2.0" width="3.0" height="2.0" fill="#a8c9e0" stroke="#4a8fbf" stroke-width="0.6"/></g>
<g transform="translate(1444.6,1314.3) rotate(27.4)"><rect x="-1.5" y="-2.0" width="3.0" height="2.0" fill="#a8c9e0" stroke="#4a8fbf" stroke-width="0.6"/></g>
<g transform="translate(1226.8,1307.3) rotate(-27.4)"><rect x="-1.5" y="-2.0" width="3.0" height="2.0" fill="#a8c9e0" stroke="#4a8fbf" stroke-width="0.6"/></g>
<g transform="translate(1431.2,1307.3) rotate(27.4)"><rect x="-1.5" y="-2.0" width="3.0" height="2.0" fill="#a8c9e0" stroke="#4a8fbf" stroke-width="0.6"/></g>
<g transform="translate(1240.2,1300.2) rotate(-27.4)"><rect x="-1.5" y="-2.0" width="3.0" height="2.0" fill="#a8c9e0" stroke="#4a8fbf" stroke-width="0.6"/></g>
<g transform="translate(1417.8,1300.2) rotate(27.4)"><rect x="-1.5" y="-2.0" width="3.0" height="2.0" fill="#a8c9e0" stroke="#4a8fbf" stroke-width="0.6"/></g>
<g transform="translate(1253.6,1293.2) rotate(-27.4)"><rect x="-1.5" y="-2.0" width="3.0" height="2.0" fill="#a8c9e0" stroke="#4a8fbf" stroke-width="0.6"/></g>
<g transform="translate(1404.4,1293.2) rotate(27.4)"><rect x="-1.5" y="-2.0" width="3.0" height="2.0" fill="#a8c9e0" stroke="#4a8fbf" stroke-width="0.6"/></g>
<g transform="translate(1267.1,1286.1) rotate(-27.4)"><rect x="-1.5" y="-2.0" width="3.0" height="2.0" fill="#a8c9e0" stroke="#4a8fbf" stroke-width="0.6"/></g>
<g transform="translate(1390.9,1286.1) rotate(27.4)"><rect x="-1.5" y="-2.0" width="3.0" height="2.0" fill="#a8c9e0" stroke="#4a8fbf" stroke-width="0.6"/></g>
<g transform="translate(1280.5,1279.0) rotate(-27.4)"><rect x="-1.5" y="-2.0" width="3.0" height="2.0" fill="#a8c9e0" stroke="#4a8fbf" stroke-width="0.6"/></g>
<g transform="translate(1377.5,1279.0) rotate(27.4)"><rect x="-1.5" y="-2.0" width="3.0" height="2.0" fill="#a8c9e0" stroke="#4a8fbf" stroke-width="0.6"/></g>
<g transform="translate(1293.9,1272.0) rotate(-27.4)"><rect x="-1.5" y="-2.0" width="3.0" height="2.0" fill="#a8c9e0" stroke="#4a8fbf" stroke-width="0.6"/></g>
<g transform="translate(1364.1,1272.0) rotate(27.4)"><rect x="-1.5" y="-2.0" width="3.0" height="2.0" fill="#a8c9e0" stroke="#4a8fbf" stroke-width="0.6"/></g>
<g transform="translate(1307.3,1264.9) rotate(-27.4)"><rect x="-1.5" y="-2.0" width="3.0" height="2.0" fill="#a8c9e0" stroke="#4a8fbf" stroke-width="0.6"/></g>
<g transform="translate(1350.7,1264.9) rotate(27.4)"><rect x="-1.5" y="-2.0" width="3.0" height="2.0" fill="#a8c9e0" stroke="#4a8fbf" stroke-width="0.6"/></g>
<g transform="translate(1320.7,1257.9) rotate(-27.4)"><rect x="-1.5" y="-2.0" width="3.0" height="2.0" fill="#a8c9e0" stroke="#4a8fbf" stroke-width="0.6"/></g>
<g transform="translate(1337.3,1257.9) rotate(27.4)"><rect x="-1.5" y="-2.0" width="3.0" height="2.0" fill="#a8c9e0" stroke="#4a8fbf" stroke-width="0.6"/></g>
<line x1="1124.9" y1="1361.3" x2="1329.0" y2="1259.3" stroke="#8b0000" stroke-width="2.4"/>
<line x1="1329.0" y1="1259.3" x2="1533.1" y2="1361.3" stroke="#8b0000" stroke-width="2.4"/>
<line x1="1124.9" y1="1361.3" x2="1533.1" y2="1361.3" stroke="#8b0000" stroke-width="2.4"/>
<line x1="1329.0" y1="1259.3" x2="1329.0" y2="1361.3" stroke="#8b0000" stroke-width="1.4" opacity="0.9"/>
<line x1="1329.0" y1="1259.3" x2="1227.0" y2="1361.3" stroke="#8b0000" stroke-width="1.4" opacity="0.9"/>
<line x1="1329.0" y1="1259.3" x2="1431.0" y2="1361.3" stroke="#8b0000" stroke-width="1.4" opacity="0.9"/>
<line x1="1227.0" y1="1310.3" x2="1227.0" y2="1361.3" stroke="#8b0000" stroke-width="1.4" opacity="0.9"/>
<line x1="1431.0" y1="1310.3" x2="1431.0" y2="1361.3" stroke="#8b0000" stroke-width="1.4" opacity="0.9"/>
<circle cx="1124.9" cy="1361.3" r="2.0" fill="#8b0000"/>
<circle cx="1227.0" cy="1361.3" r="2.0" fill="#8b0000"/>
<circle cx="1329.0" cy="1361.3" r="2.0" fill="#8b0000"/>
<circle cx="1431.0" cy="1361.3" r="2.0" fill="#8b0000"/>
<circle cx="1533.1" cy="1361.3" r="2.0" fill="#8b0000"/>
<circle cx="1227.0" cy="1310.3" r="2.0" fill="#8b0000"/>
<circle cx="1329.0" cy="1259.3" r="2.0" fill="#8b0000"/>
<circle cx="1431.0" cy="1310.3" r="2.0" fill="#8b0000"/>
<rect x="1122.9" y="1359.3" width="4.0" height="4.0" fill="#1e5aa6" stroke="#1e5aa6"/>
<rect x="1531.1" y="1359.3" width="4.0" height="4.0" fill="#1e5aa6" stroke="#1e5aa6"/>
<rect x="1325.2" y="1255.5" width="7.6" height="4.0" fill="#a6764a" stroke="#5a3a17" stroke-width="1.4"/>
<text x="1338.8" y="1261.5" text-anchor="start" font-size="10" fill="#5a3a17" font-weight="600">Ridge beam 6"×3"</text>
<rect x="1119.9" y="1361.3" width="10.1" height="30.7" fill="#eeeeee" stroke="#666" stroke-width="0.9"/>
<rect x="1528.0" y="1361.3" width="10.1" height="30.7" fill="#eeeeee" stroke="#666" stroke-width="0.9"/>
<text x="1124.9" y="1404.0" text-anchor="middle" font-size="10" fill="#666" font-weight="600">Wall</text>
<text x="1533.1" y="1404.0" text-anchor="middle" font-size="10" fill="#666" font-weight="600">Wall</text>
<text x="1742.0" y="1262.0" text-anchor="end" font-size="11" fill="#8b0000">Fink × 3 — 27' × 6' 9" rise, bottom chord on ring beam</text>
<text x="1742.0" y="1276.0" text-anchor="end" font-size="11" fill="#1e5aa6">Ring beam at wall top (24" above eave)</text>
</svg>
