<?xml version="1.0" encoding="UTF-8"?>
<svg xmlns="http://www.w3.org/2000/svg" width="850" height="298.0" viewBox="904 1516.0 850 298.0">
<title>Section B-B — short axis cross-section</title>
<defs>
  <marker id="arr" viewBox="0 0 10 10" refX="5" refY="5" markerWidth="6" markerHeight="6" orient="auto-start-reverse">
    <path d="M0,0 L10,5 L0,10 z" fill="#0066cc"/>
  </marker>
  <style>text { font-family: -apple-system, Arial, sans-serif; }</style>
</defs>
<rect x="0" y="0" width="100%" height="100%" fill="#fafafa"/>
<rect x="904" y="1516.0" width="850" height="298.0" fill="#ffffff" stroke="#bbb" stroke-width="1"/>
<rect x="904" y="1516.0" width="850" height="36" fill="#f2f2f2" stroke="#bbb" stroke-width="1"/>
<text x="1329.0" y="1540.0" text-anchor="middle" font-size="16" font-weight="600" fill="#222">SECTION B–B : LONGITUDINAL (along ridge) — TRUSS LOCATIONS</text>
<path d="M 1040.2 1714.0 L 1617.8 1714.0 L 1397.0 1613.7 L 1163.9 1613.7 Z" fill="none" stroke="#8B4513" stroke-width="1.2" stroke-dasharray="6,4" opacity="0.55"/>
<line x1="1040.25" y1="1714.0" x2="1004.25" y2="1714.0" stroke="#0066cc" stroke-width="0.5" stroke-dasharray="3,3"/>
<line x1="1329.0" y1="1613.6522157593004" x2="1004.25" y2="1613.6522157593004" stroke="#0066cc" stroke-width="0.5" stroke-dasharray="3,3"/>
<line x1="1010.25" y1="1714.0" x2="1010.25" y2="1613.6522157593004" stroke="#0066cc" stroke-width="1" marker-start="url(#arr)" marker-end="url(#arr)"/>
<text x="1004.25" y="1663.8261078796502" text-anchor="end" font-size="11" fill="#0066cc">h = 9'</text>
<line x1="1040.25" y1="1714.0" x2="1040.25" y2="1752.0" stroke="#0066cc" stroke-width="0.5"/>
<line x1="1617.75" y1="1714.0" x2="1617.75" y2="1752.0" stroke="#0066cc" stroke-width="0.5"/>
<line x1="1040.25" y1="1746.0" x2="1617.75" y2="1746.0" stroke="#0066cc" stroke-width="1" marker-start="url(#arr)" marker-end="url(#arr)"/>
<text x="1329.0" y="1741.0" text-anchor="middle" font-size="11" fill="#0066cc">52'</text>
<line x1="1163.856967087919" y1="1613.6522157593004" x2="1163.856967087919" y2="1559.6522157593004" stroke="#0066cc" stroke-width="0.5" stroke-dasharray="3,3"/>
<line x1="1396.9848746704606" y1="1613.6522157593004" x2="1396.9848746704606" y2="1559.6522157593004" stroke="#0066cc" stroke-width="0.5" stroke-dasharray="3,3"/>
<line x1="1163.856967087919" y1="1565.6522157593004" x2="1396.9848746704606" y2="1565.6522157593004" stroke="#0066cc" stroke-width="1" marker-start="url(#arr)" marker-end="url(#arr)"/>
<text x="1329.0" y="1560.6522157593004" text-anchor="middle" font-size="11" fill="#0066cc">ridge = 21'</text>
<text x="1169.856967087919" y="1627.6522157593004" text-anchor="start" font-size="11" fill="#333">140.9°</text>
<text x="1390.9848746704606" y="1627.6522157593004" text-anchor="end" font-size="11" fill="#333">155.6°</text>
<text x="1742" y="1570.0" text-anchor="end" font-size="12" font-weight="600" fill="#8B4513">PITCH: N 39.1° / S 24.4°</text>
<line x1="1040.2" y1="1714.0" x2="1163.9" y2="1613.7" stroke="#8B4513" stroke-width="2.4" stroke-linecap="round"/>
<line x1="1617.8" y1="1714.0" x2="1397.0" y2="1613.7" stroke="#8B4513" stroke-width="2.4" stroke-linecap="round"/>
<g transform="translate(1048.9,1707.0) rotate(-39.1)"><rect x="-1.5" y="-2.0" width="3.0" height="2.0" fill="#a8c9e0" stroke="#4a8fbf" stroke-width="0.6"/></g>
<g transform="translate(1057.5,1700.0) rotate(-39.1)"><rect x="-1.5" y="-2.0" width="3.0" height="2.0" fill="#a8c9e0" stroke="#4a8fbf" stroke-width="0.6"/></g>
<g transform="translate(1066.1,1693.0) rotate(-39.1)"><rect x="-1.5" y="-2.0" width="3.0" height="2.0" fill="#a8c9e0" stroke="#4a8fbf" stroke-width="0.6"/></g>
<g transform="translate(1074.8,1686.0) rotate(-39.1)"><rect x="-1.5" y="-2.0" width="3.0" height="2.0" fill="#a8c9e0" stroke="#4a8fbf" stroke-width="0.6"/></g>
<g transform="translate(1083.4,1679.0) rotate(-39.1)"><rect x="-1.5" y="-2.0" width="3.0" height="2.0" fill="#a8c9e0" stroke="#4a8fbf" stroke-width="0.6"/></g>
<g transform="translate(1092.0,1672.0) rotate(-39.1)"><rect x="-1.5" y="-2.0" width="3.0" height="2.0" fill="#a8c9e0" stroke="#4a8fbf" stroke-width="0.6"/></g>
<g transform="translate(1100.6,1665.0) rotate(-39.1)"><rect x="-1.5" y="-2.0" width="3.0" height="2.0" fill="#a8c9e0" stroke="#4a8fbf" stroke-width="0.6"/></g>
<g transform="translate(1109.3,1658.0) rotate(-39.1)"><rect x="-1.5" y="-2.0" width="3.0" height="2.0" fill="#a8c9e0" stroke="#4a8fbf" stroke-width="0.6"/></g>
<g transform="translate(1117.9,1651.0) rotate(-39.1)"><rect x="-1.5" y="-2.0" width="3.0" height="2.0" fill="#a8c9e0" stroke="#4a8fbf" stroke-width="0.6"/></g>
<g transform="translate(1126.5,1644.0) rotate(-39.1)"><rect x="-1.5" y="-2.0" width="3.0" height="2.0" fill="#a8c9e0" stroke="#4a8fbf" stroke-width="0.6"/></g>
<g transform="translate(1135.2,1637.0) rotate(-39.1)"><rect x="-1.5" y="-2.0" width="3.0" height="2.0" fill="#a8c9e0" stroke="#4a8fbf" stroke-width="0.6"/></g>
<g transform="translate(1143.8,1629.9) rotate(-39.1)"><rect x="-1.5" y="-2.0" width="3.0" height="2.0" fill="#a8c9e0" stroke="#4a8fbf" stroke-width="0.6"/></g>
<g transform="translate(1152.4,1622.9) rotate(-39.1)"><rect x="-1.5" y="-2.0" width="3.0" height="2.0" fill="#a8c9e0" stroke="#4a8fbf" stroke-width="0.6"/></g>
<g transform="translate(1161.0,1615.9) rotate(-39.1)"><rect x="-1.5" y="-2.0" width="3.0" height="2.0" fill="#a8c9e0" stroke="#4a8fbf" stroke-width="0.6"/></g>
<g transform="translate(1607.6,1709.4) rotate(24.4)"><rect x="-1.5" y="-2.0" width="3.0" height="2.0" fill="#a8c9e0" stroke="#4a8fbf" stroke-width="0.6"/></g>
<g transform="translate(1597.5,1704.8) rotate(24.4)"><rect x="-1.5" y="-2.0" width="3.0" height="2.0" fill="#a8c9e0" stroke="#4a8fbf" stroke-width="0.6"/></g>
<g transform="translate(1587.4,1700.2) rotate(24.4)"><rect x="-1.5" y="-2.0" width="3.0" height="2.0" fill="#a8c9e0" stroke="#4a8fbf" stroke-width="0.6"/></g>
<g transform="translate(1577.3,1695.6) rotate(24.4)"><rect x="-1.5" y="-2.0" width="3.0" height="2.0" fill="#a8c9e0" stroke="#4a8fbf" stroke-width="0.6"/></g>
<g transform="translate(1567.2,1691.0) rotate(24.4)"><rect x="-1.5" y="-2.0" width="3.0" height="2.0" fill="#a8c9e0" stroke="#4a8fbf" stroke-width="0.6"/></g>
<g transform="translate(1557.0,1686.4) rotate(24.4)"><rect x="-1.5" y="-2.0" width="3.0" height="2.0" fill="#a8c9e0" stroke="#4a8fbf" stroke-width="0.6"/></g>
<g transform="translate(1546.9,1681.8) rotate(24.4)"><rect x="-1.5" y="-2.0" width="3.0" height="2.0" fill="#a8c9e0" stroke="#4a8fbf" stroke-width="0.6"/></g>
<g transform="translate(1536.8,1677.2) rotate(24.4)"><rect x="-1.5" y="-2.0" width="3.0" height="2.0" fill="#a8c9e0" stroke="#4a8fbf" stroke-width="0.6"/></g>
<g transform="translate(1526.7,1672.6) rotate(24.4)"><rect x="-1.5" y="-2.0" width="3.0" height="2.0" fill="#a8c9e0" stroke="#4a8fbf" stroke-width="0.6"/></g>
<g transform="translate(1516.6,1668.0) rotate(24.4)"><rect x="-1.5" y="-2.0" width="3.0" height="2.0" fill="#a8c9e0" stroke="#4a8fbf" stroke-width="0.6"/></g>
<g transform="translate(1506.5,1663.4) rotate(24.4)"><rect x="-1.5" y="-2.0" width="3.0" height="2.0" fill="#a8c9e0" stroke="#4a8fbf" stroke-width="0.6"/></g>
<g transform="translate(1496.3,1658.8) rotate(24.4)"><rect x="-1.5" y="-2.0" width="3.0" height="2.0" fill="#a8c9e0" stroke="#4a8fbf" stroke-width="0.6"/></g>
<g transform="translate(1486.2,1654.2) rotate(24.4)"><rect x="-1.5" y="-2.0" width="3.0" height="2.0" fill="#a8c9e0" stroke="#4a8fbf" stroke-width="0.6"/></g>
<g transform="translate(1476.1,1649.6) rotate(24.4)"><rect x="-1.5" y="-2.0" width="3.0" height="2.0" fill="#a8c9e0" stroke="#4a8fbf" stroke-width="0.6"/></g>
<g transform="translate(1466.0,1645.0) rotate(24.4)"><rect x="-1.5" y="-2.0" width="3.0" height="2.0" fill="#a8c9e0" stroke="#4a8fbf" stroke-width="0.6"/></g>
<g transform="translate(1455.9,1640.4) rotate(24.4)"><rect x="-1.5" y="-2.0" width="3.0" height="2.0" fill="#a8c9e0" stroke="#4a8fbf" stroke-width="0.6"/></g>
<g transform="translate(1445.8,1635.8) rotate(24.4)"><rect x="-1.5" y="-2.0" width="3.0" height="2.0" fill="#a8c9e0" stroke="#4a8fbf" stroke-width="0.6"/></g>
<g transform="translate(1435.6,1631.2) rotate(24.4)"><rect x="-1.5" y="-2.0" width="3.0" height="2.0" fill="#a8c9e0" stroke="#4a8fbf" stroke-width="0.6"/></g>
<g transform="translate(1425.5,1626.6) rotate(24.4)"><rect x="-1.5" y="-2.0" width="3.0" height="2.0" fill="#a8c9e0" stroke="#4a8fbf" stroke-width="0.6"/></g>
<g transform="translate(1415.4,1622.0) rotate(24.4)"><rect x="-1.5" y="-2.0" width="3.0" height="2.0" fill="#a8c9e0" stroke="#4a8fbf" stroke-width="0.6"/></g>
<g transform="translate(1405.3,1617.4) rotate(24.4)"><rect x="-1.5" y="-2.0" width="3.0" height="2.0" fill="#a8c9e0" stroke="#4a8fbf" stroke-width="0.6"/></g>
<rect x="1163.9" y="1613.7" width="233.1" height="2.8" fill="#a6764a" stroke="#5a3a17" stroke-width="1.4"/>
<text x="1171.9" y="1619.0" text-anchor="start" font-size="10" fill="#ffffff" font-weight="700">Ridge beam 6"×3"</text>
<line x1="1068.0" y1="1691.4" x2="1568.1" y2="1691.4" stroke="#1e5aa6" stroke-width="2.6" opacity="0.95"/>
<text x="1076.0" y="1687.4" text-anchor="start" font-size="10" fill="#1e5aa6" font-weight="600">Ring beam</text>
<line x1="1163.9" y1="1616.4" x2="1163.9" y2="1691.4" stroke="#8b0000" stroke-width="2.0" opacity="0.85"/>
<circle cx="1163.9" cy="1616.4" r="2.8" fill="#8b0000"/>
<circle cx="1163.9" cy="1691.4" r="2.8" fill="#8b0000"/>
<text x="1163.9" y="1607.7" text-anchor="middle" font-size="10" font-weight="700" fill="#8b0000">T1</text>
<line x1="1290.3" y1="1616.4" x2="1290.3" y2="1691.4" stroke="#8b0000" stroke-width="2.0" opacity="0.85"/>
<circle cx="1290.3" cy="1616.4" r="2.8" fill="#8b0000"/>
<circle cx="1290.3" cy="1691.4" r="2.8" fill="#8b0000"/>
<text x="1290.3" y="1607.7" text-anchor="middle" font-size="10" font-weight="700" fill="#8b0000">T2</text>
<line x1="1397.0" y1="1616.4" x2="1397.0" y2="1691.4" stroke="#8b0000" stroke-width="2.0" opacity="0.85"/>
<circle cx="1397.0" cy="1616.4" r="2.8" fill="#8b0000"/>
<circle cx="1397.0" cy="1691.4" r="2.8" fill="#8b0000"/>
<text x="1397.0" y="1607.7" text-anchor="middle" font-size="10" font-weight="700" fill="#8b0000">T3</text>
<line x1="1417.0" y1="1616.4" x2="1417.0" y2="1691.4" stroke="#0066cc" stroke-width="1" marker-start="url(#arr)" marker-end="url(#arr)"/>
<text x="1421.0" y="1657.9" text-anchor="start" font-size="10" fill="#0066cc">rise 6' 9"</text>
<line x1="1417.0" y1="1691.4" x2="1417.0" y2="1714.0" stroke="#0066cc" stroke-width="0.7" stroke-dasharray="3,2"/>
<text x="1421.0" y="1706.7" text-anchor="start" font-size="9" fill="#666">wall top 24"</text>
<line x1="1163.9" y1="1599.7" x2="1163.9" y2="1595.7" stroke="#0066cc" stroke-width="0.5" stroke-dasharray="2,2"/>
<line x1="1290.3" y1="1599.7" x2="1290.3" y2="1595.7" stroke="#0066cc" stroke-width="0.5" stroke-dasharray="2,2"/>
<line x1="1397.0" y1="1599.7" x2="1397.0" y2="1595.7" stroke="#0066cc" stroke-width="0.5" stroke-dasharray="2,2"/>
<line x1="1163.9" y1="1591.7" x2="1290.3" y2="1591.7" stroke="#0066cc" stroke-width="1" marker-start="url(#arr)" marker-end="url(#arr)"/>
<text x="1227.1" y="1587.7" text-anchor="middle" font-size="10" fill="#0066cc">11' 5"</text>
<line x1="1290.3" y1="1591.7" x2="1397.0" y2="1591.7" stroke="#0066cc" stroke-width="1" marker-start="url(#arr)" marker-end="url(#arr)"/>
<text x="1343.6" y="1587.7" text-anchor="middle" font-size="10" fill="#0066cc">9' 7"</text>
<rect x="1064.3" y="1691.4" width="7.4" height="22.6" fill="#eeeeee" stroke="#666" stroke-width="0.9"/>
<rect x="1564.4" y="1691.4" width="7.4" height="22.6" fill="#eeeeee" stroke="#666" stroke-width="0.9"/>
<text x="1068.0" y="1726.0" text-anchor="middle" font-size="10" fill="#666" font-weight="600">N wall</text>
<text x="1568.1" y="1726.0" text-anchor="middle" font-size="10" fill="#666" font-weight="600">S wall</text>
<text x="1048.25" y="1708.0" text-anchor="start" font-size="11" fill="#333">39.1°</text>
<text x="1609.75" y="1708.0" text-anchor="end" font-size="11" fill="#333">24.4°</text>
<line x1="1068.0" y1="1754.0" x2="1068.0" y2="1780.0" stroke="#0066cc" stroke-width="0.5" stroke-dasharray="2,2"/>
<line x1="1163.9" y1="1754.0" x2="1163.9" y2="1780.0" stroke="#0066cc" stroke-width="0.5" stroke-dasharray="2,2"/>
<line x1="1290.3" y1="1754.0" x2="1290.3" y2="1780.0" stroke="#0066cc" stroke-width="0.5" stroke-dasharray="2,2"/>
<line x1="1397.0" y1="1754.0" x2="1397.0" y2="1780.0" stroke="#0066cc" stroke-width="0.5" stroke-dasharray="2,2"/>
<line x1="1568.1" y1="1754.0" x2="1568.1" y2="1780.0" stroke="#0066cc" stroke-width="0.5" stroke-dasharray="2,2"/>
<line x1="1068.0" y1="1776.0" x2="1163.9" y2="1776.0" stroke="#0066cc" stroke-width="1" marker-start="url(#arr)" marker-end="url(#arr)"/>
<text x="1115.9" y="1772.0" text-anchor="middle" font-size="10" fill="#0066cc">8' 7"</text>
<line x1="1163.9" y1="1776.0" x2="1290.3" y2="1776.0" stroke="#0066cc" stroke-width="1" marker-start="url(#arr)" marker-end="url(#arr)"/>
<text x="1227.1" y="1772.0" text-anchor="middle" font-size="10" fill="#0066cc">11' 5"</text>
<line x1="1290.3" y1="1776.0" x2="1397.0" y2="1776.0" stroke="#0066cc" stroke-width="1" marker-start="url(#arr)" marker-end="url(#arr)"/>
<text x="1343.6" y="1772.0" text-anchor="middle" font-size="10" fill="#0066cc">9' 7"</text>
<line x1="1397.0" y1="1776.0" x2="1568.1" y2="1776.0" stroke="#0066cc" stroke-width="1" marker-start="url(#arr)" marker-end="url(#arr)"/>
<text x="1482.6" y="1772.0" text-anchor="middle" font-size="10" fill="#0066cc">15' 5"</text>
<text x="1068.0" y="1792.0" text-anchor="middle" font-size="10" fill="#0066cc">N wall</text>
<text x="1163.9" y="1792.0" text-anchor="middle" font-size="10" fill="#0066cc">T1</text>
<text x="1290.3" y="1792.0" text-anchor="middle" font-size="10" fill="#0066cc">T2</text>
<text x="1397.0" y="1792.0" text-anchor="middle" font-size="10" fill="#0066cc">T3</text>
<text x="1568.1" y="1792.0" text-anchor="middle" font-size="10" fill="#0066cc">S wall</text>
<line x1="1040.2" y1="1754.0" x2="1040.2" y2="1814.0" stroke="#8B4513" stroke-width="0.5" stroke-dasharray="2,2"/>
<line x1="1068.0" y1="1796.0" x2="1068.0" y2="1814.0" stroke="#8B4513" stroke-width="0.5" stroke-dasharray="2,2"/>
<line x1="1040.2" y1="1810.0" x2="1068.0" y2="1810.0" stroke="#8B4513" stroke-width="1" marker-start="url(#arr)" marker-end="url(#arr)"/>
<text x="1054.1" y="1806.0" text-anchor="middle" font-size="10" fill="#8B4513">N overhang 2' 6"</text>
<line x1="1617.8" y1="1754.0" x2="1617.8" y2="1814.0" stroke="#8B4513" stroke-width="0.5" stroke-dasharray="2,2"/>
<line x1="1568.1" y1="1796.0" x2="1568.1" y2="1814.0" stroke="#8B4513" stroke-width="0.5" stroke-dasharray="2,2"/>
<line x1="1568.1" y1="1810.0" x2="1617.8" y2="1810.0" stroke="#8B4513" stroke-width="1" marker-start="url(#arr)" marker-end="url(#arr)"/>
<text x="1592.9" y="1806.0" text-anchor="middle" font-size="10" fill="#8B4513">S overhang 4' 6"</text>
<text x="1742.0" y="1584.0" text-anchor="end" font-size="11" fill="#8b0000">3 common (Fink) trusses shown</text>
</svg>
