<?xml version="1.0" encoding="UTF-8"?>
<svg xmlns="http://www.w3.org/2000/svg" width="1840" height="660" viewBox="0 0 1840 660">
<title>Roof Sections</title>
<defs>
  <marker id="arr" viewBox="0 0 10 10" refX="5" refY="5" markerWidth="6" markerHeight="6" orient="auto-start-reverse">
    <path d="M0,0 L10,5 L0,10 z" fill="#0066cc"/>
  </marker>
  <style>text { font-family: -apple-system, Arial, sans-serif; }</style>
</defs>
<rect width="1840" height="660" fill="#fafafa"/>
<text x="920.0" y="32" text-anchor="middle" font-size="22" font-weight="bold" fill="#222">Roof Dimensions — Hip Roof</text>
<g transform="translate(0,50)">
<g transform="translate(0,0)">
<rect x="0" y="0" width="900" height="600" fill="white" stroke="#bbb" stroke-width="1"/>
<text x="450.0" y="42" text-anchor="middle" font-size="20" font-weight="600" fill="#222">SECTION A–A : TRANSVERSE (across ridge)</text>
<line x1="246.50000000000003" y1="520" x2="450.0" y2="420.7464182268472" stroke="#8B4513" stroke-width="3"/>
<line x1="450.0" y1="420.7464182268472" x2="653.5" y2="520" stroke="#8B4513" stroke-width="3"/>
<line x1="246.50000000000003" y1="523.7" x2="450.0" y2="424.4464182268472" stroke="#8B4513" stroke-width="3"/>
<line x1="450.0" y1="424.4464182268472" x2="653.5" y2="523.7" stroke="#8B4513" stroke-width="3"/>
<line x1="246.50000000000003" y1="520" x2="246.50000000000003" y2="590" stroke="#0066cc" stroke-width="0.7"/>
<line x1="653.5" y1="520" x2="653.5" y2="590" stroke="#0066cc" stroke-width="0.7"/>
<line x1="246.50000000000003" y1="580" x2="653.5" y2="580" stroke="#0066cc" stroke-width="1" marker-start="url(#arr)" marker-end="url(#arr)"/>
<text x="450.0" y="574" text-anchor="middle" font-size="13" fill="#0066cc">33'</text>
<line x1="246.50000000000003" y1="520" x2="186.50000000000003" y2="520" stroke="#0066cc" stroke-width="0.7"/>
<line x1="450.0" y1="420.7464182268472" x2="186.50000000000003" y2="420.7464182268472" stroke="#0066cc" stroke-width="0.7" stroke-dasharray="4,3"/>
<line x1="196.50000000000003" y1="520" x2="196.50000000000003" y2="420.7464182268472" stroke="#0066cc" stroke-width="1" marker-start="url(#arr)" marker-end="url(#arr)"/>
<text x="190.50000000000003" y="470.3732091134236" text-anchor="end" font-size="13" fill="#0066cc">h = 8' 1"</text>
<text x="340.25" y="462.3732091134236" text-anchor="end" font-size="12" fill="#444">26.0°</text>
<text x="340.25" y="482.3732091134236" text-anchor="end" font-size="11" fill="#444">18' 4"</text>
<text x="559.75" y="462.3732091134236" text-anchor="start" font-size="12" fill="#444">26.0°</text>
<text x="559.75" y="482.3732091134236" text-anchor="start" font-size="11" fill="#444">18' 4"</text>
</g>
<g transform="translate(940,0)">
<rect x="0" y="0" width="900" height="600" fill="white" stroke="#bbb" stroke-width="1"/>
<text x="450.0" y="42" text-anchor="middle" font-size="20" font-weight="600" fill="#222">SECTION B–B : LONGITUDINAL (along ridge)</text>
<line x1="135.50000000000006" y1="520" x2="357.5" y2="420.7464182268472" stroke="#8B4513" stroke-width="3"/>
<line x1="357.5" y1="420.7464182268472" x2="542.5" y2="420.7464182268472" stroke="#8B4513" stroke-width="3"/>
<line x1="542.5" y1="420.7464182268472" x2="764.5" y2="520" stroke="#8B4513" stroke-width="3"/>
<line x1="135.50000000000006" y1="523.7" x2="357.5" y2="424.4464182268472" stroke="#8B4513" stroke-width="3"/>
<line x1="357.5" y1="424.4464182268472" x2="542.5" y2="424.4464182268472" stroke="#8B4513" stroke-width="3"/>
<line x1="542.5" y1="424.4464182268472" x2="764.5" y2="523.7" stroke="#8B4513" stroke-width="3"/>
<line x1="135.50000000000006" y1="520" x2="135.50000000000006" y2="590" stroke="#0066cc" stroke-width="0.7"/>
<line x1="764.5" y1="520" x2="764.5" y2="590" stroke="#0066cc" stroke-width="0.7"/>
<line x1="135.50000000000006" y1="580" x2="764.5" y2="580" stroke="#0066cc" stroke-width="1" marker-start="url(#arr)" marker-end="url(#arr)"/>
<text x="450.0" y="574" text-anchor="middle" font-size="13" fill="#0066cc">51'</text>
<line x1="357.5" y1="420.7464182268472" x2="357.5" y2="380.7464182268472" stroke="#0066cc" stroke-width="0.7"/>
<line x1="542.5" y1="420.7464182268472" x2="542.5" y2="380.7464182268472" stroke="#0066cc" stroke-width="0.7"/>
<line x1="357.5" y1="390.7464182268472" x2="542.5" y2="390.7464182268472" stroke="#0066cc" stroke-width="1" marker-start="url(#arr)" marker-end="url(#arr)"/>
<text x="450.0" y="384.7464182268472" text-anchor="middle" font-size="13" fill="#0066cc">ridge = 15'</text>
<line x1="135.50000000000006" y1="535" x2="357.5" y2="535" stroke="#0066cc" stroke-width="1" marker-start="url(#arr)" marker-end="url(#arr)"/>
<text x="246.50000000000003" y="531" text-anchor="middle" font-size="11" fill="#0066cc">18'</text>
<line x1="542.5" y1="535" x2="764.5" y2="535" stroke="#0066cc" stroke-width="1" marker-start="url(#arr)" marker-end="url(#arr)"/>
<text x="653.5" y="531" text-anchor="middle" font-size="11" fill="#0066cc">18'</text>
<text x="242.50000000000003" y="466.3732091134236" text-anchor="end" font-size="12" fill="#444">24.1°</text>
<text x="242.50000000000003" y="484.3732091134236" text-anchor="end" font-size="11" fill="#444">19' 9"</text>
<text x="657.5" y="466.3732091134236" text-anchor="start" font-size="12" fill="#444">24.1°</text>
<text x="657.5" y="484.3732091134236" text-anchor="start" font-size="11" fill="#444">19' 9"</text>
</g>
</g>
</svg>
