<?xml version="1.0" encoding="UTF-8"?>
<svg xmlns="http://www.w3.org/2000/svg" width="850" height="620" viewBox="30 1838 850 620">
<title>MAIN SLOPES — W & E (trapezoid, identical pair)</title>
<defs>
  <marker id="arr" viewBox="0 0 10 10" refX="5" refY="5" markerWidth="6" markerHeight="6" orient="auto-start-reverse">
    <path d="M0,0 L10,5 L0,10 z" fill="#0066cc"/>
  </marker>
  <style>text { font-family: -apple-system, Arial, sans-serif; }</style>
</defs>
<rect x="0" y="0" width="100%" height="100%" fill="#fafafa"/>
<rect x="30" y="1838" width="850" height="620" fill="#ffffff" stroke="#bbb" stroke-width="1"/>
<rect x="30" y="1838" width="850" height="46" fill="#f2f2f2" stroke="#bbb" stroke-width="1"/>
<text x="455.0" y="1869" text-anchor="middle" font-size="18" font-weight="600" fill="#222">MAIN SLOPES — W &amp; E (trapezoid, identical pair)</text>
<line x1="143.70" y1="2278.89" x2="760.85" y2="2278.89" stroke="#4a8fbf" stroke-width="0.7" opacity="0.75"/>
<line x1="150.64" y1="2266.64" x2="748.44" y2="2266.64" stroke="#4a8fbf" stroke-width="0.7" opacity="0.75"/>
<line x1="157.59" y1="2254.39" x2="736.04" y2="2254.39" stroke="#4a8fbf" stroke-width="0.7" opacity="0.75"/>
<line x1="164.53" y1="2242.14" x2="723.63" y2="2242.14" stroke="#4a8fbf" stroke-width="0.7" opacity="0.75"/>
<line x1="171.48" y1="2229.89" x2="711.23" y2="2229.89" stroke="#4a8fbf" stroke-width="0.7" opacity="0.75"/>
<line x1="178.42" y1="2217.64" x2="698.83" y2="2217.64" stroke="#4a8fbf" stroke-width="0.7" opacity="0.75"/>
<line x1="185.37" y1="2205.39" x2="686.42" y2="2205.39" stroke="#4a8fbf" stroke-width="0.7" opacity="0.75"/>
<line x1="192.31" y1="2193.15" x2="674.02" y2="2193.15" stroke="#4a8fbf" stroke-width="0.7" opacity="0.75"/>
<line x1="199.26" y1="2180.90" x2="661.61" y2="2180.90" stroke="#4a8fbf" stroke-width="0.7" opacity="0.75"/>
<line x1="206.20" y1="2168.65" x2="649.21" y2="2168.65" stroke="#4a8fbf" stroke-width="0.7" opacity="0.75"/>
<line x1="213.15" y1="2156.40" x2="636.80" y2="2156.40" stroke="#4a8fbf" stroke-width="0.7" opacity="0.75"/>
<line x1="220.09" y1="2144.15" x2="624.40" y2="2144.15" stroke="#4a8fbf" stroke-width="0.7" opacity="0.75"/>
<line x1="227.04" y1="2131.90" x2="612.00" y2="2131.90" stroke="#4a8fbf" stroke-width="0.7" opacity="0.75"/>
<line x1="233.98" y1="2119.65" x2="599.59" y2="2119.65" stroke="#4a8fbf" stroke-width="0.7" opacity="0.75"/>
<line x1="240.93" y1="2107.41" x2="587.19" y2="2107.41" stroke="#4a8fbf" stroke-width="0.7" opacity="0.75"/>
<line x1="247.87" y1="2095.16" x2="574.78" y2="2095.16" stroke="#4a8fbf" stroke-width="0.7" opacity="0.75"/>
<line x1="254.82" y1="2082.91" x2="562.38" y2="2082.91" stroke="#4a8fbf" stroke-width="0.7" opacity="0.75"/>
<line x1="261.76" y1="2070.66" x2="549.98" y2="2070.66" stroke="#4a8fbf" stroke-width="0.7" opacity="0.75"/>
<line x1="268.71" y1="2058.41" x2="537.57" y2="2058.41" stroke="#4a8fbf" stroke-width="0.7" opacity="0.75"/>
<line x1="142.66" y1="2291.13" x2="142.66" y2="2280.71" stroke="#666" stroke-width="0.9" opacity="0.9"/>
<line x1="179.41" y1="2291.13" x2="179.41" y2="2215.90" stroke="#666" stroke-width="0.9" opacity="0.9"/>
<line x1="216.15" y1="2291.13" x2="216.15" y2="2151.10" stroke="#666" stroke-width="0.9" opacity="0.9"/>
<line x1="252.90" y1="2291.13" x2="252.90" y2="2086.29" stroke="#666" stroke-width="0.9" opacity="0.9"/>
<line x1="289.64" y1="2291.13" x2="289.64" y2="2050.87" stroke="#666" stroke-width="0.9" opacity="0.9"/>
<line x1="326.39" y1="2291.13" x2="326.39" y2="2050.87" stroke="#666" stroke-width="0.9" opacity="0.9"/>
<line x1="363.14" y1="2291.13" x2="363.14" y2="2050.87" stroke="#666" stroke-width="0.9" opacity="0.9"/>
<line x1="399.88" y1="2291.13" x2="399.88" y2="2050.87" stroke="#666" stroke-width="0.9" opacity="0.9"/>
<line x1="436.63" y1="2291.13" x2="436.63" y2="2050.87" stroke="#666" stroke-width="0.9" opacity="0.9"/>
<line x1="473.37" y1="2291.13" x2="473.37" y2="2050.87" stroke="#666" stroke-width="0.9" opacity="0.9"/>
<line x1="510.12" y1="2291.13" x2="510.12" y2="2050.87" stroke="#666" stroke-width="0.9" opacity="0.9"/>
<line x1="546.86" y1="2291.13" x2="546.86" y2="2067.59" stroke="#666" stroke-width="0.9" opacity="0.9"/>
<line x1="583.61" y1="2291.13" x2="583.61" y2="2103.87" stroke="#666" stroke-width="0.9" opacity="0.9"/>
<line x1="620.36" y1="2291.13" x2="620.36" y2="2140.16" stroke="#666" stroke-width="0.9" opacity="0.9"/>
<line x1="657.10" y1="2291.13" x2="657.10" y2="2176.44" stroke="#666" stroke-width="0.9" opacity="0.9"/>
<line x1="693.85" y1="2291.13" x2="693.85" y2="2212.73" stroke="#666" stroke-width="0.9" opacity="0.9"/>
<line x1="730.59" y1="2291.13" x2="730.59" y2="2249.01" stroke="#666" stroke-width="0.9" opacity="0.9"/>
<line x1="767.34" y1="2291.13" x2="767.34" y2="2285.30" stroke="#666" stroke-width="0.9" opacity="0.9"/>
<path d="M 136.75 2291.13 L 773.25 2291.13 L 529.93 2050.87 L 272.99 2050.87 Z" fill="none" stroke="#8B4513" stroke-width="3"/>
<line x1="136.75000000000006" y1="2291.1343054325466" x2="136.75000000000006" y2="2341.1343054325466" stroke="#0066cc" stroke-width="0.6"/>
<line x1="773.25" y1="2291.1343054325466" x2="773.25" y2="2341.1343054325466" stroke="#0066cc" stroke-width="0.6"/>
<line x1="136.75000000000006" y1="2333.1343054325466" x2="773.25" y2="2333.1343054325466" stroke="#0066cc" stroke-width="1" marker-start="url(#arr)" marker-end="url(#arr)"/>
<text x="455.0" y="2327.1343054325466" text-anchor="middle" font-size="12" fill="#0066cc">eave = 52'</text>
<line x1="272.9852113445203" y1="2050.8656945674534" x2="272.9852113445203" y2="2018.8656945674534" stroke="#0066cc" stroke-width="0.6"/>
<line x1="529.9305155458844" y1="2050.8656945674534" x2="529.9305155458844" y2="2018.8656945674534" stroke="#0066cc" stroke-width="0.6"/>
<line x1="272.9852113445203" y1="2026.8656945674534" x2="529.9305155458844" y2="2026.8656945674534" stroke="#0066cc" stroke-width="1" marker-start="url(#arr)" marker-end="url(#arr)"/>
<text x="455.0" y="2020.8656945674534" text-anchor="middle" font-size="12" fill="#0066cc">ridge = 21'</text>
<line x1="773.25" y1="2291.1343054325466" x2="813.25" y2="2291.1343054325466" stroke="#0066cc" stroke-width="0.6" stroke-dasharray="3,3"/>
<line x1="529.9305155458844" y1="2050.8656945674534" x2="813.25" y2="2050.8656945674534" stroke="#0066cc" stroke-width="0.6" stroke-dasharray="3,3"/>
<line x1="805.25" y1="2291.1343054325466" x2="805.25" y2="2050.8656945674534" stroke="#0066cc" stroke-width="1" marker-start="url(#arr)" marker-end="url(#arr)"/>
<text x="811.25" y="2171.0" text-anchor="start" font-size="11" fill="#0066cc">height = 19' 7"</text>
<text x="196.86760567226017" y="2171.0" text-anchor="end" font-size="10" fill="#555">hip = 27' 11"</text>
<text x="144.75000000000006" y="2285.1343054325466" text-anchor="start" font-size="11" fill="#333">60.4°</text>
<text x="765.25" y="2285.1343054325466" text-anchor="end" font-size="11" fill="#333">44.6°</text>
<text x="278.9852113445203" y="2064.8656945674534" text-anchor="start" font-size="11" fill="#333">119.6°</text>
<text x="523.9305155458844" y="2064.8656945674534" text-anchor="end" font-size="11" fill="#333">135.4°</text>
<text x="455.0" y="1904" text-anchor="middle" font-size="15" font-weight="600" fill="#8B4513">ROOF PITCH: 27.4°</text>
<text x="455.0" y="1922" text-anchor="middle" font-size="13" fill="#333">AREA: 715 sft per face   (× 2 = 1431 sft)</text>
<text x="870" y="1904" text-anchor="end" font-size="11" fill="#333">18 rafters @ 36" OC</text>
<text x="870" y="1919" text-anchor="end" font-size="11" fill="#333">19 purlins @ 12" OC</text>
</svg>
