<?xml version="1.0" encoding="UTF-8"?>
<svg xmlns="http://www.w3.org/2000/svg" width="1724" height="1080" viewBox="30 90 1724 1080">
<title>Roof plan — rafters, purlins & ring beam</title>
<defs>
  <marker id="arr" viewBox="0 0 10 10" refX="5" refY="5" markerWidth="6" markerHeight="6" orient="auto-start-reverse">
    <path d="M0,0 L10,5 L0,10 z" fill="#0066cc"/>
  </marker>
  <style>text { font-family: -apple-system, Arial, sans-serif; }</style>
</defs>
<rect x="0" y="0" width="100%" height="100%" fill="#fafafa"/>
<rect x="30" y="90" width="1724" height="1080" fill="#ffffff" stroke="#bbb" stroke-width="1"/>
<rect x="30" y="90" width="1724" height="40" fill="#f2f2f2" stroke="#bbb" stroke-width="1"/>
<text x="892.0" y="117" text-anchor="middle" font-size="18" font-weight="600" fill="#222">ROOF PLAN — Top View (framing layout)</text>
<defs>
<clipPath id="topfv_N"><polygon points="449.1,213.0 1034.9,213.0 742.0,400.1"/></clipPath>
<clipPath id="topfv_S"><polygon points="449.1,1087.0 742.0,752.9 1034.9,1087.0"/></clipPath>
<clipPath id="topfv_W"><polygon points="449.1,213.0 742.0,400.1 742.0,752.9 449.1,1087.0"/></clipPath>
<clipPath id="topfv_E"><polygon points="1034.9,213.0 1034.9,1087.0 742.0,752.9 742.0,400.1"/></clipPath>
</defs>
<polygon points="449.1,213.0 1034.9,213.0 742.0,400.1" fill="#f8ecd8" fill-opacity="0.7" stroke="none"/>
<polygon points="449.1,1087.0 742.0,752.9 1034.9,1087.0" fill="#f8ecd8" fill-opacity="0.7" stroke="none"/>
<polygon points="449.1,213.0 742.0,400.1 742.0,752.9 449.1,1087.0" fill="#f8ecd8" fill-opacity="0.7" stroke="none"/>
<polygon points="1034.9,213.0 1034.9,1087.0 742.0,752.9 742.0,400.1" fill="#f8ecd8" fill-opacity="0.7" stroke="none"/>
<line x1="449.1" y1="221.1" x2="742.0" y2="221.1" stroke="#8B4513" stroke-width="2.8031654368516734" clip-path="url(#topfv_W)"/>
<line x1="449.1" y1="271.6" x2="742.0" y2="271.6" stroke="#8B4513" stroke-width="2.8031654368516734" clip-path="url(#topfv_W)"/>
<line x1="449.1" y1="322.0" x2="742.0" y2="322.0" stroke="#8B4513" stroke-width="2.8031654368516734" clip-path="url(#topfv_W)"/>
<line x1="449.1" y1="372.5" x2="742.0" y2="372.5" stroke="#8B4513" stroke-width="2.8031654368516734" clip-path="url(#topfv_W)"/>
<line x1="449.1" y1="422.9" x2="742.0" y2="422.9" stroke="#8B4513" stroke-width="2.8031654368516734" clip-path="url(#topfv_W)"/>
<line x1="449.1" y1="473.4" x2="742.0" y2="473.4" stroke="#8B4513" stroke-width="2.8031654368516734" clip-path="url(#topfv_W)"/>
<line x1="449.1" y1="523.9" x2="742.0" y2="523.9" stroke="#8B4513" stroke-width="2.8031654368516734" clip-path="url(#topfv_W)"/>
<line x1="449.1" y1="574.3" x2="742.0" y2="574.3" stroke="#8B4513" stroke-width="2.8031654368516734" clip-path="url(#topfv_W)"/>
<line x1="449.1" y1="624.8" x2="742.0" y2="624.8" stroke="#8B4513" stroke-width="2.8031654368516734" clip-path="url(#topfv_W)"/>
<line x1="449.1" y1="675.2" x2="742.0" y2="675.2" stroke="#8B4513" stroke-width="2.8031654368516734" clip-path="url(#topfv_W)"/>
<line x1="449.1" y1="725.7" x2="742.0" y2="725.7" stroke="#8B4513" stroke-width="2.8031654368516734" clip-path="url(#topfv_W)"/>
<line x1="449.1" y1="776.1" x2="742.0" y2="776.1" stroke="#8B4513" stroke-width="2.8031654368516734" clip-path="url(#topfv_W)"/>
<line x1="449.1" y1="826.6" x2="742.0" y2="826.6" stroke="#8B4513" stroke-width="2.8031654368516734" clip-path="url(#topfv_W)"/>
<line x1="449.1" y1="877.1" x2="742.0" y2="877.1" stroke="#8B4513" stroke-width="2.8031654368516734" clip-path="url(#topfv_W)"/>
<line x1="449.1" y1="927.5" x2="742.0" y2="927.5" stroke="#8B4513" stroke-width="2.8031654368516734" clip-path="url(#topfv_W)"/>
<line x1="449.1" y1="978.0" x2="742.0" y2="978.0" stroke="#8B4513" stroke-width="2.8031654368516734" clip-path="url(#topfv_W)"/>
<line x1="449.1" y1="1028.4" x2="742.0" y2="1028.4" stroke="#8B4513" stroke-width="2.8031654368516734" clip-path="url(#topfv_W)"/>
<line x1="449.1" y1="1078.9" x2="742.0" y2="1078.9" stroke="#8B4513" stroke-width="2.8031654368516734" clip-path="url(#topfv_W)"/>
<line x1="1034.9" y1="221.1" x2="742.0" y2="221.1" stroke="#8B4513" stroke-width="2.8031654368516734" clip-path="url(#topfv_E)"/>
<line x1="1034.9" y1="271.6" x2="742.0" y2="271.6" stroke="#8B4513" stroke-width="2.8031654368516734" clip-path="url(#topfv_E)"/>
<line x1="1034.9" y1="322.0" x2="742.0" y2="322.0" stroke="#8B4513" stroke-width="2.8031654368516734" clip-path="url(#topfv_E)"/>
<line x1="1034.9" y1="372.5" x2="742.0" y2="372.5" stroke="#8B4513" stroke-width="2.8031654368516734" clip-path="url(#topfv_E)"/>
<line x1="1034.9" y1="422.9" x2="742.0" y2="422.9" stroke="#8B4513" stroke-width="2.8031654368516734" clip-path="url(#topfv_E)"/>
<line x1="1034.9" y1="473.4" x2="742.0" y2="473.4" stroke="#8B4513" stroke-width="2.8031654368516734" clip-path="url(#topfv_E)"/>
<line x1="1034.9" y1="523.9" x2="742.0" y2="523.9" stroke="#8B4513" stroke-width="2.8031654368516734" clip-path="url(#topfv_E)"/>
<line x1="1034.9" y1="574.3" x2="742.0" y2="574.3" stroke="#8B4513" stroke-width="2.8031654368516734" clip-path="url(#topfv_E)"/>
<line x1="1034.9" y1="624.8" x2="742.0" y2="624.8" stroke="#8B4513" stroke-width="2.8031654368516734" clip-path="url(#topfv_E)"/>
<line x1="1034.9" y1="675.2" x2="742.0" y2="675.2" stroke="#8B4513" stroke-width="2.8031654368516734" clip-path="url(#topfv_E)"/>
<line x1="1034.9" y1="725.7" x2="742.0" y2="725.7" stroke="#8B4513" stroke-width="2.8031654368516734" clip-path="url(#topfv_E)"/>
<line x1="1034.9" y1="776.1" x2="742.0" y2="776.1" stroke="#8B4513" stroke-width="2.8031654368516734" clip-path="url(#topfv_E)"/>
<line x1="1034.9" y1="826.6" x2="742.0" y2="826.6" stroke="#8B4513" stroke-width="2.8031654368516734" clip-path="url(#topfv_E)"/>
<line x1="1034.9" y1="877.1" x2="742.0" y2="877.1" stroke="#8B4513" stroke-width="2.8031654368516734" clip-path="url(#topfv_E)"/>
<line x1="1034.9" y1="927.5" x2="742.0" y2="927.5" stroke="#8B4513" stroke-width="2.8031654368516734" clip-path="url(#topfv_E)"/>
<line x1="1034.9" y1="978.0" x2="742.0" y2="978.0" stroke="#8B4513" stroke-width="2.8031654368516734" clip-path="url(#topfv_E)"/>
<line x1="1034.9" y1="1028.4" x2="742.0" y2="1028.4" stroke="#8B4513" stroke-width="2.8031654368516734" clip-path="url(#topfv_E)"/>
<line x1="1034.9" y1="1078.9" x2="742.0" y2="1078.9" stroke="#8B4513" stroke-width="2.8031654368516734" clip-path="url(#topfv_E)"/>
<line x1="464.5" y1="213.0" x2="464.5" y2="400.1" stroke="#8B4513" stroke-width="2.8031654368516734" clip-path="url(#topfv_N)"/>
<line x1="514.9" y1="213.0" x2="514.9" y2="400.1" stroke="#8B4513" stroke-width="2.8031654368516734" clip-path="url(#topfv_N)"/>
<line x1="565.4" y1="213.0" x2="565.4" y2="400.1" stroke="#8B4513" stroke-width="2.8031654368516734" clip-path="url(#topfv_N)"/>
<line x1="615.9" y1="213.0" x2="615.9" y2="400.1" stroke="#8B4513" stroke-width="2.8031654368516734" clip-path="url(#topfv_N)"/>
<line x1="666.3" y1="213.0" x2="666.3" y2="400.1" stroke="#8B4513" stroke-width="2.8031654368516734" clip-path="url(#topfv_N)"/>
<line x1="716.8" y1="213.0" x2="716.8" y2="400.1" stroke="#8B4513" stroke-width="2.8031654368516734" clip-path="url(#topfv_N)"/>
<line x1="767.2" y1="213.0" x2="767.2" y2="400.1" stroke="#8B4513" stroke-width="2.8031654368516734" clip-path="url(#topfv_N)"/>
<line x1="817.7" y1="213.0" x2="817.7" y2="400.1" stroke="#8B4513" stroke-width="2.8031654368516734" clip-path="url(#topfv_N)"/>
<line x1="868.1" y1="213.0" x2="868.1" y2="400.1" stroke="#8B4513" stroke-width="2.8031654368516734" clip-path="url(#topfv_N)"/>
<line x1="918.6" y1="213.0" x2="918.6" y2="400.1" stroke="#8B4513" stroke-width="2.8031654368516734" clip-path="url(#topfv_N)"/>
<line x1="969.1" y1="213.0" x2="969.1" y2="400.1" stroke="#8B4513" stroke-width="2.8031654368516734" clip-path="url(#topfv_N)"/>
<line x1="1019.5" y1="213.0" x2="1019.5" y2="400.1" stroke="#8B4513" stroke-width="2.8031654368516734" clip-path="url(#topfv_N)"/>
<line x1="464.5" y1="1087.0" x2="464.5" y2="752.9" stroke="#8B4513" stroke-width="2.8031654368516734" clip-path="url(#topfv_S)"/>
<line x1="514.9" y1="1087.0" x2="514.9" y2="752.9" stroke="#8B4513" stroke-width="2.8031654368516734" clip-path="url(#topfv_S)"/>
<line x1="565.4" y1="1087.0" x2="565.4" y2="752.9" stroke="#8B4513" stroke-width="2.8031654368516734" clip-path="url(#topfv_S)"/>
<line x1="615.9" y1="1087.0" x2="615.9" y2="752.9" stroke="#8B4513" stroke-width="2.8031654368516734" clip-path="url(#topfv_S)"/>
<line x1="666.3" y1="1087.0" x2="666.3" y2="752.9" stroke="#8B4513" stroke-width="2.8031654368516734" clip-path="url(#topfv_S)"/>
<line x1="716.8" y1="1087.0" x2="716.8" y2="752.9" stroke="#8B4513" stroke-width="2.8031654368516734" clip-path="url(#topfv_S)"/>
<line x1="767.2" y1="1087.0" x2="767.2" y2="752.9" stroke="#8B4513" stroke-width="2.8031654368516734" clip-path="url(#topfv_S)"/>
<line x1="817.7" y1="1087.0" x2="817.7" y2="752.9" stroke="#8B4513" stroke-width="2.8031654368516734" clip-path="url(#topfv_S)"/>
<line x1="868.1" y1="1087.0" x2="868.1" y2="752.9" stroke="#8B4513" stroke-width="2.8031654368516734" clip-path="url(#topfv_S)"/>
<line x1="918.6" y1="1087.0" x2="918.6" y2="752.9" stroke="#8B4513" stroke-width="2.8031654368516734" clip-path="url(#topfv_S)"/>
<line x1="969.1" y1="1087.0" x2="969.1" y2="752.9" stroke="#8B4513" stroke-width="2.8031654368516734" clip-path="url(#topfv_S)"/>
<line x1="1019.5" y1="1087.0" x2="1019.5" y2="752.9" stroke="#8B4513" stroke-width="2.8031654368516734" clip-path="url(#topfv_S)"/>
<line x1="464.0" y1="213.0" x2="464.0" y2="1087.0" stroke="#4a8fbf" stroke-width="2.8031654368516734" clip-path="url(#topfv_W)"/>
<line x1="1020.0" y1="213.0" x2="1020.0" y2="1087.0" stroke="#4a8fbf" stroke-width="2.8031654368516734" clip-path="url(#topfv_E)"/>
<line x1="479.0" y1="213.0" x2="479.0" y2="1087.0" stroke="#4a8fbf" stroke-width="2.8031654368516734" clip-path="url(#topfv_W)"/>
<line x1="1005.0" y1="213.0" x2="1005.0" y2="1087.0" stroke="#4a8fbf" stroke-width="2.8031654368516734" clip-path="url(#topfv_E)"/>
<line x1="493.9" y1="213.0" x2="493.9" y2="1087.0" stroke="#4a8fbf" stroke-width="2.8031654368516734" clip-path="url(#topfv_W)"/>
<line x1="990.1" y1="213.0" x2="990.1" y2="1087.0" stroke="#4a8fbf" stroke-width="2.8031654368516734" clip-path="url(#topfv_E)"/>
<line x1="508.8" y1="213.0" x2="508.8" y2="1087.0" stroke="#4a8fbf" stroke-width="2.8031654368516734" clip-path="url(#topfv_W)"/>
<line x1="975.2" y1="213.0" x2="975.2" y2="1087.0" stroke="#4a8fbf" stroke-width="2.8031654368516734" clip-path="url(#topfv_E)"/>
<line x1="523.8" y1="213.0" x2="523.8" y2="1087.0" stroke="#4a8fbf" stroke-width="2.8031654368516734" clip-path="url(#topfv_W)"/>
<line x1="960.2" y1="213.0" x2="960.2" y2="1087.0" stroke="#4a8fbf" stroke-width="2.8031654368516734" clip-path="url(#topfv_E)"/>
<line x1="538.7" y1="213.0" x2="538.7" y2="1087.0" stroke="#4a8fbf" stroke-width="2.8031654368516734" clip-path="url(#topfv_W)"/>
<line x1="945.3" y1="213.0" x2="945.3" y2="1087.0" stroke="#4a8fbf" stroke-width="2.8031654368516734" clip-path="url(#topfv_E)"/>
<line x1="553.6" y1="213.0" x2="553.6" y2="1087.0" stroke="#4a8fbf" stroke-width="2.8031654368516734" clip-path="url(#topfv_W)"/>
<line x1="930.4" y1="213.0" x2="930.4" y2="1087.0" stroke="#4a8fbf" stroke-width="2.8031654368516734" clip-path="url(#topfv_E)"/>
<line x1="568.6" y1="213.0" x2="568.6" y2="1087.0" stroke="#4a8fbf" stroke-width="2.8031654368516734" clip-path="url(#topfv_W)"/>
<line x1="915.4" y1="213.0" x2="915.4" y2="1087.0" stroke="#4a8fbf" stroke-width="2.8031654368516734" clip-path="url(#topfv_E)"/>
<line x1="583.5" y1="213.0" x2="583.5" y2="1087.0" stroke="#4a8fbf" stroke-width="2.8031654368516734" clip-path="url(#topfv_W)"/>
<line x1="900.5" y1="213.0" x2="900.5" y2="1087.0" stroke="#4a8fbf" stroke-width="2.8031654368516734" clip-path="url(#topfv_E)"/>
<line x1="598.4" y1="213.0" x2="598.4" y2="1087.0" stroke="#4a8fbf" stroke-width="2.8031654368516734" clip-path="url(#topfv_W)"/>
<line x1="885.6" y1="213.0" x2="885.6" y2="1087.0" stroke="#4a8fbf" stroke-width="2.8031654368516734" clip-path="url(#topfv_E)"/>
<line x1="613.4" y1="213.0" x2="613.4" y2="1087.0" stroke="#4a8fbf" stroke-width="2.8031654368516734" clip-path="url(#topfv_W)"/>
<line x1="870.6" y1="213.0" x2="870.6" y2="1087.0" stroke="#4a8fbf" stroke-width="2.8031654368516734" clip-path="url(#topfv_E)"/>
<line x1="628.3" y1="213.0" x2="628.3" y2="1087.0" stroke="#4a8fbf" stroke-width="2.8031654368516734" clip-path="url(#topfv_W)"/>
<line x1="855.7" y1="213.0" x2="855.7" y2="1087.0" stroke="#4a8fbf" stroke-width="2.8031654368516734" clip-path="url(#topfv_E)"/>
<line x1="643.2" y1="213.0" x2="643.2" y2="1087.0" stroke="#4a8fbf" stroke-width="2.8031654368516734" clip-path="url(#topfv_W)"/>
<line x1="840.8" y1="213.0" x2="840.8" y2="1087.0" stroke="#4a8fbf" stroke-width="2.8031654368516734" clip-path="url(#topfv_E)"/>
<line x1="658.1" y1="213.0" x2="658.1" y2="1087.0" stroke="#4a8fbf" stroke-width="2.8031654368516734" clip-path="url(#topfv_W)"/>
<line x1="825.9" y1="213.0" x2="825.9" y2="1087.0" stroke="#4a8fbf" stroke-width="2.8031654368516734" clip-path="url(#topfv_E)"/>
<line x1="673.1" y1="213.0" x2="673.1" y2="1087.0" stroke="#4a8fbf" stroke-width="2.8031654368516734" clip-path="url(#topfv_W)"/>
<line x1="810.9" y1="213.0" x2="810.9" y2="1087.0" stroke="#4a8fbf" stroke-width="2.8031654368516734" clip-path="url(#topfv_E)"/>
<line x1="688.0" y1="213.0" x2="688.0" y2="1087.0" stroke="#4a8fbf" stroke-width="2.8031654368516734" clip-path="url(#topfv_W)"/>
<line x1="796.0" y1="213.0" x2="796.0" y2="1087.0" stroke="#4a8fbf" stroke-width="2.8031654368516734" clip-path="url(#topfv_E)"/>
<line x1="702.9" y1="213.0" x2="702.9" y2="1087.0" stroke="#4a8fbf" stroke-width="2.8031654368516734" clip-path="url(#topfv_W)"/>
<line x1="781.1" y1="213.0" x2="781.1" y2="1087.0" stroke="#4a8fbf" stroke-width="2.8031654368516734" clip-path="url(#topfv_E)"/>
<line x1="717.9" y1="213.0" x2="717.9" y2="1087.0" stroke="#4a8fbf" stroke-width="2.8031654368516734" clip-path="url(#topfv_W)"/>
<line x1="766.1" y1="213.0" x2="766.1" y2="1087.0" stroke="#4a8fbf" stroke-width="2.8031654368516734" clip-path="url(#topfv_E)"/>
<line x1="732.8" y1="213.0" x2="732.8" y2="1087.0" stroke="#4a8fbf" stroke-width="2.8031654368516734" clip-path="url(#topfv_W)"/>
<line x1="751.2" y1="213.0" x2="751.2" y2="1087.0" stroke="#4a8fbf" stroke-width="2.8031654368516734" clip-path="url(#topfv_E)"/>
<line x1="449.1" y1="226.1" x2="1034.9" y2="226.1" stroke="#4a8fbf" stroke-width="2.8031654368516734" clip-path="url(#topfv_N)"/>
<line x1="449.1" y1="239.1" x2="1034.9" y2="239.1" stroke="#4a8fbf" stroke-width="2.8031654368516734" clip-path="url(#topfv_N)"/>
<line x1="449.1" y1="252.2" x2="1034.9" y2="252.2" stroke="#4a8fbf" stroke-width="2.8031654368516734" clip-path="url(#topfv_N)"/>
<line x1="449.1" y1="265.2" x2="1034.9" y2="265.2" stroke="#4a8fbf" stroke-width="2.8031654368516734" clip-path="url(#topfv_N)"/>
<line x1="449.1" y1="278.3" x2="1034.9" y2="278.3" stroke="#4a8fbf" stroke-width="2.8031654368516734" clip-path="url(#topfv_N)"/>
<line x1="449.1" y1="291.3" x2="1034.9" y2="291.3" stroke="#4a8fbf" stroke-width="2.8031654368516734" clip-path="url(#topfv_N)"/>
<line x1="449.1" y1="304.4" x2="1034.9" y2="304.4" stroke="#4a8fbf" stroke-width="2.8031654368516734" clip-path="url(#topfv_N)"/>
<line x1="449.1" y1="317.5" x2="1034.9" y2="317.5" stroke="#4a8fbf" stroke-width="2.8031654368516734" clip-path="url(#topfv_N)"/>
<line x1="449.1" y1="330.5" x2="1034.9" y2="330.5" stroke="#4a8fbf" stroke-width="2.8031654368516734" clip-path="url(#topfv_N)"/>
<line x1="449.1" y1="343.6" x2="1034.9" y2="343.6" stroke="#4a8fbf" stroke-width="2.8031654368516734" clip-path="url(#topfv_N)"/>
<line x1="449.1" y1="356.6" x2="1034.9" y2="356.6" stroke="#4a8fbf" stroke-width="2.8031654368516734" clip-path="url(#topfv_N)"/>
<line x1="449.1" y1="369.7" x2="1034.9" y2="369.7" stroke="#4a8fbf" stroke-width="2.8031654368516734" clip-path="url(#topfv_N)"/>
<line x1="449.1" y1="382.8" x2="1034.9" y2="382.8" stroke="#4a8fbf" stroke-width="2.8031654368516734" clip-path="url(#topfv_N)"/>
<line x1="449.1" y1="395.8" x2="1034.9" y2="395.8" stroke="#4a8fbf" stroke-width="2.8031654368516734" clip-path="url(#topfv_N)"/>
<line x1="449.1" y1="1071.7" x2="1034.9" y2="1071.7" stroke="#4a8fbf" stroke-width="2.8031654368516734" clip-path="url(#topfv_S)"/>
<line x1="449.1" y1="1056.4" x2="1034.9" y2="1056.4" stroke="#4a8fbf" stroke-width="2.8031654368516734" clip-path="url(#topfv_S)"/>
<line x1="449.1" y1="1041.1" x2="1034.9" y2="1041.1" stroke="#4a8fbf" stroke-width="2.8031654368516734" clip-path="url(#topfv_S)"/>
<line x1="449.1" y1="1025.8" x2="1034.9" y2="1025.8" stroke="#4a8fbf" stroke-width="2.8031654368516734" clip-path="url(#topfv_S)"/>
<line x1="449.1" y1="1010.4" x2="1034.9" y2="1010.4" stroke="#4a8fbf" stroke-width="2.8031654368516734" clip-path="url(#topfv_S)"/>
<line x1="449.1" y1="995.1" x2="1034.9" y2="995.1" stroke="#4a8fbf" stroke-width="2.8031654368516734" clip-path="url(#topfv_S)"/>
<line x1="449.1" y1="979.8" x2="1034.9" y2="979.8" stroke="#4a8fbf" stroke-width="2.8031654368516734" clip-path="url(#topfv_S)"/>
<line x1="449.1" y1="964.5" x2="1034.9" y2="964.5" stroke="#4a8fbf" stroke-width="2.8031654368516734" clip-path="url(#topfv_S)"/>
<line x1="449.1" y1="949.2" x2="1034.9" y2="949.2" stroke="#4a8fbf" stroke-width="2.8031654368516734" clip-path="url(#topfv_S)"/>
<line x1="449.1" y1="933.9" x2="1034.9" y2="933.9" stroke="#4a8fbf" stroke-width="2.8031654368516734" clip-path="url(#topfv_S)"/>
<line x1="449.1" y1="918.6" x2="1034.9" y2="918.6" stroke="#4a8fbf" stroke-width="2.8031654368516734" clip-path="url(#topfv_S)"/>
<line x1="449.1" y1="903.3" x2="1034.9" y2="903.3" stroke="#4a8fbf" stroke-width="2.8031654368516734" clip-path="url(#topfv_S)"/>
<line x1="449.1" y1="888.0" x2="1034.9" y2="888.0" stroke="#4a8fbf" stroke-width="2.8031654368516734" clip-path="url(#topfv_S)"/>
<line x1="449.1" y1="872.6" x2="1034.9" y2="872.6" stroke="#4a8fbf" stroke-width="2.8031654368516734" clip-path="url(#topfv_S)"/>
<line x1="449.1" y1="857.3" x2="1034.9" y2="857.3" stroke="#4a8fbf" stroke-width="2.8031654368516734" clip-path="url(#topfv_S)"/>
<line x1="449.1" y1="842.0" x2="1034.9" y2="842.0" stroke="#4a8fbf" stroke-width="2.8031654368516734" clip-path="url(#topfv_S)"/>
<line x1="449.1" y1="826.7" x2="1034.9" y2="826.7" stroke="#4a8fbf" stroke-width="2.8031654368516734" clip-path="url(#topfv_S)"/>
<line x1="449.1" y1="811.4" x2="1034.9" y2="811.4" stroke="#4a8fbf" stroke-width="2.8031654368516734" clip-path="url(#topfv_S)"/>
<line x1="449.1" y1="796.1" x2="1034.9" y2="796.1" stroke="#4a8fbf" stroke-width="2.8031654368516734" clip-path="url(#topfv_S)"/>
<line x1="449.1" y1="780.8" x2="1034.9" y2="780.8" stroke="#4a8fbf" stroke-width="2.8031654368516734" clip-path="url(#topfv_S)"/>
<line x1="449.1" y1="765.5" x2="1034.9" y2="765.5" stroke="#4a8fbf" stroke-width="2.8031654368516734" clip-path="url(#topfv_S)"/>
<line x1="742.0" y1="316.0" x2="742.0" y2="837.0" stroke="#5a3a17" stroke-width="8.40949631055502"/>
<line x1="742.0" y1="400.1" x2="449.1" y2="213.0" stroke="#5a3a17" stroke-width="8.40949631055502"/>
<line x1="742.0" y1="400.1" x2="1034.9" y2="213.0" stroke="#5a3a17" stroke-width="8.40949631055502"/>
<line x1="742.0" y1="752.9" x2="449.1" y2="1087.0" stroke="#5a3a17" stroke-width="8.40949631055502"/>
<line x1="742.0" y1="752.9" x2="1034.9" y2="1087.0" stroke="#5a3a17" stroke-width="8.40949631055502"/>
<line x1="742.0" y1="316.0" x2="671.1" y2="354.8" stroke="#5a3a17" stroke-width="4.2" stroke-dasharray="5,3" opacity="0.85"/>
<line x1="742.0" y1="316.0" x2="812.9" y2="354.8" stroke="#5a3a17" stroke-width="4.2" stroke-dasharray="5,3" opacity="0.85"/>
<line x1="742.0" y1="837.0" x2="686.6" y2="816.1" stroke="#5a3a17" stroke-width="4.2" stroke-dasharray="5,3" opacity="0.85"/>
<line x1="742.0" y1="837.0" x2="797.4" y2="816.1" stroke="#5a3a17" stroke-width="4.2" stroke-dasharray="5,3" opacity="0.85"/>
<line x1="449.1" y1="400.1" x2="1034.9" y2="400.1" stroke="#8b0000" stroke-width="2.8" opacity="0.85"/>
<circle cx="742.0" cy="400.1" r="8" fill="white" stroke="#8b0000" stroke-width="1.2"/>
<text x="742.0" y="404.1" text-anchor="middle" font-size="10" font-weight="700" fill="#8b0000">T1</text>
<line x1="449.1" y1="591.4" x2="1034.9" y2="591.4" stroke="#8b0000" stroke-width="2.8" opacity="0.85"/>
<circle cx="742.0" cy="591.4" r="8" fill="white" stroke="#8b0000" stroke-width="1.2"/>
<text x="742.0" y="595.4" text-anchor="middle" font-size="10" font-weight="700" fill="#8b0000">T2</text>
<line x1="449.1" y1="752.9" x2="1034.9" y2="752.9" stroke="#8b0000" stroke-width="2.8" opacity="0.85"/>
<circle cx="742.0" cy="752.9" r="8" fill="white" stroke="#8b0000" stroke-width="1.2"/>
<text x="742.0" y="756.9" text-anchor="middle" font-size="10" font-weight="700" fill="#8b0000">T3</text>
<line x1="1034.9" y1="400.1" x2="1064.9" y2="400.1" stroke="#0066cc" stroke-width="0.5" stroke-dasharray="3,2"/>
<line x1="1034.9" y1="591.4" x2="1064.9" y2="591.4" stroke="#0066cc" stroke-width="0.5" stroke-dasharray="3,2"/>
<line x1="1034.9" y1="752.9" x2="1064.9" y2="752.9" stroke="#0066cc" stroke-width="0.5" stroke-dasharray="3,2"/>
<line x1="1060.9" y1="400.1" x2="1060.9" y2="591.4" stroke="#0066cc" stroke-width="1" marker-start="url(#arr)" marker-end="url(#arr)"/>
<text x="1066.9" y="499.7" text-anchor="start" font-size="11" fill="#0066cc">11' 5"</text>
<line x1="1060.9" y1="591.4" x2="1060.9" y2="752.9" stroke="#0066cc" stroke-width="1" marker-start="url(#arr)" marker-end="url(#arr)"/>
<text x="1066.9" y="676.2" text-anchor="start" font-size="11" fill="#0066cc">9' 7"</text>
<polygon points="514.9,255.0 969.1,255.0 969.1,1011.9 514.9,1011.9" fill="none" stroke="#1e5aa6" stroke-width="5.6" opacity="0.85"/>
<text x="981.1" y="633.5" text-anchor="start" font-size="11" font-weight="600" fill="#1e5aa6">Ring beam (27'×45')</text>
<line x1="628.5" y1="400.1" x2="628.5" y2="255.0" stroke="#8a4a1a" stroke-width="5.6" opacity="0.85"/>
<line x1="628.5" y1="752.9" x2="628.5" y2="1011.9" stroke="#8a4a1a" stroke-width="5.6" opacity="0.85"/>
<line x1="628.5" y1="400.1" x2="628.5" y2="591.4" stroke="#8a4a1a" stroke-width="5.6" opacity="0.85"/>
<line x1="628.5" y1="591.4" x2="628.5" y2="752.9" stroke="#8a4a1a" stroke-width="5.6" opacity="0.85"/>
<line x1="742.0" y1="400.1" x2="742.0" y2="255.0" stroke="#8a4a1a" stroke-width="5.6" opacity="0.85"/>
<line x1="742.0" y1="752.9" x2="742.0" y2="1011.9" stroke="#8a4a1a" stroke-width="5.6" opacity="0.85"/>
<line x1="742.0" y1="400.1" x2="742.0" y2="591.4" stroke="#8a4a1a" stroke-width="5.6" opacity="0.85"/>
<line x1="742.0" y1="591.4" x2="742.0" y2="752.9" stroke="#8a4a1a" stroke-width="5.6" opacity="0.85"/>
<line x1="855.5" y1="400.1" x2="855.5" y2="255.0" stroke="#8a4a1a" stroke-width="5.6" opacity="0.85"/>
<line x1="855.5" y1="752.9" x2="855.5" y2="1011.9" stroke="#8a4a1a" stroke-width="5.6" opacity="0.85"/>
<line x1="855.5" y1="400.1" x2="855.5" y2="591.4" stroke="#8a4a1a" stroke-width="5.6" opacity="0.85"/>
<line x1="855.5" y1="591.4" x2="855.5" y2="752.9" stroke="#8a4a1a" stroke-width="5.6" opacity="0.85"/>
<polygon points="449.1,213.0 1034.9,213.0 1034.9,1087.0 449.1,1087.0" fill="none" stroke="#4a8fbf" stroke-width="2.0" opacity="0.55"/>
<polygon points="450.5,214.4 1033.5,214.4 1033.5,1085.6 450.5,1085.6" fill="none" stroke="#404040" stroke-width="2.0" opacity="0.55"/>
<polygon points="449.1,213.0 1034.9,213.0 1034.9,1087.0 449.1,1087.0" fill="none" stroke="#222" stroke-width="1.0"/>
<rect x="100" y="280" width="329.11106833493744" height="268" fill="#ffffff" fill-opacity="0.92" stroke="#888" stroke-width="1"/>
<text x="110" y="296" font-size="12" font-weight="700" fill="#222">KEY</text>
<line x1="110" y1="315.0" x2="144" y2="315.0" stroke="#8B4513" stroke-width="2.8031654368516734"/>
<text x="152" y="319.0" text-anchor="start" font-size="12" fill="#222">2"×4"×2 mm HSS RAFTER @ 36" OC</text>
<line x1="110" y1="341.0" x2="144" y2="341.0" stroke="#4a8fbf" stroke-width="2.8031654368516734"/>
<text x="152" y="345.0" text-anchor="start" font-size="12" fill="#222">2"×1"×1.6 mm HSS PURLIN (flat) @ 12" OC</text>
<line x1="110" y1="367.0" x2="144" y2="367.0" stroke="#5a3a17" stroke-width="8.40949631055502"/>
<text x="152" y="371.0" text-anchor="start" font-size="12" fill="#222">6"×3"×2 mm HSS RIDGE / HIP</text>
<line x1="110" y1="393.0" x2="144" y2="393.0" stroke="#8b0000" stroke-width="2.8031654368516734"/>
<text x="152" y="397.0" text-anchor="start" font-size="12" fill="#222">FINK TRUSS × 3 — 2"×4"×3 mm HSS, 27' span</text>
<line x1="110" y1="419.0" x2="144" y2="419.0" stroke="#1e5aa6" stroke-width="5.606330873703347"/>
<text x="152" y="423.0" text-anchor="start" font-size="12" fill="#222">RING BEAM 27'×45' — 4"×2"×3 mm HSS @ wall top</text>
<line x1="110" y1="445.0" x2="144" y2="445.0" stroke="#8a4a1a" stroke-width="5.606330873703347"/>
<text x="152" y="449.0" text-anchor="start" font-size="12" fill="#222">HIP-END BEAMS × 12 — 4"×2"×2 mm HSS</text>
<line x1="110" y1="471.0" x2="144" y2="471.0" stroke="#4a8fbf" stroke-width="1.8"/>
<text x="152" y="475.0" text-anchor="start" font-size="12" fill="#222">6" × 1.2 mm GI PANI PATTI (outer eave band)</text>
<line x1="110" y1="497.0" x2="144" y2="497.0" stroke="#404040" stroke-width="1.8"/>
<text x="152" y="501.0" text-anchor="start" font-size="12" fill="#222">1"×1"×3 mm L-CHANNEL (inboard of Pani Patti)</text>
<text x="152" y="527.0" text-anchor="start" font-size="12" fill="#222">(all widths drawn to scale — 1 pixel ≈ 0.71")</text>
<line x1="120" y1="242" x2="120" y2="198" stroke="#333" stroke-width="1" marker-end="url(#arr)"/>
<text x="120" y="194" text-anchor="middle" font-size="12" font-weight="600" fill="#222">N</text>
</svg>
