<?xml version="1.0" encoding="UTF-8"?>
<svg xmlns="http://www.w3.org/2000/svg" width="850" height="620" viewBox="904 1838 850 620">
<title>HIP END — N (triangle, 39.1°)</title>
<defs>
  <marker id="arr" viewBox="0 0 10 10" refX="5" refY="5" markerWidth="6" markerHeight="6" orient="auto-start-reverse">
    <path d="M0,0 L10,5 L0,10 z" fill="#0066cc"/>
  </marker>
  <style>text { font-family: -apple-system, Arial, sans-serif; }</style>
</defs>
<rect x="0" y="0" width="100%" height="100%" fill="#fafafa"/>
<rect x="904" y="1838" width="850" height="620" fill="#ffffff" stroke="#bbb" stroke-width="1"/>
<rect x="904" y="1838" width="850" height="46" fill="#f2f2f2" stroke="#bbb" stroke-width="1"/>
<text x="1329.0" y="1869" text-anchor="middle" font-size="18" font-weight="600" fill="#222">HIP END — N (triangle, 39.1°)</text>
<line x1="1130.59" y1="2246.49" x2="1527.41" y2="2246.49" stroke="#4a8fbf" stroke-width="0.7" opacity="0.75"/>
<line x1="1145.48" y1="2234.24" x2="1512.52" y2="2234.24" stroke="#4a8fbf" stroke-width="0.7" opacity="0.75"/>
<line x1="1160.37" y1="2221.99" x2="1497.63" y2="2221.99" stroke="#4a8fbf" stroke-width="0.7" opacity="0.75"/>
<line x1="1175.26" y1="2209.74" x2="1482.74" y2="2209.74" stroke="#4a8fbf" stroke-width="0.7" opacity="0.75"/>
<line x1="1190.14" y1="2197.50" x2="1467.86" y2="2197.50" stroke="#4a8fbf" stroke-width="0.7" opacity="0.75"/>
<line x1="1205.03" y1="2185.25" x2="1452.97" y2="2185.25" stroke="#4a8fbf" stroke-width="0.7" opacity="0.75"/>
<line x1="1219.92" y1="2173.00" x2="1438.08" y2="2173.00" stroke="#4a8fbf" stroke-width="0.7" opacity="0.75"/>
<line x1="1234.81" y1="2160.75" x2="1423.19" y2="2160.75" stroke="#4a8fbf" stroke-width="0.7" opacity="0.75"/>
<line x1="1249.70" y1="2148.50" x2="1408.30" y2="2148.50" stroke="#4a8fbf" stroke-width="0.7" opacity="0.75"/>
<line x1="1264.59" y1="2136.25" x2="1393.41" y2="2136.25" stroke="#4a8fbf" stroke-width="0.7" opacity="0.75"/>
<line x1="1279.48" y1="2124.00" x2="1378.52" y2="2124.00" stroke="#4a8fbf" stroke-width="0.7" opacity="0.75"/>
<line x1="1294.36" y1="2111.76" x2="1363.64" y2="2111.76" stroke="#4a8fbf" stroke-width="0.7" opacity="0.75"/>
<line x1="1309.25" y1="2099.51" x2="1348.75" y2="2099.51" stroke="#4a8fbf" stroke-width="0.7" opacity="0.75"/>
<line x1="1324.14" y1="2087.26" x2="1333.86" y2="2087.26" stroke="#4a8fbf" stroke-width="0.7" opacity="0.75"/>
<line x1="1126.90" y1="2258.74" x2="1126.90" y2="2249.53" stroke="#666" stroke-width="0.9" opacity="0.9"/>
<line x1="1163.64" y1="2258.74" x2="1163.64" y2="2219.30" stroke="#666" stroke-width="0.9" opacity="0.9"/>
<line x1="1200.39" y1="2258.74" x2="1200.39" y2="2189.07" stroke="#666" stroke-width="0.9" opacity="0.9"/>
<line x1="1237.14" y1="2258.74" x2="1237.14" y2="2158.84" stroke="#666" stroke-width="0.9" opacity="0.9"/>
<line x1="1273.88" y1="2258.74" x2="1273.88" y2="2128.61" stroke="#666" stroke-width="0.9" opacity="0.9"/>
<line x1="1310.63" y1="2258.74" x2="1310.63" y2="2098.38" stroke="#666" stroke-width="0.9" opacity="0.9"/>
<line x1="1347.37" y1="2258.74" x2="1347.37" y2="2098.38" stroke="#666" stroke-width="0.9" opacity="0.9"/>
<line x1="1384.12" y1="2258.74" x2="1384.12" y2="2128.61" stroke="#666" stroke-width="0.9" opacity="0.9"/>
<line x1="1420.86" y1="2258.74" x2="1420.86" y2="2158.84" stroke="#666" stroke-width="0.9" opacity="0.9"/>
<line x1="1457.61" y1="2258.74" x2="1457.61" y2="2189.07" stroke="#666" stroke-width="0.9" opacity="0.9"/>
<line x1="1494.36" y1="2258.74" x2="1494.36" y2="2219.30" stroke="#666" stroke-width="0.9" opacity="0.9"/>
<line x1="1531.10" y1="2258.74" x2="1531.10" y2="2249.53" stroke="#666" stroke-width="0.9" opacity="0.9"/>
<path d="M 1115.70 2258.74 L 1542.30 2258.74 L 1329.00 2083.26 Z" fill="none" stroke="#8B4513" stroke-width="3"/>
<line x1="1115.7004519395741" y1="2258.738732858336" x2="1115.7004519395741" y2="2308.738732858336" stroke="#0066cc" stroke-width="0.6"/>
<line x1="1542.2995480604259" y1="2258.738732858336" x2="1542.2995480604259" y2="2308.738732858336" stroke="#0066cc" stroke-width="0.6"/>
<line x1="1115.7004519395741" y1="2300.738732858336" x2="1542.2995480604259" y2="2300.738732858336" stroke="#0066cc" stroke-width="1" marker-start="url(#arr)" marker-end="url(#arr)"/>
<text x="1329.0" y="2294.738732858336" text-anchor="middle" font-size="12" fill="#0066cc">eave = 34' 10"</text>
<line x1="1542.2995480604259" y1="2258.738732858336" x2="1582.2995480604259" y2="2258.738732858336" stroke="#0066cc" stroke-width="0.6" stroke-dasharray="3,3"/>
<line x1="1329.0" y1="2083.261267141664" x2="1582.2995480604259" y2="2083.261267141664" stroke="#0066cc" stroke-width="0.6" stroke-dasharray="3,3"/>
<line x1="1574.2995480604259" y1="2258.738732858336" x2="1574.2995480604259" y2="2083.261267141664" stroke="#0066cc" stroke-width="1" marker-start="url(#arr)" marker-end="url(#arr)"/>
<text x="1580.2995480604259" y="2171.0" text-anchor="start" font-size="11" fill="#0066cc">height = 14' 4"</text>
<text x="1214.350225969787" y="2171.0" text-anchor="end" font-size="10" fill="#555">hip = 22' 7"</text>
<text x="1123.7004519395741" y="2252.738732858336" text-anchor="start" font-size="11" fill="#333">39.4°</text>
<text x="1534.2995480604259" y="2252.738732858336" text-anchor="end" font-size="11" fill="#333">39.4°</text>
<text x="1329.0" y="2098.261267141664" text-anchor="middle" font-size="11" fill="#333">101.1°</text>
<text x="1329.0" y="1904" text-anchor="middle" font-size="15" font-weight="600" fill="#8B4513">ROOF PITCH: 39.1°</text>
<text x="1329.0" y="1922" text-anchor="middle" font-size="13" fill="#333">AREA: 249 sft per face   (× 2 = 499 sft)</text>
<text x="1744" y="1904" text-anchor="end" font-size="11" fill="#333">12 rafters @ 36" OC</text>
<text x="1744" y="1919" text-anchor="end" font-size="11" fill="#333">14 purlins @ 12" OC</text>
</svg>
