<?xml version="1.0" encoding="UTF-8"?>
<svg xmlns="http://www.w3.org/2000/svg" width="1724" height="400" viewBox="30 4632.989898989899 1724 400">
<title>Fink truss elevation — bottom chord on ring beam</title>
<defs>
  <marker id="arr" viewBox="0 0 10 10" refX="5" refY="5" markerWidth="6" markerHeight="6" orient="auto-start-reverse">
    <path d="M0,0 L10,5 L0,10 z" fill="#0066cc"/>
  </marker>
  <style>text { font-family: -apple-system, Arial, sans-serif; }</style>
</defs>
<rect x="0" y="0" width="100%" height="100%" fill="#fafafa"/>
<rect x="30" y="4632.989898989899" width="1724" height="400" fill="#ffffff" stroke="#bbb" stroke-width="1"/>
<rect x="30" y="4632.989898989899" width="1724" height="40" fill="#f2f2f2" stroke="#bbb" stroke-width="1"/>
<text x="892.0" y="4660.989898989899" text-anchor="middle" font-size="18" font-weight="600" fill="#222">FINK TRUSS ELEVATION — bottom chord on ring beam (× 3 identical trusses)</text>
<text x="732.0" y="4691.0" text-anchor="middle" font-size="13" font-weight="600" fill="#8b0000">FINK TRUSS × 3 — transverse, spans 27' × rise 6' 9"</text>
<line x1="344.3" y1="4906.8" x2="732.0" y2="4713.0" stroke="#8b0000" stroke-width="3.0"/>
<line x1="732.0" y1="4713.0" x2="1119.7" y2="4906.8" stroke="#8b0000" stroke-width="3.0"/>
<line x1="344.3" y1="4906.8" x2="1119.7" y2="4906.8" stroke="#8b0000" stroke-width="3.0"/>
<line x1="732.0" y1="4713.0" x2="732.0" y2="4906.8" stroke="#c25050" stroke-width="1.8"/>
<line x1="732.0" y1="4713.0" x2="538.2" y2="4906.8" stroke="#c25050" stroke-width="1.8"/>
<line x1="732.0" y1="4713.0" x2="925.8" y2="4906.8" stroke="#c25050" stroke-width="1.8"/>
<line x1="538.2" y1="4809.9" x2="538.2" y2="4906.8" stroke="#c25050" stroke-width="1.8"/>
<line x1="925.8" y1="4809.9" x2="925.8" y2="4906.8" stroke="#c25050" stroke-width="1.8"/>
<circle cx="344.3" cy="4906.8" r="2.7" fill="#8b0000"/>
<circle cx="538.2" cy="4906.8" r="2.7" fill="#8b0000"/>
<circle cx="732.0" cy="4906.8" r="2.7" fill="#8b0000"/>
<circle cx="925.8" cy="4906.8" r="2.7" fill="#8b0000"/>
<circle cx="1119.7" cy="4906.8" r="2.7" fill="#8b0000"/>
<circle cx="538.2" cy="4809.9" r="2.7" fill="#8b0000"/>
<circle cx="732.0" cy="4713.0" r="2.7" fill="#8b0000"/>
<circle cx="925.8" cy="4809.9" r="2.7" fill="#8b0000"/>
<line x1="344.3" y1="4946.8" x2="1119.7" y2="4946.8" stroke="#0066cc" stroke-width="1" marker-start="url(#arr)" marker-end="url(#arr)"/>
<text x="732.0" y="4940.8" text-anchor="middle" font-size="12" fill="#0066cc">Bottom chord = 27'</text>
<line x1="702.0" y1="4713.0" x2="702.0" y2="4906.8" stroke="#0066cc" stroke-width="1" marker-start="url(#arr)" marker-end="url(#arr)"/>
<text x="696.0" y="4813.9" text-anchor="end" font-size="11" fill="#0066cc">h = 6' 9"</text>
<text x="518.2" y="4801.9" text-anchor="middle" font-size="12" fill="#8b0000" font-weight="600">Top chord 15' 1"</text>
<text x="742.0" y="4813.9" text-anchor="start" font-size="11" fill="#c25050">King post 6' 9"</text>
<text x="627.1" y="4813.9" text-anchor="end" font-size="10" fill="#c25050">diag 9' 7"</text>
<text x="544.2" y="4862.4" text-anchor="start" font-size="10" fill="#c25050">vert 3' 4"</text>
<text x="369.3" y="4900.8" text-anchor="start" font-size="11" fill="#444">27°</text>
<text x="1464" y="4692.989898989899" font-size="11" fill="#8b0000" font-weight="600">FINK TRUSS × 3 (identical)</text>
<text x="1464" y="4708.989898989899" font-size="11" fill="#333">Chord (2"×4"×3 mm) each: 57' 2"</text>
<text x="1464" y="4724.989898989899" font-size="11" fill="#333">Web (2"×2"×2 mm) each: 32' 7"</text>
<text x="1464" y="4740.989898989899" font-size="11" fill="#333"></text>
<text x="1464" y="4756.989898989899" font-size="11" fill="#8b0000" font-weight="600">Total for 3 trusses:</text>
<text x="1464" y="4772.989898989899" font-size="11" fill="#333">Chord total: 171' 7"</text>
<text x="1464" y="4788.989898989899" font-size="11" fill="#333">Web total: 97' 9"</text>
<text x="1464" y="4804.989898989899" font-size="11" fill="#333"></text>
<text x="1464" y="4820.989898989899" font-size="11" fill="#1e5aa6" font-weight="600">RING BEAM (27'×45')</text>
<text x="1464" y="4836.989898989899" font-size="11" fill="#333">4"×2"×3 mm perimeter: 144'</text>
<text x="1464" y="4852.989898989899" font-size="11" fill="#333"></text>
<text x="1464" y="4868.989898989899" font-size="11" fill="#8a4a1a" font-weight="600">HIP-END BEAMS × 12</text>
<text x="1464" y="4884.989898989899" font-size="11" fill="#333">4"×2"×2 mm total: 135'</text>
</svg>
