<?xml version="1.0" encoding="UTF-8"?>
<svg xmlns="http://www.w3.org/2000/svg" width="1180.0" height="1110.0" viewBox="0 0 1180.0 1110.0">
<title>Roof Floor - Floor Plan</title>
<defs>
    <style>
        text { font-family: Arial, sans-serif; }
    </style>
</defs>
<g transform="translate(320.0, 190.0) scale(2.0, 2.0)">

<rect x="0" y="80" width="270" height="8" fill="#8B4513" stroke="#654321" stroke-width="1" opacity="0.8"/>
<rect x="0" y="292" width="270" height="8" fill="#8B4513" stroke="#654321" stroke-width="1" opacity="0.8"/>
<rect x="0" y="88" width="8" height="204" fill="#8B4513" stroke="#654321" stroke-width="1" opacity="0.8"/>
<rect x="262" y="88" width="8" height="204" fill="#8B4513" stroke="#654321" stroke-width="1" opacity="0.8"/>
<polygon points="4.0,84.0 131.0,84.0 131.0,76.0 4.0,76.0" fill="#8B4513" stroke="#000" stroke-width="0.5"/>
<polygon points="139.0,84.0 266.0,84.0 266.0,76.0 139.0,76.0" fill="#8B4513" stroke="#000" stroke-width="0.5"/>
<polygon points="4.0,304.0 131.0,304.0 131.0,296.0 4.0,296.0" fill="#8B4513" stroke="#000" stroke-width="0.5"/>
<polygon points="139.0,304.0 266.0,304.0 266.0,296.0 139.0,296.0" fill="#8B4513" stroke="#000" stroke-width="0.5"/>
<g class="dimension">
  <line x1="12" y1="50" x2="123" y2="50" stroke="#000" stroke-width="0.5"/>
  <line x1="12" y1="80" x2="12" y2="50" stroke="#000" stroke-width="0.3" stroke-dasharray="2,2"/>
  <line x1="123" y1="80" x2="123" y2="50" stroke="#000" stroke-width="0.3" stroke-dasharray="2,2"/>
  <polygon points="12,50 15,47 15,53" fill="#000"/>
  <polygon points="123,50 120,47 120,53" fill="#000"/>
  <text x="67.5" y="45" text-anchor="middle" font-size="10" fill="#000">11' 1"</text>
</g>
<g class="dimension">
  <line x1="147" y1="50" x2="258" y2="50" stroke="#000" stroke-width="0.5"/>
  <line x1="147" y1="80" x2="147" y2="50" stroke="#000" stroke-width="0.3" stroke-dasharray="2,2"/>
  <line x1="258" y1="80" x2="258" y2="50" stroke="#000" stroke-width="0.3" stroke-dasharray="2,2"/>
  <polygon points="147,50 150,47 150,53" fill="#000"/>
  <polygon points="258,50 255,47 255,53" fill="#000"/>
  <text x="202.5" y="45" text-anchor="middle" font-size="10" fill="#000">11' 1"</text>
</g>
<g class="dimension">
  <line x1="12" y1="330" x2="123" y2="330" stroke="#000" stroke-width="0.5"/>
  <line x1="12" y1="300" x2="12" y2="330" stroke="#000" stroke-width="0.3" stroke-dasharray="2,2"/>
  <line x1="123" y1="300" x2="123" y2="330" stroke="#000" stroke-width="0.3" stroke-dasharray="2,2"/>
  <polygon points="12,330 15,327 15,333" fill="#000"/>
  <polygon points="123,330 120,327 120,333" fill="#000"/>
  <text x="67.5" y="343" text-anchor="middle" font-size="10" fill="#000">11' 1"</text>
</g>
<g class="dimension">
  <line x1="147" y1="330" x2="258" y2="330" stroke="#000" stroke-width="0.5"/>
  <line x1="147" y1="300" x2="147" y2="330" stroke="#000" stroke-width="0.3" stroke-dasharray="2,2"/>
  <line x1="258" y1="300" x2="258" y2="330" stroke="#000" stroke-width="0.3" stroke-dasharray="2,2"/>
  <polygon points="147,330 150,327 150,333" fill="#000"/>
  <polygon points="258,330 255,327 255,333" fill="#000"/>
  <text x="202.5" y="343" text-anchor="middle" font-size="10" fill="#000">11' 1"</text>
</g>
<g class="dimension">
  <line x1="0" y1="0.0" x2="270" y2="0.0" stroke="#000" stroke-width="0.5"/>
  <line x1="0" y1="80" x2="0" y2="0.0" stroke="#000" stroke-width="0.3" stroke-dasharray="2,2"/>
  <line x1="270" y1="80" x2="270" y2="0.0" stroke="#000" stroke-width="0.3" stroke-dasharray="2,2"/>
  <polygon points="0,0.0 3,-3.0 3,3.0" fill="#000"/>
  <polygon points="270,0.0 267,-3.0 267,3.0" fill="#000"/>
  <text x="135.0" y="-5.0" text-anchor="middle" font-size="10" fill="#000">27'</text>
</g>
<g class="dimension">
  <line x1="0" y1="380.0" x2="270" y2="380.0" stroke="#000" stroke-width="0.5"/>
  <line x1="0" y1="300" x2="0" y2="380.0" stroke="#000" stroke-width="0.3" stroke-dasharray="2,2"/>
  <line x1="270" y1="300" x2="270" y2="380.0" stroke="#000" stroke-width="0.3" stroke-dasharray="2,2"/>
  <polygon points="0,380.0 3,377.0 3,383.0" fill="#000"/>
  <polygon points="270,380.0 267,377.0 267,383.0" fill="#000"/>
  <text x="135.0" y="393.0" text-anchor="middle" font-size="10" fill="#000">27'</text>
</g>
<g class="dimension">
  <line x1="-80.0" y1="80" x2="-80.0" y2="300" stroke="#000" stroke-width="0.5"/>
  <line x1="0" y1="80" x2="-80.0" y2="80" stroke="#000" stroke-width="0.3" stroke-dasharray="2,2"/>
  <line x1="0" y1="300" x2="-80.0" y2="300" stroke="#000" stroke-width="0.3" stroke-dasharray="2,2"/>
  <polygon points="-80.0,80 -83.0,83 -77.0,83" fill="#000"/>
  <polygon points="-80.0,300 -83.0,297 -77.0,297" fill="#000"/>
  <text x="-93.0" y="190.0" text-anchor="middle" font-size="10" fill="#000" transform="rotate(-90 -93.0 190.0)">22'</text>
</g>
<g class="dimension">
  <line x1="350.0" y1="80" x2="350.0" y2="300" stroke="#000" stroke-width="0.5"/>
  <line x1="270" y1="80" x2="350.0" y2="80" stroke="#000" stroke-width="0.3" stroke-dasharray="2,2"/>
  <line x1="270" y1="300" x2="350.0" y2="300" stroke="#000" stroke-width="0.3" stroke-dasharray="2,2"/>
  <polygon points="350.0,80 347.0,83 353.0,83" fill="#000"/>
  <polygon points="350.0,300 347.0,297 353.0,297" fill="#000"/>
  <text x="363.0" y="190.0" text-anchor="middle" font-size="10" fill="#000" transform="rotate(-90 363.0 190.0)">22'</text>
</g>
</g>
<text x="590.0" y="30" text-anchor="middle" font-size="16" font-weight="bold">Roof Floor</text>
</svg>