<?xml version="1.0" encoding="UTF-8"?>
<svg xmlns="http://www.w3.org/2000/svg" width="1180.0" height="1570.0" viewBox="0 0 1180.0 1570.0">
<title>Loft Floor - Floor Plan</title>
<defs>
    <style>
        text { font-family: Arial, sans-serif; }
    </style>
</defs>
<g transform="translate(320.0, 350.0) scale(2.0, 2.0)">

<rect x="0" y="0" width="270" height="8" fill="#8B4513" stroke="#654321" stroke-width="1" opacity="0.8"/>
<rect x="0" y="80" width="270" height="12" fill="#8B4513" stroke="#654321" stroke-width="1" opacity="0.8"/>
<rect x="0" y="196" width="270" height="8" fill="#8B4513" stroke="#654321" stroke-width="1" opacity="0.8"/>
<rect x="0" y="290" width="270" height="12" fill="#8B4513" stroke="#654321" stroke-width="1" opacity="0.8"/>
<rect x="0" y="438" width="270" height="12" fill="#8B4513" stroke="#654321" stroke-width="1" opacity="0.8"/>
<rect x="0" y="0" width="8" height="450" fill="#8B4513" stroke="#654321" stroke-width="1" opacity="0.8"/>
<rect x="262" y="0" width="8" height="450" fill="#8B4513" stroke="#654321" stroke-width="1" opacity="0.8"/>
<g class="dimension">
  <line x1="0" y1="-80.0" x2="270" y2="-80.0" stroke="#000" stroke-width="0.5"/>
  <line x1="0" y1="0" x2="0" y2="-80.0" stroke="#000" stroke-width="0.3" stroke-dasharray="2,2"/>
  <line x1="270" y1="0" x2="270" y2="-80.0" stroke="#000" stroke-width="0.3" stroke-dasharray="2,2"/>
  <polygon points="0,-80.0 3,-83.0 3,-77.0" fill="#000"/>
  <polygon points="270,-80.0 267,-83.0 267,-77.0" fill="#000"/>
  <text x="135.0" y="-85.0" text-anchor="middle" font-size="10" fill="#000">27'</text>
</g>
<g class="dimension">
  <line x1="0" y1="530.0" x2="270" y2="530.0" stroke="#000" stroke-width="0.5"/>
  <line x1="0" y1="450" x2="0" y2="530.0" stroke="#000" stroke-width="0.3" stroke-dasharray="2,2"/>
  <line x1="270" y1="450" x2="270" y2="530.0" stroke="#000" stroke-width="0.3" stroke-dasharray="2,2"/>
  <polygon points="0,530.0 3,527.0 3,533.0" fill="#000"/>
  <polygon points="270,530.0 267,527.0 267,533.0" fill="#000"/>
  <text x="135.0" y="543.0" text-anchor="middle" font-size="10" fill="#000">27'</text>
</g>
<g class="dimension">
  <line x1="-80.0" y1="0" x2="-80.0" y2="450" stroke="#000" stroke-width="0.5"/>
  <line x1="0" y1="0" x2="-80.0" y2="0" stroke="#000" stroke-width="0.3" stroke-dasharray="2,2"/>
  <line x1="0" y1="450" x2="-80.0" y2="450" stroke="#000" stroke-width="0.3" stroke-dasharray="2,2"/>
  <polygon points="-80.0,0 -83.0,3 -77.0,3" fill="#000"/>
  <polygon points="-80.0,450 -83.0,447 -77.0,447" fill="#000"/>
  <text x="-93.0" y="225.0" text-anchor="middle" font-size="10" fill="#000" transform="rotate(-90 -93.0 225.0)">45'</text>
</g>
<g class="dimension">
  <line x1="350.0" y1="0" x2="350.0" y2="450" stroke="#000" stroke-width="0.5"/>
  <line x1="270" y1="0" x2="350.0" y2="0" stroke="#000" stroke-width="0.3" stroke-dasharray="2,2"/>
  <line x1="270" y1="450" x2="350.0" y2="450" stroke="#000" stroke-width="0.3" stroke-dasharray="2,2"/>
  <polygon points="350.0,0 347.0,3 353.0,3" fill="#000"/>
  <polygon points="350.0,450 347.0,447 353.0,447" fill="#000"/>
  <text x="363.0" y="225.0" text-anchor="middle" font-size="10" fill="#000" transform="rotate(-90 363.0 225.0)">45'</text>
</g>
</g>
<text x="590.0" y="30" text-anchor="middle" font-size="16" font-weight="bold">Loft Floor</text>
</svg>